<svg width="24" height="23" viewBox="0 0 24 23" fill="none" xmlns="http://www.w3.org/2000/svg">
<path fill-rule="evenodd" clip-rule="evenodd" d="M7.3024 17.9756C10.8788 20.57 15.8811 19.7739 18.4755 16.1975C21.0699 12.6212 20.2739 7.61881 16.6975 5.02442C13.1211 2.43004 8.11876 3.22609 5.52438 6.80245C2.92999 10.3788 3.72604 15.3812 7.3024 17.9756Z" fill="#F7931A"/>
<path fill-rule="evenodd" clip-rule="evenodd" d="M13.7206 8.57373C14.7191 8.93267 15.4422 9.46535 15.2712 10.4465C15.1473 11.1644 14.745 11.5099 14.2203 11.6283C14.9263 12.0114 15.2753 12.5939 14.9012 13.597C14.4373 14.8428 13.4109 14.9413 12.0566 14.671L11.6904 16.0116L10.8976 15.8045L11.2589 14.4818C11.0533 14.4283 10.8434 14.3714 10.627 14.3101L10.2645 15.6389L9.47255 15.4318L9.83851 14.0886C9.77049 14.0703 9.70203 14.0516 9.63311 14.0328L9.63273 14.0327C9.51432 14.0003 9.39458 13.9677 9.27344 13.9358L8.24179 13.6662L8.66256 12.7422C8.66256 12.7422 9.24677 12.9047 9.2391 12.893C9.4635 12.9513 9.56782 12.8024 9.61008 12.703L10.6028 9.06524C10.6171 8.89333 10.5646 8.67596 10.2435 8.5919C10.2562 8.58337 9.66771 8.44175 9.66771 8.44175L9.90314 7.57844L10.9964 7.86461L10.9955 7.86871C11.16 7.91164 11.3294 7.95235 11.502 7.99369L11.8647 6.66594L12.6569 6.87311L12.3018 8.17466C12.5147 8.22561 12.7287 8.27707 12.9373 8.33157L13.2902 7.03861L14.083 7.24578L13.7206 8.57373ZM13.3784 13.0284C13.6354 12.0865 12.2624 11.763 11.593 11.6053C11.5184 11.5877 11.4525 11.5722 11.3986 11.5581L10.9127 13.3374C10.9571 13.349 11.0091 13.3634 11.0673 13.3795C11.7141 13.5584 13.1273 13.9495 13.3784 13.0284ZM12.225 9.16899C12.7839 9.29908 13.9281 9.5654 13.6945 10.4214C13.466 11.2585 12.29 10.9298 11.7509 10.7791C11.7019 10.7654 11.6582 10.7532 11.6209 10.7434L12.0612 9.12958C12.1065 9.14142 12.1621 9.15434 12.225 9.16899Z" fill="white"/>
</svg>
