<svg width="70" height="22" viewBox="0 0 70 22" fill="none" xmlns="http://www.w3.org/2000/svg">
<path d="M61.3888 5.43903L58.734 9.7788C58.5302 10.112 58.77 10.5397 59.1606 10.5397H62.9531C63.2808 10.5397 63.5199 10.2299 63.4368 9.91292L62.299 5.57315C62.1873 5.14691 61.6188 5.06314 61.3888 5.43903Z" fill="#ECCA74"/>
<path d="M63.0038 2.31849L64.5865 10.1389C64.6337 10.3721 64.8387 10.5397 65.0766 10.5397H69.0333C69.4391 10.5397 69.6759 10.0818 69.4413 9.75071L63.9019 1.93031C63.5895 1.48926 62.8966 1.78875 63.0038 2.31849Z" fill="#ECCA74"/>
<path d="M0 21.2395V7.7135H2.98655V18.6889H9.45741V21.2395H0Z" fill="black"/>
<path d="M15.0362 21.3941C14.2127 21.3941 13.4753 21.2266 12.8239 20.8917C12.1848 20.5567 11.687 20.0479 11.3306 19.3652C10.9742 18.6695 10.796 17.7871 10.796 16.7179V10.8438H13.6719V16.2735C13.6719 17.1366 13.844 17.7742 14.1881 18.1865C14.5445 18.5858 15.0423 18.7855 15.6814 18.7855C16.1239 18.7855 16.5171 18.6889 16.8613 18.4956C17.2054 18.2895 17.4758 17.9804 17.6724 17.5681C17.8691 17.143 17.9674 16.6149 17.9674 15.9837V10.8438H20.8433V21.2395H18.1149V18.3797L18.6126 19.2106C18.2808 19.932 17.7892 20.4794 17.1378 20.853C16.4987 21.2137 15.7982 21.3941 15.0362 21.3941Z" fill="black"/>
<path d="M22.2541 21.2395L26.697 15.1335L26.6417 16.7952L22.3831 10.8438H25.6093L28.3009 14.7277L27.0842 14.7663L29.8679 10.8438H32.9282L28.6512 16.7373V15.1141L33.0757 21.2395H29.8126L26.992 17.1044L28.1903 17.2783L25.3881 21.2395H22.2541Z" fill="black"/>
<path d="M38.8852 21.3941C37.8282 21.3941 36.888 21.1622 36.0646 20.6984C35.2534 20.2347 34.6082 19.6035 34.1288 18.8048C33.6618 17.9932 33.4283 17.0722 33.4283 16.0416C33.4283 14.9982 33.6618 14.0771 34.1288 13.2785C34.6082 12.4669 35.2534 11.8357 36.0646 11.3848C36.888 10.9211 37.8282 10.6892 38.8852 10.6892C39.9299 10.6892 40.8639 10.9211 41.6874 11.3848C42.5108 11.8357 43.1561 12.4605 43.6231 13.2592C44.0902 14.0578 44.3237 14.9853 44.3237 16.0416C44.3237 17.0722 44.0902 17.9932 43.6231 18.8048C43.1561 19.6035 42.5108 20.2347 41.6874 20.6984C40.8639 21.1622 39.9299 21.3941 38.8852 21.3941ZM38.8852 18.9207C39.3645 18.9207 39.7947 18.8048 40.1757 18.5729C40.5567 18.3411 40.8578 18.0126 41.079 17.5875C41.3003 17.1495 41.4109 16.6342 41.4109 16.0416C41.4109 15.4362 41.3003 14.9209 41.079 14.4958C40.8578 14.0707 40.5567 13.7422 40.1757 13.5103C39.7947 13.2785 39.3645 13.1625 38.8852 13.1625C38.4059 13.1625 37.9757 13.2785 37.5947 13.5103C37.2137 13.7422 36.9065 14.0707 36.6729 14.4958C36.4517 14.9209 36.3411 15.4362 36.3411 16.0416C36.3411 16.6342 36.4517 17.1495 36.6729 17.5875C36.9065 18.0126 37.2137 18.3411 37.5947 18.5729C37.9757 18.8048 38.4059 18.9207 38.8852 18.9207Z" fill="black"/>
<path d="M46.246 21.2395V10.8438H48.9929V13.7809L48.6057 12.9307C48.9007 12.1964 49.3739 11.6425 50.0253 11.2689C50.6767 10.8824 51.4694 10.6892 52.4035 10.6892V13.4717C52.2806 13.4588 52.1699 13.4524 52.0716 13.4524C51.9733 13.4395 51.8688 13.4331 51.7582 13.4331C50.9716 13.4331 50.3325 13.6714 49.8409 14.148C49.3616 14.6117 49.1219 15.3396 49.1219 16.3315V21.2395H46.246Z" fill="black"/>
</svg>
