<svg width="82" height="19" viewBox="0 0 82 19" fill="none" xmlns="http://www.w3.org/2000/svg">
<path fill-rule="evenodd" clip-rule="evenodd" d="M73.0535 4.58073C73.1696 4.58073 73.2637 4.4869 73.2637 4.37106V3.2464C73.2637 3.13057 73.1696 3.03649 73.0535 3.03649H72.0108V1.01377C72.0108 0.897692 71.9167 0.803867 71.8011 0.803867H70.0719C69.9559 0.803867 69.8622 0.897692 69.8622 1.01377V8.18989C69.8622 8.63677 69.9232 9.06268 70.0468 9.46529C70.1687 9.86843 70.3677 10.221 70.6405 10.523C70.9157 10.8251 71.2661 11.0667 71.6895 11.245C72.1161 11.4233 72.6319 11.5133 73.2363 11.5133H73.2637V9.81533C73.2637 9.70784 73.1825 9.61804 73.0759 9.60666C72.7277 9.56973 72.4705 9.43038 72.3025 9.18864C72.1071 8.90334 72.0108 8.49818 72.0108 7.97141V4.58073H73.0535Z" fill="#2964EC"/>
<path fill-rule="evenodd" clip-rule="evenodd" d="M31.0784 9.7358C31.6266 9.7358 32.0743 9.50414 32.4215 9.04005C32.7682 8.57624 32.942 7.97531 32.942 7.23735C32.942 5.53834 32.315 4.68885 31.0614 4.68885C29.8414 4.68885 29.2314 5.58337 29.2314 7.37164C29.2314 8.07599 29.4079 8.64578 29.7602 9.08177C30.113 9.51803 30.552 9.7358 31.0784 9.7358ZM27.1662 11.0855V0.237245C27.1662 0.121415 27.2603 0.0275879 27.3761 0.0275879H29.1057C29.2215 0.0275879 29.3154 0.121415 29.3154 0.237245V4.1188C29.9307 3.25843 30.748 2.82799 31.7668 2.82799C32.3039 2.82799 32.7824 2.93142 33.2022 3.13804C33.622 3.34492 33.9771 3.63854 34.2685 4.0184C34.5593 4.39851 34.7806 4.84819 34.9313 5.36788C35.0826 5.88785 35.1582 6.46068 35.1582 7.08661C35.1582 7.77985 35.0684 8.40018 34.8896 8.94775C34.7106 9.49553 34.464 9.95962 34.1509 10.3395C33.8373 10.7196 33.4597 11.0102 33.0176 11.2112C32.575 11.4125 32.0968 11.513 31.5821 11.513C30.552 11.513 29.7855 11.1052 29.2817 10.2891L29.2683 11.0891C29.2665 11.2036 29.173 11.2952 29.0587 11.2952H27.3761C27.2603 11.2952 27.1662 11.2014 27.1662 11.0855Z" fill="#2964EC"/>
<path fill-rule="evenodd" clip-rule="evenodd" d="M36.0141 11.0855V3.25539C36.0141 3.13956 36.1082 3.04574 36.2241 3.04574H37.9871C38.1029 3.04574 38.1967 3.13956 38.1967 3.25539V11.0855C38.1967 11.2014 38.1029 11.2952 37.9871 11.2952H36.2241C36.1082 11.2952 36.0141 11.2014 36.0141 11.0855ZM36.0141 1.84697V0.237245C36.0141 0.121415 36.1082 0.0275879 36.2241 0.0275879H37.9871C38.1029 0.0275879 38.1967 0.121415 38.1967 0.237245V1.84697C38.1967 1.96281 38.1029 2.05663 37.9871 2.05663H36.2241C36.1082 2.05663 36.0141 1.96281 36.0141 1.84697Z" fill="#2964EC"/>
<path fill-rule="evenodd" clip-rule="evenodd" d="M46.3797 8.31106C46.5115 8.31106 46.61 8.43173 46.5863 8.56145C46.5168 8.94434 46.3918 9.29663 46.2126 9.61885C45.9944 10.0101 45.717 10.3454 45.3809 10.6246C45.0453 10.9044 44.6619 11.1221 44.2312 11.2787C43.8003 11.4352 43.3329 11.5134 42.8291 11.5134C42.2694 11.5134 41.7573 11.4213 41.2929 11.2369C40.8284 11.0523 40.4283 10.7731 40.0924 10.3986C39.7568 10.024 39.4966 9.55993 39.3117 9.00681C39.1271 8.45319 39.0348 7.80804 39.0348 7.07035C39.0348 6.33262 39.1271 5.6953 39.3117 5.15863C39.4966 4.62222 39.7568 4.1837 40.0924 3.84253C40.4283 3.50162 40.8339 3.24745 41.3099 3.07952C41.7854 2.91184 42.3142 2.82813 42.8964 2.82813C43.4338 2.82813 43.9232 2.90097 44.3655 3.04614C44.8076 3.19155 45.1936 3.404 45.5239 3.6832C45.8537 3.96291 46.1145 4.29826 46.3049 4.68926C46.4626 5.01448 46.5666 5.3703 46.6168 5.75674C46.6329 5.88345 46.5361 5.99727 46.4084 5.99727H44.6169C44.5198 5.99727 44.4338 5.9305 44.4133 5.83591C44.3384 5.48744 44.1773 5.20846 43.929 4.99956C43.6437 4.75929 43.2934 4.63894 42.8794 4.63894C42.6445 4.63894 42.4265 4.67837 42.2249 4.75629C42.0234 4.83466 41.8471 4.96591 41.6958 5.15029C41.5449 5.33468 41.4245 5.58073 41.3349 5.88825C41.2452 6.19582 41.2004 6.57288 41.2004 7.02003C41.2004 7.92539 41.3628 8.59609 41.6875 9.03212C42.012 9.46784 42.387 9.68588 42.8124 9.68588C43.2376 9.68588 43.6017 9.56853 43.9037 9.33382C44.1672 9.12895 44.3329 8.8437 44.4007 8.47748C44.4188 8.38011 44.5064 8.31106 44.6052 8.31106H46.3797Z" fill="#2964EC"/>
<path fill-rule="evenodd" clip-rule="evenodd" d="M47.2625 11.0854V3.25554C47.2625 3.13971 47.3561 3.04589 47.4717 3.04589H49.101C49.2166 3.04589 49.3107 3.13997 49.3107 3.25579V4.03524C49.4895 3.75604 49.6772 3.53778 49.8735 3.38123C50.0689 3.22494 50.2705 3.10456 50.4775 3.0206C50.6845 2.93688 50.8942 2.88403 51.1071 2.86152C51.3195 2.83926 51.5377 2.82813 51.7617 2.82813H51.8375C51.9535 2.82813 52.0472 2.92196 52.0472 3.03779V4.81848C52.0472 4.94063 51.9432 5.04002 51.8213 5.02738C51.6654 5.01094 51.5099 5.00489 51.354 5.00892C50.2862 5.03496 49.4447 5.93454 49.4447 7.00282V11.0854C49.4447 11.2013 49.351 11.2953 49.235 11.2953H47.4722C47.3566 11.2953 47.2625 11.2013 47.2625 11.0854Z" fill="#2964EC"/>
<path fill-rule="evenodd" clip-rule="evenodd" d="M57.9073 10.2053C57.7504 10.5743 57.4677 10.8621 57.059 11.069C56.6508 11.2758 56.1893 11.379 55.674 11.379C55.2376 11.379 54.8347 11.309 54.4655 11.1696C54.0963 11.0298 53.7768 10.8285 53.5084 10.566C53.2395 10.3034 53.0298 9.99009 52.8788 9.62692C52.7278 9.26374 52.6521 8.8528 52.6521 8.39454V3.25552C52.6521 3.13969 52.7457 3.04562 52.8618 3.04562H54.625C54.7406 3.04562 54.8347 3.13969 54.8347 3.25552V8.07586C54.8347 9.1044 55.2994 9.61858 56.2283 9.61858C56.7319 9.61858 57.1374 9.47318 57.4457 9.18255C57.7531 8.89196 57.9073 8.52323 57.9073 8.07586V3.25552C57.9073 3.13969 58.0014 3.04562 58.1174 3.04562H59.8802C59.9962 3.04562 60.0899 3.13969 60.0899 3.25552V11.5131C60.0899 12.0943 59.9918 12.614 59.7959 13.0725C59.6001 13.5307 59.3313 13.9164 58.9898 14.2295C58.6488 14.5421 58.2456 14.7829 57.7813 14.9506C57.3167 15.1182 56.8215 15.2019 56.2955 15.2019C55.0753 15.2019 54.163 14.8944 53.5586 14.2796C52.9953 13.7065 52.6942 12.9336 52.6561 11.962C52.6516 11.8446 52.7489 11.748 52.8663 11.748H54.483C54.5905 11.748 54.6824 11.8294 54.6909 11.9365C54.7236 12.3393 54.8638 12.662 55.1116 12.9048C55.3975 13.184 55.8254 13.3239 56.3963 13.3239C56.5975 13.3239 56.7879 13.2821 56.9672 13.1982C57.146 13.1145 57.3055 12.9971 57.4457 12.8461C57.5855 12.6952 57.6976 12.5078 57.7813 12.2847C57.8656 12.0606 57.9073 11.8148 57.9073 11.5467V10.2053Z" fill="#2964EC"/>
<path fill-rule="evenodd" clip-rule="evenodd" d="M64.9758 9.65223C66.2296 9.65223 66.8564 8.80297 66.8564 7.10373C66.8564 6.36573 66.683 5.76512 66.3362 5.30103C65.9889 4.83744 65.5413 4.60529 64.9929 4.60529C64.4668 4.60529 64.0277 4.82306 63.675 5.25931C63.3224 5.6953 63.1458 6.26509 63.1458 6.96967C63.1458 8.75798 63.7561 9.65223 64.9758 9.65223ZM61.0806 14.9923V3.25554C61.0806 3.13971 61.1747 3.04589 61.2908 3.04589H62.9733C63.0876 3.04589 63.1808 3.13743 63.183 3.252L63.1965 4.05168C63.7001 3.23607 64.4668 2.82813 65.4969 2.82813C66.0114 2.82813 66.4895 2.92854 66.9322 3.12985C67.374 3.33091 67.7517 3.62175 68.0654 4.00161C68.3786 4.38172 68.625 4.84582 68.8038 5.39334C68.9831 5.94112 69.0727 6.5615 69.0727 7.25447C69.0727 7.88063 68.997 8.45319 68.846 8.97293C68.6949 9.49289 68.474 9.94282 68.1832 10.3227C67.8915 10.7028 67.5362 10.9961 67.1168 11.2033C66.6969 11.4096 66.2184 11.5131 65.6816 11.5131C64.6626 11.5131 63.8453 11.0832 63.2301 10.2223V14.9923C63.2301 15.1081 63.136 15.2019 63.0199 15.2019H61.2908C61.1747 15.2019 61.0806 15.1081 61.0806 14.9923Z" fill="#2964EC"/>
<path fill-rule="evenodd" clip-rule="evenodd" d="M77.6679 9.68561C78.9996 9.68561 79.6659 8.84747 79.6659 7.17072C79.6659 5.50536 78.9996 4.67254 77.6679 4.67254C76.3357 4.67254 75.6699 5.50536 75.6699 7.17072C75.6699 8.84747 76.3357 9.68561 77.6679 9.68561ZM77.6679 11.5134C76.9962 11.5134 76.3976 11.4071 75.8715 11.195C75.3455 10.9827 74.9001 10.6863 74.5367 10.306C74.1728 9.92637 73.8959 9.46784 73.7059 8.93121C73.5155 8.39481 73.4205 7.80781 73.4205 7.17072C73.4205 6.52256 73.5182 5.92974 73.714 5.39334C73.9098 4.85666 74.1925 4.39866 74.5618 4.01855C74.9314 3.63869 75.3764 3.34532 75.8966 3.13819C76.4173 2.93157 77.0074 2.82813 77.6679 2.82813C78.3172 2.82813 78.8992 2.93157 79.4145 3.13819C79.9289 3.34532 80.3681 3.63565 80.7324 4.01021C81.0958 4.38475 81.3758 4.83999 81.5716 5.37662C81.7675 5.91303 81.8656 6.51118 81.8656 7.17072C81.8656 7.83031 81.7675 8.42564 81.5716 8.95622C81.3758 9.4876 81.0958 9.94308 80.7324 10.3229C80.3681 10.7028 79.9263 10.9964 79.406 11.2033C78.8854 11.4096 78.306 11.5134 77.6679 11.5134Z" fill="#2964EC"/>
<path fill-rule="evenodd" clip-rule="evenodd" d="M24.4005 5.5443C24.3031 5.5443 24.2179 5.47677 24.1969 5.38195C24.127 5.0648 23.9913 4.83695 23.7892 4.69759C23.5543 4.53574 23.1848 4.4543 22.6812 4.4543C22.2669 4.4543 21.9478 4.50765 21.724 4.61362C21.5002 4.71986 21.3884 4.89614 21.3884 5.14169C21.3884 5.388 21.5002 5.57517 21.724 5.70364C21.9478 5.8321 22.2837 5.95806 22.7315 6.08097C23.2014 6.21477 23.6491 6.33513 24.0744 6.44137C24.5001 6.54783 24.8746 6.66214 25.1996 6.78483C25.6362 6.96388 25.9717 7.20715 26.2069 7.51445C26.4421 7.82197 26.5595 8.2438 26.5595 8.78021C26.5595 9.64112 26.2545 10.312 25.6445 10.7923C25.0342 11.2731 24.1362 11.5134 22.9498 11.5134C21.6736 11.5134 20.6969 11.245 20.0199 10.7086C19.4066 10.2228 19.0622 9.61352 18.9858 8.88035C18.9729 8.7557 19.07 8.64618 19.1954 8.64618H21.0257C21.1304 8.64618 21.2182 8.72406 21.2321 8.82775C21.2728 9.13227 21.42 9.37352 21.6736 9.55159C21.9759 9.76425 22.3957 9.86996 22.9328 9.86996C23.3246 9.86996 23.6658 9.80597 23.9571 9.67728C24.2535 9.54653 24.3992 9.31993 24.3936 8.99722C24.3888 8.72711 24.2118 8.49115 23.966 8.37935C23.71 8.26276 23.4103 8.16185 23.0674 8.07613C22.3732 7.90845 21.8135 7.75749 21.3884 7.62342C20.9627 7.48913 20.6046 7.32728 20.3138 7.13712C19.9218 6.89129 19.6507 6.61209 19.4994 6.29874C19.3485 5.98589 19.2728 5.64471 19.2728 5.27571C19.2728 4.92952 19.334 4.60528 19.4574 4.30357C19.5806 4.00161 19.7819 3.74187 20.0619 3.52387C20.3416 3.30562 20.7025 3.13566 21.1448 3.01225C21.5869 2.88959 22.1213 2.82813 22.7482 2.82813C23.946 2.82813 24.8274 3.05727 25.3926 3.51553C25.9065 3.93231 26.21 4.52915 26.3028 5.30659C26.318 5.43254 26.2209 5.5443 26.0942 5.5443H24.4005Z" fill="#2964EC"/>
<path fill-rule="evenodd" clip-rule="evenodd" d="M2.67024 3.99782C3.92894 4.5327 5.97139 5.40118 9.30615 6.80885C9.47943 6.88193 9.67564 6.8822 9.84892 6.80858L11.1625 6.2517C11.3559 6.16974 11.4923 5.97756 11.4923 5.75347V0.502945C11.4923 0.215141 11.2586 0.0097831 10.9715 0.0295096C10.7138 0.0467072 11.618 -0.291425 2.6715 3.48695C2.44591 3.5823 2.44465 3.90197 2.67024 3.99782Z" fill="#2964EC"/>
<path fill-rule="evenodd" clip-rule="evenodd" d="M10.6925 15.1478L0.330039 10.7585C0.136315 10.6762 0 10.4848 0 10.2612V5.07721C0 4.77879 0.242281 4.53727 0.541464 4.53727C0.748342 4.53727 0.0427418 4.29551 11.1361 8.97091C11.3612 9.05058 11.5106 9.29264 11.4904 9.49419L11.4775 14.662C11.4775 14.9605 11.2352 15.202 10.936 15.202C10.7924 15.202 10.7157 15.1504 10.6842 15.1403" fill="#2964EC"/>
<path d="M67.6451 18.3443L67.9256 16.9376C68.1052 17.2197 68.4118 17.3607 68.8455 17.3607C69.1381 17.3607 69.4043 17.2893 69.644 17.1465C69.8837 17.0037 70.0732 16.8063 70.2126 16.5542C70.352 16.3022 70.4214 16.0192 70.4214 15.7055C70.4214 15.4446 70.3658 15.2181 70.2547 15.0259C70.1436 14.8338 69.9939 14.6866 69.8053 14.5844C69.6167 14.4821 69.4114 14.431 69.1892 14.431C68.8437 14.431 68.5529 14.5385 68.3167 14.7536L68.375 14.4733H67.5922L66.8201 18.3443H67.6451ZM68.7505 16.6785C68.5457 16.6785 68.3871 16.6221 68.2746 16.5093C68.1617 16.3965 68.1052 16.2431 68.1052 16.0492C68.1052 15.8659 68.1407 15.7037 68.211 15.5627C68.2814 15.4217 68.3804 15.3115 68.5072 15.2322C68.634 15.1529 68.7769 15.1132 68.9356 15.1132C69.1399 15.1132 69.2994 15.1696 69.4141 15.2824C69.5288 15.3952 69.5857 15.5486 69.5857 15.7425C69.5857 15.9258 69.5508 16.088 69.48 16.229C69.4096 16.37 69.3111 16.4802 69.1838 16.5595C69.057 16.6389 68.9127 16.6785 68.7505 16.6785ZM72.1613 17.3607C72.4893 17.3607 72.7842 17.2884 73.0472 17.1438C73.3098 16.9993 73.5141 16.8019 73.6606 16.5516C73.8067 16.3013 73.8798 16.0192 73.8798 15.7055C73.8798 15.4516 73.8211 15.2286 73.7028 15.0365C73.5845 14.8444 73.4182 14.6954 73.2031 14.5897C72.9881 14.4839 72.7358 14.431 72.4468 14.431C72.1188 14.431 71.8244 14.5033 71.5636 14.6478C71.3028 14.7924 71.0985 14.9898 70.9502 15.2401C70.8023 15.4904 70.7284 15.7724 70.7284 16.0862C70.7284 16.3401 70.7871 16.563 70.9053 16.7552C71.0232 16.9473 71.1908 17.0963 71.4077 17.2021C71.6245 17.3078 71.8759 17.3607 72.1613 17.3607ZM72.2142 16.6785C72.0099 16.6785 71.8504 16.6221 71.7357 16.5093C71.6209 16.3965 71.5636 16.2431 71.5636 16.0492C71.5636 15.8659 71.599 15.7037 71.6693 15.5627C71.7401 15.4217 71.8387 15.3115 71.9655 15.2322C72.0923 15.1529 72.2371 15.1132 72.3993 15.1132C72.6036 15.1132 72.7622 15.1696 72.8751 15.2824C72.9881 15.3952 73.0445 15.5486 73.0445 15.7425C73.0445 15.9258 73.0091 16.088 72.9388 16.229C72.868 16.37 72.7694 16.4802 72.6426 16.5595C72.5158 16.6389 72.3728 16.6785 72.2142 16.6785ZM75.6197 17.3607C75.9477 17.3607 76.243 17.2884 76.5056 17.1438C76.7681 16.9993 76.9725 16.8019 77.119 16.5516C77.2655 16.3013 77.3385 16.0192 77.3385 15.7055C77.3385 15.4516 77.2794 15.2286 77.1611 15.0365C77.0433 14.8444 76.8766 14.6954 76.6615 14.5897C76.4464 14.4839 76.1946 14.431 75.9051 14.431C75.5776 14.431 75.2832 14.5033 75.0224 14.6478C74.7611 14.7924 74.5568 14.9898 74.409 15.2401C74.2606 15.4904 74.1867 15.7724 74.1867 16.0862C74.1867 16.3401 74.2458 16.563 74.3637 16.7552C74.482 16.9473 74.6496 17.0963 74.866 17.2021C75.0829 17.3078 75.3343 17.3607 75.6197 17.3607ZM75.6726 16.6785C75.4682 16.6785 75.3087 16.6221 75.194 16.5093C75.0793 16.3965 75.0224 16.2431 75.0224 16.0492C75.0224 15.8659 75.0573 15.7037 75.1281 15.5627C75.1985 15.4217 75.2971 15.3115 75.4243 15.2322C75.5511 15.1529 75.6954 15.1132 75.8576 15.1132C76.0624 15.1132 76.221 15.1696 76.3335 15.2824C76.4464 15.3952 76.5029 15.5486 76.5029 15.7425C76.5029 15.9258 76.4675 16.088 76.3971 16.229C76.3268 16.37 76.2277 16.4802 76.1009 16.5595C75.9741 16.6389 75.8312 16.6785 75.6726 16.6785ZM78.4171 17.3184L79.1999 13.3945H78.375L77.5922 17.3184H78.4171Z" fill="#2964EC"/>
</svg>
