<svg width="22" height="23" viewBox="0 0 22 23" fill="none" xmlns="http://www.w3.org/2000/svg">
<path fill-rule="evenodd" clip-rule="evenodd" d="M11 16.5C15.4183 16.5 19 12.9183 19 8.5C19 4.08172 15.4183 0.5 11 0.5C6.58172 0.5 3 4.08172 3 8.5C3 12.9183 6.58172 16.5 11 16.5Z" fill="white"/>
<g filter="url(#filter0_d_538_7594)">
<path d="M16 8.5L11 13.5L6 8.5L11 3.5L16 8.5Z" fill="url(#paint0_linear_538_7594)"/>
</g>
<path d="M11 0.5C6.58167 0.5 3 4.08167 3 8.5C3 12.918 6.58167 16.5 11 16.5C15.4183 16.5 19 12.918 19 8.5C19 4.08167 15.4183 0.5 11 0.5Z" fill="#4EAF94"/>
<path d="M14.2089 4.5V6.30767H11.8366V7.176C13.7366 7.281 15.1666 7.736 15.1666 8.28067C15.1666 8.826 13.7366 9.28067 11.8366 9.38567V12.5H10.0939V9.38133C8.22859 9.26933 6.83325 8.81933 6.83325 8.28067C6.83325 7.74233 8.22859 7.29233 10.0939 7.18033V6.30767H7.72192V4.5H14.2089ZM11.8366 7.37333V8.431C11.2562 8.46105 10.6745 8.45972 10.0943 8.427V7.377C8.49259 7.457 7.30725 7.744 7.30725 8.08633C7.30725 8.49033 8.96059 8.818 10.9999 8.818C13.0393 8.818 14.6926 8.49033 14.6926 8.08633C14.6926 7.739 13.4726 7.44867 11.8366 7.37367V7.37333Z" fill="white"/>
<defs>
<filter id="filter0_d_538_7594" x="0" y="0.5" width="22" height="22" filterUnits="userSpaceOnUse" color-interpolation-filters="sRGB">
<feFlood flood-opacity="0" result="BackgroundImageFix"/>
<feColorMatrix in="SourceAlpha" type="matrix" values="0 0 0 0 0 0 0 0 0 0 0 0 0 0 0 0 0 0 127 0" result="hardAlpha"/>
<feOffset dy="3"/>
<feGaussianBlur stdDeviation="3"/>
<feColorMatrix type="matrix" values="0 0 0 0 0 0 0 0 0 0 0 0 0 0 0 0 0 0 0.16 0"/>
<feBlend mode="normal" in2="BackgroundImageFix" result="effect1_dropShadow_538_7594"/>
<feBlend mode="normal" in="SourceGraphic" in2="effect1_dropShadow_538_7594" result="shape"/>
</filter>
<linearGradient id="paint0_linear_538_7594" x1="16" y1="13.5" x2="16" y2="3.5" gradientUnits="userSpaceOnUse">
<stop stop-color="#0055FF"/>
<stop offset="1" stop-color="#0055FF" stop-opacity="0.8"/>
</linearGradient>
</defs>
</svg>
