<svg width="18" height="18" viewBox="0 0 18 18" fill="none" xmlns="http://www.w3.org/2000/svg">
<g clip-path="url(#clip0_788_10261)">
<path opacity="0.967" fill-rule="evenodd" clip-rule="evenodd" d="M6.20508 0.896485C8.05669 0.890624 9.90822 0.896485 11.7598 0.914063C12.8778 0.918176 13.9325 1.17599 14.9238 1.6875C15.8684 2.29149 16.4836 3.14109 16.7695 4.23633C16.8895 4.69832 16.9715 5.16705 17.0156 5.64258C17.0543 6.75534 17.0718 7.8686 17.0684 8.98242C17.0718 10.0962 17.0543 11.2095 17.0156 12.3223C16.9554 13.243 16.7093 14.1102 16.2773 14.9238C15.6734 15.8684 14.8237 16.4836 13.7285 16.7695C13.2665 16.8895 12.7977 16.9715 12.3223 17.0156C11.2095 17.0543 10.0962 17.0718 8.98242 17.0684C7.8686 17.0718 6.75534 17.0543 5.64258 17.0156C4.72177 16.9554 3.85457 16.7093 3.04102 16.2773C1.96606 15.5769 1.31567 14.5866 1.08984 13.3066C0.98954 12.7958 0.930949 12.2802 0.914063 11.7598C0.890625 9.90819 0.890625 8.05665 0.914063 6.20508C0.931104 5.2824 1.10688 4.39179 1.44141 3.5332C1.99685 2.31022 2.92849 1.53092 4.23633 1.19531C4.88858 1.03438 5.54481 0.93477 6.20508 0.896485ZM6.16992 2.05664C8.04494 2.05078 9.91997 2.05664 11.7949 2.07422C12.6755 2.07685 13.5076 2.27606 14.291 2.67187C14.9817 3.10564 15.4328 3.72087 15.6445 4.51758C15.7489 4.89804 15.8193 5.28476 15.8555 5.67773C15.9118 7.70456 15.9236 9.73191 15.8906 11.7598C15.8754 12.484 15.7465 13.1872 15.5039 13.8691C15.1027 14.7857 14.4171 15.3775 13.4473 15.6445C13.067 15.7489 12.6803 15.8193 12.2871 15.8555C10.2486 15.912 8.20951 15.9237 6.16992 15.8906C5.45773 15.8715 4.76631 15.7426 4.0957 15.5039C3.17913 15.1027 2.58733 14.4171 2.32031 13.4473C2.16966 12.8949 2.08763 12.3324 2.07422 11.7598C2.05078 9.90819 2.05078 8.05665 2.07422 6.20508C2.07259 5.23884 2.30696 4.33649 2.77734 3.49805C3.21399 2.9012 3.79406 2.50862 4.51758 2.32031C5.06492 2.17827 5.61572 2.09038 6.16992 2.05664Z" fill="#73D264"/>
<path opacity="0.959" fill-rule="evenodd" clip-rule="evenodd" d="M12.0058 6.27539C12.6406 6.28312 12.8573 6.58782 12.6562 7.18945C11.1728 8.68458 9.67868 10.167 8.17378 11.6367C7.95142 11.7188 7.74048 11.6954 7.54097 11.5664C6.80856 10.834 6.07611 10.1016 5.3437 9.36914C5.16697 9.0803 5.18455 8.80488 5.39644 8.54297C5.63539 8.39556 5.88149 8.38385 6.13472 8.50781C6.7265 9.0996 7.31832 9.69142 7.91011 10.2832C9.20502 8.98829 10.5 7.69335 11.7949 6.39844C11.8628 6.34714 11.9331 6.30615 12.0058 6.27539Z" fill="#73D264"/>
</g>
<defs>
<clipPath id="clip0_788_10261">
<rect width="18" height="18" fill="white"/>
</clipPath>
</defs>
</svg>
