<svg width="18" height="18" viewBox="0 0 18 18" fill="none" xmlns="http://www.w3.org/2000/svg">
<g clip-path="url(#clip0_788_10275)">
<path opacity="0.966" fill-rule="evenodd" clip-rule="evenodd" d="M6.5918 0.896485C8.18561 0.890624 9.77935 0.896485 11.373 0.914063C12.0203 0.997643 12.5945 1.24374 13.0957 1.65234C14.168 2.72461 15.2402 3.79688 16.3125 4.86914C16.7217 5.37142 16.9678 5.94566 17.0508 6.5918C17.0742 8.18554 17.0742 9.77931 17.0508 11.373C16.9678 12.0192 16.7217 12.5934 16.3125 13.0957C15.2402 14.168 14.168 15.2402 13.0957 16.3125C12.5934 16.7217 12.0192 16.9678 11.373 17.0508C9.77931 17.0742 8.18554 17.0742 6.5918 17.0508C5.94566 16.9678 5.37142 16.7217 4.86914 16.3125C3.79688 15.2402 2.72461 14.168 1.65234 13.0957C1.24312 12.5934 0.997022 12.0192 0.914063 11.373C0.890625 9.77931 0.890625 8.18554 0.914063 6.5918C0.996934 5.9458 1.24303 5.37159 1.65234 4.86914C2.72461 3.79688 3.79688 2.72461 4.86914 1.65234C5.37806 1.2454 5.95231 0.993446 6.5918 0.896485ZM6.66211 2.05664C8.20902 2.05078 9.7559 2.05664 11.3027 2.07422C11.7001 2.14403 12.0516 2.30809 12.3574 2.56641C13.3828 3.59181 14.4082 4.61718 15.4336 5.64258C15.6715 5.94264 15.8238 6.28246 15.8906 6.66211C15.9141 8.20899 15.9141 9.75586 15.8906 11.3027C15.8208 11.7001 15.6568 12.0516 15.3984 12.3574C14.373 13.3828 13.3477 14.4082 12.3223 15.4336C12.0222 15.6715 11.6824 15.8238 11.3027 15.8906C9.75586 15.9141 8.20899 15.9141 6.66211 15.8906C6.26478 15.8208 5.91321 15.6568 5.60742 15.3984C4.58202 14.373 3.55665 13.3477 2.53125 12.3223C2.2934 12.0222 2.14106 11.6824 2.07422 11.3027C2.05078 9.75586 2.05078 8.20899 2.07422 6.66211C2.14403 6.26477 2.30809 5.91321 2.56641 5.60742C3.59181 4.58202 4.61718 3.55665 5.64258 2.53125C5.94946 2.29569 6.28931 2.13749 6.66211 2.05664Z" fill="#F86E6E"/>
<path opacity="0.961" fill-rule="evenodd" clip-rule="evenodd" d="M6.20508 5.78326C6.37777 5.7679 6.5418 5.79718 6.69727 5.87115C7.45362 6.63337 8.21531 7.38923 8.98242 8.13873C9.74953 7.38923 10.5112 6.63337 11.2676 5.87115C11.7761 5.66827 12.0808 5.8323 12.1816 6.36334C12.181 6.48227 12.1518 6.59361 12.0938 6.69732C11.3315 7.45368 10.5757 8.21537 9.82617 8.98248C10.5757 9.74959 11.3315 10.5113 12.0938 11.2676C12.2966 11.7761 12.1326 12.0808 11.6016 12.1817C11.4826 12.1811 11.3713 12.1518 11.2676 12.0938C10.5112 11.3316 9.74953 10.5757 8.98242 9.82623C8.21531 10.5757 7.45362 11.3316 6.69727 12.0938C6.18877 12.2967 5.88407 12.1327 5.7832 11.6016C5.7838 11.4827 5.81309 11.3713 5.87109 11.2676C6.63332 10.5113 7.38918 9.74959 8.13867 8.98248C7.38918 8.21537 6.63332 7.45368 5.87109 6.69732C5.68832 6.27847 5.79962 5.97377 6.20508 5.78326Z" fill="#F86E6E"/>
</g>
<defs>
<clipPath id="clip0_788_10275">
<rect width="18" height="18" fill="white"/>
</clipPath>
</defs>
</svg>
