<svg width="18" height="18" viewBox="0 0 18 18" fill="none" xmlns="http://www.w3.org/2000/svg">
<path opacity="0.963" fill-rule="evenodd" clip-rule="evenodd" d="M8.6309 1.35359C9.43573 1.28222 10.1506 1.49901 10.7754 2.00398C11.2988 2.45665 11.7149 2.98986 12.0235 3.60359C13.591 6.42217 15.1496 9.24638 16.6993 12.0762C17.0786 12.8799 17.1606 13.7119 16.9454 14.5723C16.582 15.5684 15.8848 16.1953 14.8536 16.4532C14.5999 16.5228 14.3421 16.5697 14.0801 16.5938C10.6817 16.6173 7.28325 16.6173 3.88481 16.5938C2.96873 16.5253 2.18943 16.1679 1.54692 15.5216C0.946854 14.7482 0.759355 13.881 0.984415 12.92C1.10779 12.3976 1.30701 11.9055 1.58207 11.4434C3.04411 8.83582 4.49723 6.22255 5.94145 3.60359C6.31009 2.84805 6.84331 2.23282 7.54106 1.75789C7.88675 1.56273 8.25005 1.42796 8.6309 1.35359ZM8.73637 2.51375C9.22532 2.47559 9.65894 2.61036 10.0371 2.91804C10.4522 3.2975 10.7862 3.73697 11.0391 4.2364C12.5949 7.03154 14.1418 9.83233 15.6797 12.6387C16.2515 14.2084 15.7183 15.1401 14.0801 15.4337C10.6817 15.4571 7.28325 15.4571 3.88481 15.4337C2.27718 15.1427 1.74398 14.2228 2.2852 12.6739C3.28408 10.8284 4.29188 8.98858 5.30863 7.15437C5.98223 5.92422 6.67365 4.70546 7.38285 3.49812C7.73013 3.01782 8.18129 2.6897 8.73637 2.51375Z" fill="#FCCA13"/>
<path opacity="0.987" fill-rule="evenodd" clip-rule="evenodd" d="M8.77149 6.16993C9.11813 6.09435 9.3701 6.21152 9.52735 6.5215C9.5508 7.91604 9.5508 9.31055 9.52735 10.7051C9.26365 11.102 8.93553 11.1606 8.54298 10.8809C8.50782 10.8223 8.47267 10.7637 8.43751 10.7051C8.41406 9.31055 8.41406 7.91604 8.43751 6.5215C8.50859 6.36259 8.61993 6.24541 8.77149 6.16993Z" fill="#FCCA13"/>
<path opacity="0.948" fill-rule="evenodd" clip-rule="evenodd" d="M8.77144 11.9708C9.56126 11.9577 9.86009 12.3327 9.66793 13.0958C9.36593 13.5075 8.98509 13.5954 8.52535 13.3595C8.17203 13.035 8.11929 12.6659 8.36714 12.252C8.48956 12.1347 8.62431 12.0409 8.77144 11.9708Z" fill="#FCCA13"/>
</svg>
