<svg width="24" height="24" viewBox="0 0 24 24" fill="none" xmlns="http://www.w3.org/2000/svg">
<g clip-path="url(#clip0_896_4198)">
<path opacity="0.993" fill-rule="evenodd" clip-rule="evenodd" d="M11.1276 0.00730226C15.9722 -0.135439 19.6941 1.81451 22.2932 5.85716C24.1273 9.17825 24.4325 12.6373 23.2088 16.2343C21.5393 20.3538 18.5296 22.8802 14.1797 23.8137C9.74253 24.5135 5.98671 23.2418 2.91238 19.9986C0.334652 16.8942 -0.56402 13.3503 0.216363 9.36708C1.15341 5.58196 3.36618 2.8266 6.85468 1.10097C8.2239 0.495882 9.64822 0.131329 11.1276 0.00730226ZM11.7889 4.73806C12.4017 4.69202 12.7832 4.9633 12.9334 5.55195C12.9504 7.43408 12.9674 9.31621 12.9843 11.1983C14.0186 12.0631 15.053 12.9279 16.0873 13.7926C16.3916 14.2015 16.3916 14.6084 16.0873 15.0135C15.6846 15.4105 15.2352 15.4699 14.7393 15.1915C13.6465 14.2807 12.5443 13.382 11.4328 12.4955C11.2453 12.3322 11.1011 12.1372 11.0004 11.9105C10.9165 9.79401 10.8996 7.67448 10.9496 5.55195C11.0913 5.1303 11.3711 4.85902 11.7889 4.73806Z" fill="#D2DEE4"/>
<rect x="10.7998" y="3.6001" width="2.4" height="9.6" rx="1.2" fill="white"/>
<rect x="18.7061" y="14.6716" width="2.4" height="7.74341" rx="1.2" transform="rotate(120 18.7061 14.6716)" fill="white"/>
</g>
<defs>
<clipPath id="clip0_896_4198">
<rect width="24" height="24" fill="white"/>
</clipPath>
</defs>
</svg>
