<svg width="64" height="64" viewBox="0 0 64 64" fill="none" xmlns="http://www.w3.org/2000/svg">
<path opacity="0.95" d="M23.6858 6.86251L23.6384 6.86269L23.5921 6.87272C22.2008 7.17446 20.9316 7.76563 19.7885 8.64304L19.7651 8.66098L19.7443 8.6818L8.80681 19.6193L8.79344 19.6327L8.78124 19.6471C7.81101 20.7957 7.19366 22.1191 6.93179 23.6096L6.9256 23.6449L6.92506 23.6807C6.84165 29.1852 6.84165 34.6898 6.92506 40.1943L6.9256 40.2302L6.93182 40.2655C7.18233 41.6885 7.75489 42.9662 8.64736 44.092L8.66347 44.1124L8.68181 44.1307L14.1506 49.5995L19.6193 55.0682L19.6327 55.0816L19.6471 55.0938C20.7957 56.0641 22.1192 56.6813 23.6096 56.9432L23.6449 56.9494L23.6807 56.95C29.1852 57.0334 34.6898 57.0334 40.1943 56.95L40.2302 56.9494L40.2655 56.9432C41.6885 56.6927 42.9662 56.1202 44.0921 55.2276L44.1124 55.2115L44.1307 55.1932L44.1521 55.1718L44.1734 55.1505L44.1948 55.1291L44.2162 55.1078L44.2375 55.0864L44.2589 55.065L44.2802 55.0437L44.3016 55.0223L44.323 55.0009L44.3443 54.9796L44.3657 54.9582L44.3871 54.9369L44.4084 54.9155L44.4298 54.8941L44.4511 54.8728L44.4725 54.8514L44.4939 54.83L44.5152 54.8087L44.5366 54.7873L44.558 54.766L44.5793 54.7446L44.6007 54.7232L44.622 54.7019L44.6434 54.6805L44.6648 54.6591L44.6861 54.6378L44.7075 54.6164L44.7289 54.5951L44.7502 54.5737L44.7716 54.5523L44.7929 54.531L44.8143 54.5096L44.8357 54.4882L44.857 54.4669L44.8784 54.4455L44.8998 54.4242L44.9211 54.4028L44.9425 54.3814L44.9638 54.3601L44.9852 54.3387L45.0066 54.3173L45.0279 54.296L45.0493 54.2746L45.0707 54.2533L45.092 54.2319L45.1134 54.2105L45.1347 54.1892L45.1561 54.1678L45.1775 54.1464L45.1988 54.1251L45.2202 54.1037L45.2416 54.0824L45.2629 54.061L45.2843 54.0396L45.3056 54.0183L45.327 53.9969L45.3484 53.9755L45.3697 53.9542L45.3911 53.9328L45.4125 53.9115L45.4338 53.8901L45.4552 53.8687L45.4765 53.8474L45.4979 53.826L45.5193 53.8046L45.5406 53.7833L45.562 53.7619L45.5834 53.7406L45.6047 53.7192L45.6261 53.6978L45.6474 53.6765L45.6688 53.6551L45.6902 53.6337L45.7115 53.6124L45.7329 53.591L45.7543 53.5697L45.7756 53.5483L45.797 53.5269L45.8183 53.5056L45.8397 53.4842L45.8611 53.4628L45.8824 53.4415L45.9038 53.4201L45.9252 53.3988L45.9465 53.3774L45.9679 53.356L45.9892 53.3347L46.0106 53.3133L46.032 53.292L46.0533 53.2706L46.0747 53.2492L46.0961 53.2279L46.1174 53.2065L46.1388 53.1851L46.1601 53.1638L46.1815 53.1424L46.2029 53.1211L46.2242 53.0997L46.2456 53.0783L46.2669 53.057L46.2883 53.0356L46.3097 53.0142L46.331 52.9929L46.3524 52.9715L46.3738 52.9502L46.3951 52.9288L46.4165 52.9074L46.4378 52.8861L46.4592 52.8647L46.4806 52.8433L46.5019 52.822L46.5233 52.8006L46.5447 52.7793L46.566 52.7579L46.5874 52.7365L46.6087 52.7152L46.6301 52.6938L46.6515 52.6724L46.6728 52.6511L46.6942 52.6297L46.7156 52.6084L46.7369 52.587L46.7583 52.5656L46.7796 52.5443L46.801 52.5229L46.8224 52.5015L46.8437 52.4802L46.8651 52.4588L46.8865 52.4375L46.9078 52.4161L46.9292 52.3947L46.9505 52.3734L46.9719 52.352L46.9933 52.3306L47.0146 52.3093L47.036 52.2879L47.0574 52.2666L47.0787 52.2452L47.1001 52.2238L47.1214 52.2025L47.1428 52.1811L47.1642 52.1597L47.1855 52.1384L47.2069 52.117L47.2283 52.0957L47.2496 52.0743L47.271 52.0529L47.2923 52.0316L47.3137 52.0102L47.3351 51.9888L47.3564 51.9675L47.3778 51.9461L47.3992 51.9248L47.4205 51.9034L47.4419 51.882L47.4632 51.8607L47.4846 51.8393L47.506 51.818L47.5273 51.7966L47.5487 51.7752L47.57 51.7539L47.5914 51.7325L47.6128 51.7111L47.6341 51.6898L47.6555 51.6684L47.6769 51.6471L47.6982 51.6257L47.7196 51.6043L47.7409 51.583L47.7623 51.5616L47.7837 51.5402L47.805 51.5189L47.8264 51.4975L47.8478 51.4762L47.8691 51.4548L47.8905 51.4334L47.9118 51.4121L47.9332 51.3907L47.9546 51.3693L47.9759 51.348L47.9973 51.3266L48.0187 51.3053L48.04 51.2839L48.0614 51.2625L48.0827 51.2412L48.1041 51.2198L48.1255 51.1984L48.1468 51.1771L48.1682 51.1557L48.1896 51.1344L48.2109 51.113L48.2323 51.0916L48.2536 51.0703L48.275 51.0489L48.2964 51.0275L48.3177 51.0062L48.3391 50.9848L48.3605 50.9635L48.3818 50.9421L48.4032 50.9207L48.4245 50.8994L48.4459 50.878L48.4673 50.8567L48.4886 50.8353L48.51 50.8139L48.5313 50.7926L48.5527 50.7712L48.5741 50.7498L48.5954 50.7285L48.6168 50.7071L48.6382 50.6858L48.6595 50.6644L48.6809 50.643L48.7022 50.6217L48.7236 50.6003L48.745 50.5789L48.7663 50.5576L48.7877 50.5362L48.8091 50.5149L48.8304 50.4935L48.8518 50.4721L48.8731 50.4508L48.8945 50.4294L48.9159 50.408L48.9372 50.3867L48.9586 50.3653L48.98 50.344L49.0013 50.3226L49.0227 50.3012L49.044 50.2799L49.0654 50.2585L49.0868 50.2371L49.1081 50.2158L49.1295 50.1944L49.1509 50.1731L49.1722 50.1517L49.1936 50.1303L49.2149 50.109L49.2363 50.0876L49.2577 50.0662L49.279 50.0449L49.3004 50.0235L49.3218 50.0022L49.3431 49.9808L49.3645 49.9594L49.3858 49.9381L49.4072 49.9167L49.4286 49.8954L49.4499 49.874L49.4713 49.8526L49.4926 49.8313L49.514 49.8099L49.5354 49.7885L49.5567 49.7672L49.5781 49.7458L49.5995 49.7245L49.6208 49.7031L49.6422 49.6817L49.6635 49.6604L49.6849 49.639L49.7063 49.6176L49.7276 49.5963L49.749 49.5749L49.7704 49.5536L49.7917 49.5322L49.8131 49.5108L49.8344 49.4895L49.8558 49.4681L49.8772 49.4467L49.8985 49.4254L49.9199 49.404L49.9413 49.3827L49.9626 49.3613L49.984 49.3399L50.0053 49.3186L50.0267 49.2972L50.0481 49.2758L50.0694 49.2545L50.0908 49.2331L50.1122 49.2118L50.1335 49.1904L50.1549 49.169L50.1762 49.1477L50.1976 49.1263L50.219 49.1049L50.2403 49.0836L50.2617 49.0622L50.283 49.0409L50.3044 49.0195L50.3258 48.9981L50.3471 48.9768L50.3685 48.9554L50.3899 48.9341L50.4112 48.9127L50.4326 48.8913L50.4539 48.87L50.4753 48.8486L50.4967 48.8272L50.518 48.8059L50.5394 48.7845L50.5608 48.7632L50.5821 48.7418L50.6035 48.7204L50.6248 48.6991L50.6462 48.6777L50.6676 48.6563L50.6889 48.635L50.7103 48.6136L50.7317 48.5923L50.753 48.5709L50.7744 48.5495L50.7957 48.5282L50.8171 48.5068L50.8385 48.4854L50.8598 48.4641L50.8812 48.4427L50.9026 48.4214L50.9239 48.4L50.9453 48.3786L50.9666 48.3573L50.988 48.3359L51.0094 48.3145L51.0307 48.2932L51.0521 48.2718L51.0734 48.2505L51.0948 48.2291L51.1162 48.2077L51.1375 48.1864L51.1589 48.165L51.1803 48.1437L51.2016 48.1223L51.223 48.1009L51.2443 48.0796L51.2657 48.0582L51.2871 48.0368L51.3084 48.0155L51.3298 47.9941L51.3512 47.9728L51.3725 47.9514L51.3939 47.93L51.4152 47.9087L51.4366 47.8873L51.458 47.8659L51.4793 47.8446L51.5007 47.8232L51.5221 47.8019L51.5434 47.7805L51.5648 47.7591L51.5861 47.7378L51.6075 47.7164L51.6289 47.695L51.6502 47.6737L51.6716 47.6523L51.693 47.631L51.7143 47.6096L51.7357 47.5882L51.757 47.5669L51.7784 47.5455L51.7998 47.5241L51.8211 47.5028L51.8425 47.4814L51.8639 47.4601L51.8852 47.4387L51.9066 47.4173L51.9279 47.396L51.9493 47.3746L51.9707 47.3532L51.992 47.3319L52.0134 47.3105L52.0348 47.2892L52.0561 47.2678L52.0775 47.2464L52.0988 47.2251L52.1202 47.2037L52.1416 47.1824L52.1629 47.161L52.1843 47.1396L52.2057 47.1183L52.227 47.0969L52.2484 47.0755L52.2697 47.0542L52.2911 47.0328L52.3125 47.0115L52.3338 46.9901L52.3552 46.9687L52.3765 46.9474L52.3979 46.926L52.4193 46.9046L52.4406 46.8833L52.462 46.8619L52.4834 46.8406L52.5047 46.8192L52.5261 46.7978L52.5474 46.7765L52.5688 46.7551L52.5902 46.7337L52.6115 46.7124L52.6329 46.691L52.6543 46.6697L52.6756 46.6483L52.697 46.6269L52.7183 46.6056L52.7397 46.5842L52.7611 46.5628L52.7824 46.5415L52.8038 46.5201L52.8252 46.4988L52.8465 46.4774L52.8679 46.456L52.8892 46.4347L52.9106 46.4133L52.932 46.3919L52.9533 46.3706L52.9747 46.3492L52.9961 46.3279L53.0174 46.3065L53.0388 46.2851L53.0601 46.2638L53.0815 46.2424L53.1029 46.221L53.1242 46.1997L53.1456 46.1783L53.167 46.157L53.1883 46.1356L53.2097 46.1142L53.231 46.0929L53.2524 46.0715L53.2738 46.0501L53.2951 46.0288L53.3165 46.0074L53.3379 45.9861L53.3592 45.9647L53.3806 45.9433L53.4019 45.922L53.4233 45.9006L53.4447 45.8792L53.466 45.8579L53.4874 45.8365L53.5088 45.8152L53.5301 45.7938L53.5515 45.7724L53.5728 45.7511L53.5942 45.7297L53.6156 45.7083L53.6369 45.687L53.6583 45.6656L53.6796 45.6443L53.701 45.6229L53.7224 45.6015L53.7437 45.5802L53.7651 45.5588L53.7865 45.5374L53.8078 45.5161L53.8292 45.4947L53.8505 45.4734L53.8719 45.452L53.8933 45.4306L53.9146 45.4093L53.936 45.3879L53.9574 45.3666L53.9787 45.3452L54.0001 45.3238L54.0214 45.3025L54.0428 45.2811L54.0642 45.2597L54.0855 45.2384L54.1069 45.217L54.1283 45.1957L54.1496 45.1743L54.171 45.1529L54.1923 45.1316L54.2137 45.1102L54.2351 45.0888L54.2564 45.0675L54.2778 45.0461L54.2992 45.0248L54.3205 45.0034L54.3419 44.982L54.3632 44.9607L54.3846 44.9393L54.406 44.9179L54.4273 44.8966L54.4487 44.8752L54.4701 44.8539L54.4914 44.8325L54.5128 44.8111L54.5341 44.7898L54.5555 44.7684L54.5769 44.747L54.5982 44.7257L54.6196 44.7043L54.641 44.683L54.6623 44.6616L54.6837 44.6402L54.705 44.6189L54.7264 44.5975L54.7478 44.5761L54.7691 44.5548L54.7905 44.5334L54.8119 44.5121L54.8332 44.4907L54.8546 44.4693L54.8759 44.448L54.8973 44.4266L54.9187 44.4052L54.94 44.3839L54.9614 44.3625L54.9828 44.3412L55.0041 44.3198L55.0255 44.2984L55.0468 44.2771L55.0682 44.2557L55.0816 44.2423L55.0938 44.2279C56.0641 43.0793 56.6813 41.7559 56.9432 40.2654L56.9494 40.2301L56.95 40.1943C57.0334 34.6898 57.0334 29.1852 56.95 23.6807L56.9494 23.6448L56.9432 23.6095C56.6927 22.1865 56.1202 20.9089 55.2276 19.783L55.2115 19.7626L55.1932 19.7443L44.2557 8.8068L44.2423 8.79344L44.2279 8.78124C43.0794 7.81101 41.7559 7.19366 40.2654 6.93179L40.2293 6.92545L40.1926 6.92503C34.6905 6.86251 29.1882 6.84166 23.6858 6.86251ZM31.623 29.2594L31.9375 29.5666L32.252 29.2594C34.9584 26.6151 37.6459 23.9485 40.3147 21.2597C41.1193 20.9543 41.6599 20.975 42.0177 21.1677C42.3797 21.3626 42.6916 21.8077 42.8619 22.6651C42.8542 22.9757 42.7793 23.2656 42.636 23.5398C39.9401 26.2153 37.2667 28.9097 34.6156 31.623L34.3084 31.9375L34.6156 32.252C37.2599 34.9584 39.9265 37.6459 42.6153 40.3147C42.9207 41.1193 42.9 41.6599 42.7074 42.0177C42.5125 42.3797 42.0673 42.6916 41.2099 42.8619C40.8993 42.8542 40.6094 42.7793 40.3352 42.636C37.6597 39.9401 34.9654 37.2667 32.252 34.6156L31.9375 34.3084L31.623 34.6156C28.9166 37.2599 26.2291 39.9265 23.5603 42.6153C22.7557 42.9207 22.2151 42.9 21.8573 42.7074C21.4954 42.5125 21.1835 42.0673 21.0131 41.2099C21.0208 40.8993 21.0957 40.6094 21.2391 40.3352C23.9349 37.6597 26.6083 34.9654 29.2594 32.252L29.5666 31.9375L29.2594 31.623C26.6134 28.9149 23.9451 26.2257 21.2546 23.5552C20.9879 22.911 20.9682 22.4178 21.1071 22.0375C21.2454 21.6589 21.573 21.3051 22.1814 21.0047C22.6612 20.974 23.1153 21.0555 23.5503 21.2496C26.2223 23.9418 28.9132 26.6118 31.623 29.2594ZM23.4725 3.63738C29.1172 3.61678 34.7616 3.63756 40.4059 3.69968C42.6065 3.98843 44.5551 4.8242 46.2606 6.20949L57.6655 17.6144C59.0533 19.3241 59.8889 21.273 60.1754 23.4698C60.2582 29.1149 60.2582 34.7601 60.1754 40.4052C59.8889 42.602 59.0533 44.5509 57.6655 46.2606L57.6595 46.2666L57.6371 46.289L57.6148 46.3113L57.5925 46.3337L57.5701 46.356L57.5478 46.3783L57.5254 46.4007L57.5031 46.423L57.4808 46.4454L57.4584 46.4677L57.4361 46.49L57.4137 46.5124L57.3914 46.5347L57.3691 46.557L57.3467 46.5794L57.3244 46.6017L57.3021 46.6241L57.2797 46.6464L57.2574 46.6687L57.235 46.6911L57.2127 46.7134L57.1904 46.7358L57.168 46.7581L57.1457 46.7804L57.1233 46.8028L57.101 46.8251L57.0787 46.8475L57.0563 46.8698L57.034 46.8921L57.0116 46.9145L56.9893 46.9368L56.967 46.9591L56.9446 46.9815L56.9223 47.0038L56.9 47.0262L56.8776 47.0485L56.8553 47.0708L56.8329 47.0932L56.8106 47.1155L56.7883 47.1379L56.7659 47.1602L56.7436 47.1825L56.7212 47.2049L56.6989 47.2272L56.6766 47.2496L56.6542 47.2719L56.6319 47.2942L56.6095 47.3166L56.5872 47.3389L56.5649 47.3612L56.5425 47.3836L56.5202 47.4059L56.4979 47.4283L56.4755 47.4506L56.4532 47.4729L56.4308 47.4953L56.4085 47.5176L56.3862 47.54L56.3638 47.5623L56.3415 47.5846L56.3191 47.607L56.2968 47.6293L56.2745 47.6517L56.2521 47.674L56.2298 47.6963L56.2074 47.7187L56.1851 47.741L56.1628 47.7633L56.1404 47.7857L56.1181 47.808L56.0958 47.8304L56.0734 47.8527L56.0511 47.875L56.0287 47.8974L56.0064 47.9197L55.9841 47.9421L55.9617 47.9644L55.9394 47.9867L55.917 48.0091L55.8947 48.0314L55.8724 48.0538L55.85 48.0761L55.8277 48.0984L55.8053 48.1208L55.783 48.1431L55.7607 48.1654L55.7383 48.1878L55.716 48.2101L55.6937 48.2325L55.6713 48.2548L55.649 48.2771L55.6266 48.2995L55.6043 48.3218L55.582 48.3442L55.5596 48.3665L55.5373 48.3888L55.5149 48.4112L55.4926 48.4335L55.4703 48.4559L55.4479 48.4782L55.4256 48.5005L55.4032 48.5229L55.3809 48.5452L55.3586 48.5675L55.3362 48.5899L55.3139 48.6122L55.2916 48.6346L55.2692 48.6569L55.2469 48.6792L55.2245 48.7016L55.2022 48.7239L55.1799 48.7463L55.1575 48.7686L55.1352 48.7909L55.1128 48.8133L55.0905 48.8356L55.0682 48.858L55.0458 48.8803L55.0235 48.9026L55.0011 48.925L54.9788 48.9473L54.9565 48.9696L54.9341 48.992L54.9118 49.0143L54.8895 49.0367L54.8671 49.059L54.8448 49.0813L54.8224 49.1037L54.8001 49.126L54.7778 49.1484L54.7554 49.1707L54.7331 49.193L54.7107 49.2154L54.6884 49.2377L54.6661 49.2601L54.6437 49.2824L54.6214 49.3047L54.599 49.3271L54.5767 49.3494L54.5544 49.3717L54.532 49.3941L54.5097 49.4164L54.4874 49.4388L54.465 49.4611L54.4427 49.4834L54.4203 49.5058L54.398 49.5281L54.3757 49.5505L54.3533 49.5728L54.331 49.5951L54.3086 49.6175L54.2863 49.6398L54.264 49.6622L54.2416 49.6845L54.2193 49.7068L54.1969 49.7292L54.1746 49.7515L54.1523 49.7738L54.1299 49.7962L54.1076 49.8185L54.0853 49.8409L54.0629 49.8632L54.0406 49.8855L54.0182 49.9079L53.9959 49.9302L53.9736 49.9526L53.9512 49.9749L53.9289 49.9972L53.9065 50.0196L53.8842 50.0419L53.8619 50.0643L53.8395 50.0866L53.8172 50.1089L53.7948 50.1313L53.7725 50.1536L53.7502 50.1759L53.7278 50.1983L53.7055 50.2206L53.6832 50.243L53.6608 50.2653L53.6385 50.2876L53.6161 50.31L53.5938 50.3323L53.5715 50.3547L53.5491 50.377L53.5268 50.3993L53.5044 50.4217L53.4821 50.444L53.4598 50.4664L53.4374 50.4887L53.4151 50.511L53.3927 50.5334L53.3704 50.5557L53.3481 50.578L53.3257 50.6004L53.3034 50.6227L53.2811 50.6451L53.2587 50.6674L53.2364 50.6897L53.214 50.7121L53.1917 50.7344L53.1694 50.7568L53.147 50.7791L53.1247 50.8014L53.1023 50.8238L53.08 50.8461L53.0577 50.8685L53.0353 50.8908L53.013 50.9131L52.9907 50.9355L52.9683 50.9578L52.946 50.9801L52.9236 51.0025L52.9013 51.0248L52.879 51.0472L52.8566 51.0695L52.8343 51.0918L52.8119 51.1142L52.7896 51.1365L52.7673 51.1589L52.7449 51.1812L52.7226 51.2035L52.7002 51.2259L52.6779 51.2482L52.6556 51.2706L52.6332 51.2929L52.6109 51.3152L52.5886 51.3376L52.5662 51.3599L52.5439 51.3822L52.5215 51.4046L52.4992 51.4269L52.4769 51.4493L52.4545 51.4716L52.4322 51.4939L52.4098 51.5163L52.3875 51.5386L52.3652 51.561L52.3428 51.5833L52.3205 51.6056L52.2981 51.628L52.2758 51.6503L52.2535 51.6727L52.2311 51.695L52.2088 51.7173L52.1865 51.7397L52.1641 51.762L52.1418 51.7843L52.1194 51.8067L52.0971 51.829L52.0748 51.8514L52.0524 51.8737L52.0301 51.896L52.0077 51.9184L51.9854 51.9407L51.9631 51.9631L51.9407 51.9854L51.9184 52.0077L51.896 52.0301L51.8737 52.0524L51.8514 52.0748L51.829 52.0971L51.8067 52.1194L51.7844 52.1418L51.762 52.1641L51.7397 52.1864L51.7173 52.2088L51.695 52.2311L51.6727 52.2535L51.6503 52.2758L51.628 52.2981L51.6056 52.3205L51.5833 52.3428L51.561 52.3652L51.5386 52.3875L51.5163 52.4098L51.4939 52.4322L51.4716 52.4545L51.4493 52.4769L51.4269 52.4992L51.4046 52.5215L51.3823 52.5439L51.3599 52.5662L51.3376 52.5885L51.3152 52.6109L51.2929 52.6332L51.2706 52.6556L51.2482 52.6779L51.2259 52.7002L51.2035 52.7226L51.1812 52.7449L51.1589 52.7673L51.1365 52.7896L51.1142 52.8119L51.0918 52.8343L51.0695 52.8566L51.0472 52.879L51.0248 52.9013L51.0025 52.9236L50.9802 52.946L50.9578 52.9683L50.9355 52.9906L50.9131 53.013L50.8908 53.0353L50.8685 53.0577L50.8461 53.08L50.8238 53.1023L50.8014 53.1247L50.7791 53.147L50.7568 53.1694L50.7344 53.1917L50.7121 53.214L50.6897 53.2364L50.6674 53.2587L50.6451 53.2811L50.6227 53.3034L50.6004 53.3257L50.5781 53.3481L50.5557 53.3704L50.5334 53.3927L50.511 53.4151L50.4887 53.4374L50.4664 53.4598L50.444 53.4821L50.4217 53.5044L50.3993 53.5268L50.377 53.5491L50.3547 53.5715L50.3323 53.5938L50.31 53.6161L50.2876 53.6385L50.2653 53.6608L50.243 53.6832L50.2206 53.7055L50.1983 53.7278L50.176 53.7502L50.1536 53.7725L50.1313 53.7948L50.1089 53.8172L50.0866 53.8395L50.0643 53.8619L50.0419 53.8842L50.0196 53.9065L49.9972 53.9289L49.9749 53.9512L49.9526 53.9736L49.9302 53.9959L49.9079 54.0182L49.8855 54.0406L49.8632 54.0629L49.8409 54.0853L49.8185 54.1076L49.7962 54.1299L49.7739 54.1523L49.7515 54.1746L49.7292 54.1969L49.7068 54.2193L49.6845 54.2416L49.6622 54.264L49.6398 54.2863L49.6175 54.3086L49.5951 54.331L49.5728 54.3533L49.5505 54.3757L49.5281 54.398L49.5058 54.4203L49.4834 54.4427L49.4611 54.465L49.4388 54.4874L49.4164 54.5097L49.3941 54.532L49.3717 54.5544L49.3494 54.5767L49.3271 54.599L49.3047 54.6214L49.2824 54.6437L49.2601 54.6661L49.2377 54.6884L49.2154 54.7107L49.193 54.7331L49.1707 54.7554L49.1484 54.7778L49.126 54.8001L49.1037 54.8224L49.0813 54.8448L49.059 54.8671L49.0367 54.8895L49.0143 54.9118L48.992 54.9341L48.9697 54.9565L48.9473 54.9788L48.925 55.0011L48.9026 55.0235L48.8803 55.0458L48.858 55.0682L48.8356 55.0905L48.8133 55.1128L48.7909 55.1352L48.7686 55.1575L48.7463 55.1799L48.7239 55.2022L48.7016 55.2245L48.6792 55.2469L48.6569 55.2692L48.6346 55.2915L48.6122 55.3139L48.5899 55.3362L48.5676 55.3586L48.5452 55.3809L48.5229 55.4032L48.5005 55.4256L48.4782 55.4479L48.4559 55.4703L48.4335 55.4926L48.4112 55.5149L48.3888 55.5373L48.3665 55.5596L48.3442 55.582L48.3218 55.6043L48.2995 55.6266L48.2771 55.649L48.2548 55.6713L48.2325 55.6936L48.2101 55.716L48.1878 55.7383L48.1655 55.7607L48.1431 55.783L48.1208 55.8053L48.0984 55.8277L48.0761 55.85L48.0538 55.8724L48.0314 55.8947L48.0091 55.917L47.9867 55.9394L47.9644 55.9617L47.9421 55.9841L47.9197 56.0064L47.8974 56.0287L47.875 56.0511L47.8527 56.0734L47.8304 56.0957L47.808 56.1181L47.7857 56.1404L47.7634 56.1628L47.741 56.1851L47.7187 56.2074L47.6963 56.2298L47.674 56.2521L47.6517 56.2745L47.6293 56.2968L47.607 56.3191L47.5846 56.3415L47.5623 56.3638L47.54 56.3862L47.5176 56.4085L47.4953 56.4308L47.4729 56.4532L47.4506 56.4755L47.4283 56.4978L47.4059 56.5202L47.3836 56.5425L47.3613 56.5649L47.3389 56.5872L47.3166 56.6095L47.2942 56.6319L47.2719 56.6542L47.2496 56.6766L47.2272 56.6989L47.2049 56.7212L47.1825 56.7436L47.1602 56.7659L47.1379 56.7883L47.1155 56.8106L47.0932 56.8329L47.0708 56.8553L47.0485 56.8776L47.0262 56.8999L47.0038 56.9223L46.9815 56.9446L46.9592 56.967L46.9368 56.9893L46.9145 57.0116L46.8921 57.034L46.8698 57.0563L46.8475 57.0787L46.8251 57.101L46.8028 57.1233L46.7804 57.1457L46.7581 57.168L46.7358 57.1904L46.7134 57.2127L46.6911 57.235L46.6687 57.2574L46.6464 57.2797L46.6241 57.302L46.6017 57.3244L46.5794 57.3467L46.5571 57.3691L46.5347 57.3914L46.5124 57.4137L46.49 57.4361L46.4677 57.4584L46.4454 57.4808L46.423 57.5031L46.4007 57.5254L46.3783 57.5478L46.356 57.5701L46.3337 57.5925L46.3113 57.6148L46.289 57.6371L46.2666 57.6595L46.2606 57.6655C44.5509 59.0533 42.602 59.8889 40.4052 60.1754C34.7601 60.2582 29.1149 60.2582 23.4698 60.1754C21.273 59.8889 19.3241 59.0533 17.6144 57.6655L6.20955 46.2607C4.8217 44.5509 3.98604 42.6021 3.69958 40.4052C3.61681 34.7601 3.61681 29.1149 3.69958 23.4698C3.98573 21.2735 4.82136 19.3247 6.20955 17.6143L11.912 11.912L17.6129 6.21101C19.3477 4.82904 21.2987 3.9725 23.4725 3.63738Z" fill="#F86E6E" stroke="white" stroke-width="0.9"/>
</svg>
