<svg width="64" height="64" viewBox="0 0 64 64" fill="none" xmlns="http://www.w3.org/2000/svg">
<path opacity="0.95" d="M41.8082 3.69999L41.8108 3.7C45.7079 3.71434 49.3815 4.61071 52.8376 6.39033C56.0895 8.47532 58.2029 11.3969 59.1894 15.1756C59.6087 16.7906 59.8959 18.429 60.0507 20.0911C60.1876 24.0376 60.2498 27.9859 60.2375 31.9361L60.2375 31.9389C60.2498 35.8912 60.1875 39.8415 60.0505 43.79C59.8401 46.9916 58.9857 50.0054 57.4861 52.8354C55.401 56.0886 52.4788 58.2027 48.6994 59.1894C47.0842 59.6089 45.4458 59.8959 43.7839 60.0507C39.8374 60.1876 35.8891 60.2498 31.9389 60.2375L31.9361 60.2375C27.9838 60.2498 24.0335 60.1875 20.085 60.0505C16.8837 59.8401 13.8704 58.9859 11.0413 57.487C7.33522 55.0661 5.09858 51.6579 4.31816 47.2343L4.31824 47.2343L4.31657 47.2258C3.96489 45.4346 3.75935 43.627 3.69991 41.8023C3.61668 35.2247 3.6167 28.6472 3.69995 22.0695C3.75962 18.8465 4.37278 15.7366 5.53982 12.7374C7.45834 8.5209 10.6585 5.84527 15.1723 4.68639C17.4604 4.12199 19.7615 3.77244 22.0763 3.63746C28.6538 3.61669 35.231 3.63754 41.8082 3.69999ZM21.9361 6.8625L21.9231 6.86254L21.9102 6.86333C19.9102 6.98509 17.9231 7.30224 15.9495 7.81443L15.9492 7.81451C13.2775 8.50987 11.1263 9.96499 9.51182 12.1718L9.49581 12.1937L9.48254 12.2173C7.77255 15.2653 6.91961 18.5488 6.925 22.06C6.84165 28.6461 6.84167 35.2321 6.92501 41.8182L6.92512 41.823C6.97368 43.8956 7.27062 45.9318 7.81586 47.9309L7.81614 47.9319C8.80134 51.5103 10.9981 54.0558 14.382 55.5372L14.3966 55.5436L14.4116 55.5489C16.8406 56.4136 19.3459 56.8807 21.9254 56.9498L21.9302 56.9499C29.1887 57.0678 36.4453 57.026 43.7 56.8248L43.7144 56.8244L43.7288 56.8231C45.1529 56.6919 46.554 56.4372 47.9316 56.0589L47.9319 56.0588C51.5103 55.0737 54.0558 52.8769 55.5372 49.4929L55.5436 49.4783L55.549 49.4633C56.4276 46.9931 56.8946 44.4454 56.9499 41.822L56.9499 41.8198C57.0672 34.6031 57.0254 27.3881 56.8248 20.175L56.8244 20.1606L56.8231 20.1462C56.692 18.7232 56.4374 17.3226 56.0593 15.9448C55.2775 13.0044 53.6044 10.7221 51.0518 9.11893L51.0341 9.10779L51.0154 9.09835C48.1675 7.65955 45.1406 6.93478 41.9403 6.92501C35.2724 6.8625 28.6042 6.84166 21.9361 6.8625ZM27.8068 36.8807L28.125 37.1989L28.4432 36.8807L42.233 23.0909C42.412 22.9581 42.5939 22.8497 42.7784 22.7643C43.7996 22.7919 44.3415 23.0551 44.5916 23.4065C44.841 23.757 44.912 24.3527 44.6053 25.3215C39.3809 30.5864 34.119 35.8069 28.8195 40.9833C28.2102 41.1843 27.6477 41.1153 27.0956 40.7717L19.3572 33.0333C19.1001 32.5981 19.0014 32.202 19.0247 31.8365C19.0476 31.4775 19.1909 31.1061 19.4896 30.7185C20.1642 30.3257 20.8347 30.294 21.5492 30.6231L27.8068 36.8807Z" fill="#73D264" stroke="white" stroke-width="0.9"/>
</svg>
