<svg width="64" height="64" viewBox="0 0 64 64" fill="none" xmlns="http://www.w3.org/2000/svg">
<g clip-path="url(#clip0_371_4155)">
<path opacity="0.933" fill-rule="evenodd" clip-rule="evenodd" d="M29.6875 -0.0625C31.2291 -0.0625 32.7709 -0.0625 34.3125 -0.0625C38.4569 0.317759 42.4152 1.42192 46.1875 3.25C46.8541 3.875 46.8541 4.5 46.1875 5.125C45.8713 5.30271 45.5379 5.34438 45.1875 5.25C35.3904 0.80443 25.807 1.2211 16.4375 6.5C13.0059 8.63941 10.0893 11.3477 7.6875 14.625C6.65895 15.1069 6.03395 14.7944 5.8125 13.6875C6.04538 13.1004 6.35787 12.5586 6.75 12.0625C12.6995 4.84775 20.3454 0.806087 29.6875 -0.0625Z" fill="#36A1EA"/>
<path opacity="0.93" fill-rule="evenodd" clip-rule="evenodd" d="M63.9375 29.1874C63.9375 30.479 63.9375 31.7708 63.9375 33.0624C63.493 33.6957 62.9097 33.8415 62.1875 33.4999C62.0373 33.387 61.9331 33.2413 61.875 33.0624C61.7303 22.2725 57.3553 13.6892 48.75 7.3124C48.3763 6.01948 48.8556 5.45698 50.1875 5.6249C58.2272 11.43 62.8106 19.2842 63.9375 29.1874Z" fill="#36A1EA"/>
<path opacity="0.933" fill-rule="evenodd" clip-rule="evenodd" d="M29.4375 7.68746C38.6973 7.16283 46.1348 10.5378 51.75 17.8125C54.5388 21.8036 55.9972 26.2203 56.125 31.0625C55.5732 31.5063 54.9898 31.548 54.375 31.1875C54.2917 31.0208 54.2084 30.8541 54.125 30.6875C52.9005 20.8722 47.6714 14.268 38.4375 10.875C29.4702 8.51731 21.7827 10.6631 15.375 17.3125C12.6152 20.6248 10.8235 24.4165 10 28.6875C9.46502 29.1268 8.90252 29.1685 8.31253 28.8125C7.98181 28.4535 7.87763 28.0368 8.00003 27.5625C10.1872 17.6251 16.1664 11.2293 25.9375 8.37496C27.1137 8.10306 28.2803 7.87389 29.4375 7.68746Z" fill="#36A1EA"/>
<path opacity="0.936" fill-rule="evenodd" clip-rule="evenodd" d="M31.4375 15.3125C38.9721 15.4834 44.2846 18.9834 47.375 25.8125C48.3761 29.0274 48.9595 32.3191 49.125 35.6875C49.3114 39.3711 49.1446 43.0378 48.625 46.6875C48.424 48.1005 47.7156 48.4339 46.5 47.6875C46.4584 47.5625 46.4166 47.4375 46.375 47.3125C46.5494 45.4429 46.7161 43.5679 46.875 41.6875C47.108 37.4837 46.8164 33.3171 46 29.1875C44.8954 24.4559 42.1661 21.0184 37.8125 18.875C31.2795 16.399 25.6336 17.7115 20.875 22.8125C18.7896 25.486 17.6855 28.5276 17.5625 31.9375C17.8807 34.2221 18.1307 36.5138 18.3125 38.8125C18.2956 39.6077 18.2331 40.3995 18.125 41.1875C17.9324 41.7337 17.5365 42.0254 16.9375 42.0625C16.1894 41.8762 15.856 41.3971 15.9375 40.625C16.0562 39.6891 16.0771 38.7516 16 37.8125C15.6949 35.8638 15.4656 33.9054 15.3125 31.9375C15.6405 24.9228 18.9323 19.8602 25.1875 16.75C27.2065 15.9116 29.2898 15.4324 31.4375 15.3125Z" fill="#36A1EA"/>
<path opacity="0.936" fill-rule="evenodd" clip-rule="evenodd" d="M-0.0625 34.3125C-0.0625 32.6459 -0.0625 30.9791 -0.0625 29.3125C0.365283 25.062 1.55279 21.0202 3.5 17.1875C4.10856 16.6917 4.71273 16.6917 5.3125 17.1875C5.40814 17.4119 5.49148 17.641 5.5625 17.875C4.4443 20.2711 3.54846 22.7502 2.875 25.3125C1.91474 29.9929 1.97724 34.6595 3.0625 39.3125C3.04179 40.0417 2.66679 40.4585 1.9375 40.5625C1.57931 40.4772 1.26681 40.3105 1 40.0625C0.476095 38.1616 0.121928 36.245 -0.0625 34.3125Z" fill="#36A1EA"/>
<path opacity="0.933" fill-rule="evenodd" clip-rule="evenodd" d="M30.9375 23.0626C35.9634 22.9379 39.1926 25.2711 40.625 30.0626C41.2476 33.117 41.4976 36.2004 41.375 39.3126C40.7084 40.146 40.0416 40.146 39.375 39.3126C39.2358 37.0589 39.0275 34.8089 38.75 32.5626C38.6403 30.6902 38.0153 29.0235 36.875 27.5626C34.0002 24.843 30.9377 24.6137 27.6875 26.8751C27.1146 27.3641 26.6354 27.9266 26.25 28.5626C25.877 29.4752 25.4811 30.3711 25.0625 31.2501C24.0726 31.7167 23.4476 31.425 23.1875 30.3751C24.1821 26.2342 26.7654 23.7967 30.9375 23.0626Z" fill="#36A1EA"/>
<path opacity="0.931" fill-rule="evenodd" clip-rule="evenodd" d="M31.5625 30.8126C32.2268 30.7176 32.7059 30.9676 33 31.5626C35.1602 43.2018 32.4518 53.5352 24.875 62.5626C24.2055 63.0965 23.5805 63.0547 23 62.4376C22.8438 62.1155 22.802 61.7822 22.875 61.4376C30.1784 52.8996 32.8242 43.0871 30.8125 32.0001C30.8388 31.4548 31.0888 31.059 31.5625 30.8126Z" fill="#36A1EA"/>
<path opacity="0.932" fill-rule="evenodd" clip-rule="evenodd" d="M8.68746 31.6875C9.3461 31.7836 9.74193 32.1586 9.87496 32.8125C10.1247 34.8317 10.3539 36.8525 10.5625 38.875C10.4496 42.8919 8.86628 46.1835 5.81246 48.75C4.5162 48.871 4.03703 48.3085 4.37496 47.0625C8.08931 43.5809 9.21431 39.3725 7.74996 34.4375C7.66662 33.7291 7.66662 33.0209 7.74996 32.3125C7.98912 31.965 8.30162 31.7566 8.68746 31.6875Z" fill="#36A1EA"/>
<path opacity="0.932" fill-rule="evenodd" clip-rule="evenodd" d="M24.4375 34.0625C24.8977 34.0739 25.2936 34.2405 25.625 34.5625C26.9022 44.3144 24.0481 52.6269 17.0625 59.5C15.5642 59.9597 15.0017 59.4389 15.375 57.9375C21.8643 51.5964 24.6143 43.888 23.625 34.8125C23.8045 34.4448 24.0753 34.1947 24.4375 34.0625Z" fill="#36A1EA"/>
<path opacity="0.937" fill-rule="evenodd" clip-rule="evenodd" d="M55.5625 34.0626C56.1266 34.0518 56.5225 34.3018 56.75 34.8126C57.2412 41.2845 56.6579 47.6595 55 53.9376C54.845 54.509 54.47 54.8006 53.875 54.8126C53.1275 54.7732 52.7734 54.3775 52.8125 53.6251C54.3479 47.4853 54.9521 41.2561 54.625 34.9376C54.7764 34.4583 55.0889 34.1667 55.5625 34.0626Z" fill="#36A1EA"/>
<path opacity="0.931" fill-rule="evenodd" clip-rule="evenodd" d="M33.4375 63.9375C33.1041 63.9375 32.7709 63.9375 32.4375 63.9375C31.8718 63.5951 31.6843 63.0951 31.875 62.4375C35.7931 56.5601 38.2098 50.1017 39.125 43.0625C39.7149 42.4542 40.3399 42.4126 41 42.9375C41.1278 43.2127 41.1903 43.5043 41.1875 43.8125C40.3669 51.2377 37.7835 57.9461 33.4375 63.9375Z" fill="#36A1EA"/>
<path opacity="0.922" fill-rule="evenodd" clip-rule="evenodd" d="M15.4375 44.6874C15.9024 44.6251 16.3192 44.7294 16.6875 44.9999C16.8663 45.2383 16.9495 45.5091 16.9375 45.8124C16.6238 47.1069 16.103 48.3151 15.375 49.4374C14.1768 51.3873 12.6977 53.1164 10.9375 54.6249C10.1403 55.1156 9.49449 54.9698 9.00003 54.1874C8.90566 53.837 8.94732 53.5036 9.12503 53.1874C11.7647 50.9655 13.723 48.2571 15 45.0624C15.1432 44.9204 15.289 44.7954 15.4375 44.6874Z" fill="#36A1EA"/>
<path opacity="0.924" fill-rule="evenodd" clip-rule="evenodd" d="M45.9375 50.6874C46.7818 50.5464 47.3234 50.8797 47.5625 51.6874C46.7335 55.0703 45.546 58.3203 44 61.4374C43.2898 62.1247 42.6232 62.0831 42 61.3124C41.9167 60.9791 41.9167 60.6458 42 60.3124C43.396 57.4163 44.521 54.4163 45.375 51.3124C45.5032 51.0391 45.6907 50.8307 45.9375 50.6874Z" fill="#36A1EA"/>
</g>
<defs>
<clipPath id="clip0_371_4155">
<rect width="64" height="64" fill="white"/>
</clipPath>
</defs>
</svg>
