<svg width="64" height="64" viewBox="0 0 64 64" fill="none" xmlns="http://www.w3.org/2000/svg">
<path opacity="0.95" fill-rule="evenodd" clip-rule="evenodd" d="M31.1424 3.16652C30.8182 3.17202 30.5391 3.17919 30.3125 3.18791C30.5896 3.17725 30.8662 3.17011 31.1424 3.16652ZM48.4961 15.0067C48.7224 16.0327 48.8825 17.0689 48.9761 18.1153C49.0377 20.3447 49.0583 22.5745 49.0376 24.8046L49.0298 25.6467L49.8695 25.7103C52.8683 25.9375 55.089 26.8459 56.637 28.3475C58.185 29.8492 59.1609 32.0418 59.4801 35.0334L59.4811 35.0427L59.4823 35.052C59.6008 35.9798 59.682 36.911 59.7256 37.8456C59.8083 40.9935 59.8082 44.1414 59.7253 47.2892L59.725 47.3029L59.725 47.3166C59.7365 50.0997 59.1507 52.7378 57.9659 55.2411C56.3272 57.6625 54.0571 59.0247 51.0877 59.356L51.068 59.3582L51.0483 59.3612C49.763 59.5625 48.4701 59.6839 47.1696 59.7255C37.0114 59.8088 26.8531 59.8088 16.6949 59.7254L16.6869 59.7254L16.6789 59.7255C13.8539 59.7525 11.1753 59.1664 8.63328 57.9657C6.39857 56.459 5.07581 54.3789 4.63853 51.6695L4.63683 51.659L4.63488 51.6485C4.36682 50.2058 4.20506 48.7511 4.14958 47.2841C4.06679 44.135 4.06684 40.9857 4.14972 37.8366L4.15003 37.8246L4.15003 37.8126C4.14915 34.9778 4.77369 32.3022 6.02545 29.7748C7.48541 27.7121 9.45203 26.4655 11.9722 26.0111L11.9774 26.0102C12.6604 25.8829 13.346 25.7821 14.0343 25.7077L14.8451 25.6201L14.8375 24.8046C14.8167 22.5685 14.8374 20.3327 14.8994 18.0973C15.0623 14.7691 16.119 11.7877 18.0744 9.1309C20.2575 6.69059 22.9608 5.19742 26.2152 4.63738L26.2185 4.63679C27.6134 4.3913 28.9971 4.2079 30.3693 4.0864C33.4863 3.96857 36.5475 4.31086 39.5562 5.11349C44.4361 6.71437 47.3884 9.98093 48.4961 15.0067ZM30.279 6.41354L30.2441 6.41484L30.2093 6.41885C29.1303 6.54338 28.0358 6.69072 26.9262 6.8608L26.9132 6.86279L26.9003 6.86515C24.3112 7.33959 22.1839 8.35627 20.5812 9.95898C18.9784 11.5617 17.9625 13.6884 17.4897 16.2761L17.4843 16.3057L17.4809 16.3356C17.1681 19.0697 17.0203 21.814 17.0375 24.5685L17.0431 25.4629H46.8319L46.8375 24.5685C46.8547 21.814 46.7069 19.0697 46.3942 16.3356L46.3922 16.3183L46.3895 16.301C46.0389 14.023 45.2169 12.0936 43.8894 10.5584C42.5618 9.02302 40.7737 7.93391 38.5746 7.26443L38.5507 7.25714L38.5264 7.25119C35.8186 6.58882 33.0686 6.30955 30.279 6.41354ZM15.5608 27.7879L15.5129 27.788L15.4654 27.7932C14.3131 27.9183 13.1549 28.1114 11.9908 28.3722L11.989 28.3726C9.82022 28.8632 8.27168 30.1655 7.41893 32.2175L7.40743 32.2452L7.39779 32.2736C6.79032 34.0632 6.4826 35.9064 6.47507 37.7994C6.39165 40.9758 6.39168 44.1524 6.47513 47.3288C6.49023 48.9702 6.70866 50.5842 7.13026 52.1693L7.1314 52.1735C7.57678 53.8158 8.5264 55.1086 9.95721 56.0115L10.0133 56.047L10.074 56.0738C12.1359 56.984 14.3022 57.4267 16.5641 57.4005C26.816 57.4838 37.0679 57.4838 47.3198 57.4004C49.2506 57.387 51.1343 57.0804 52.9673 56.4808L52.9868 56.4744L53.0061 56.4672C54.3196 55.9701 55.338 55.1013 56.032 53.8835L56.0474 53.8565L56.0608 53.8285C56.7366 52.4257 57.1406 50.9439 57.2718 49.3886L57.2729 49.3759L57.2736 49.3633C57.5255 44.8714 57.5255 40.3795 57.2736 35.8875L57.2725 35.8674L57.2705 35.8474C57.1899 35.0509 57.0586 34.2628 56.8764 33.4831L56.8758 33.4806C56.5251 31.9991 55.7868 30.7356 54.6708 29.7121L54.6083 29.6548L54.5362 29.6101C52.6412 28.4374 50.5609 27.8501 48.3149 27.8504C37.3969 27.7879 26.4789 27.767 15.5608 27.7879ZM19.7761 41.5299C20.0224 41.2194 20.3141 40.9872 20.6576 40.8244C21.7275 40.7597 22.2876 40.993 22.575 41.2856C22.8622 41.578 23.0838 42.1407 22.9929 43.2088C22.7537 43.7289 22.4634 44.0304 22.1553 44.1989C21.8418 44.3705 21.4146 44.4565 20.8165 44.378C20.0422 44.0203 19.6905 43.6214 19.5525 43.2517C19.4127 42.8769 19.4176 42.3318 19.7761 41.5299ZM30.3097 41.7183C30.5781 41.3173 30.9136 41.0193 31.3238 40.8108C32.1737 40.7067 32.6978 40.8559 33.0252 41.0986C33.3486 41.3384 33.6362 41.7855 33.7741 42.6062C33.5912 43.474 33.2692 43.9186 32.9293 44.1379C32.5868 44.3589 32.0405 44.471 31.1586 44.2813C30.6117 43.9303 30.3326 43.5636 30.2099 43.2071C30.084 42.8414 30.08 42.3625 30.3097 41.7183ZM41.1315 41.438C41.3851 41.1528 41.6748 40.9523 42.0068 40.8244C43.0651 40.7413 43.6218 40.9627 43.9104 41.246C44.1943 41.5247 44.4219 42.0631 44.3633 43.0895C44.0094 43.8426 43.6161 44.1868 43.2513 44.3229C42.8828 44.4605 42.3496 44.458 41.5695 44.1171C41.1332 43.6932 40.9234 43.2864 40.8558 42.8994C40.7865 42.5025 40.8491 42.0247 41.1315 41.438Z" fill="#36A1EA"/>
</svg>
