<svg width="64" height="64" viewBox="0 0 64 64" fill="none" xmlns="http://www.w3.org/2000/svg">
<g clip-path="url(#clip0_371_4292)">
<path opacity="0.936" fill-rule="evenodd" clip-rule="evenodd" d="M29.1875 -0.0625C31.0209 -0.0625 32.8541 -0.0625 34.6875 -0.0625C47.2207 1.5051 56.1582 8.0051 61.5 19.4375C62.787 22.5855 63.5995 25.8355 63.9375 29.1875C63.9375 31.0625 63.9375 32.9375 63.9375 34.8125C62.3189 47.284 55.8189 56.1797 44.4375 61.5C41.2897 62.7869 38.0397 63.5994 34.6875 63.9375C32.8541 63.9375 31.0209 63.9375 29.1875 63.9375C17.1379 62.4873 8.36706 56.3623 2.875 45.5625C1.31711 42.1221 0.337941 38.5387 -0.0625 34.8125C-0.0625 32.9375 -0.0625 31.0625 -0.0625 29.1875C1.5051 16.6543 8.0051 7.71675 19.4375 2.375C22.5855 1.08799 25.8355 0.275491 29.1875 -0.0625ZM29.4375 2.1875C42.1077 1.71882 51.6702 6.8855 58.125 17.6875C62.3154 25.8825 62.8154 34.2991 59.625 42.9375C58.7256 45.1119 57.6006 47.1535 56.25 49.0625C53.4826 41.8368 48.5451 36.6909 41.4375 33.625C45.7391 29.2024 46.8849 24.0566 44.875 18.1875C41.8783 11.9032 36.899 9.04906 29.9375 9.625C23.9391 10.7897 20.085 14.3105 18.375 20.1875C17.3603 25.403 18.7145 29.8821 22.4375 33.625C15.3299 36.6909 10.3924 41.8368 7.625 49.0625C1.86931 40.5181 0.660981 31.3515 4 21.5625C7.874 11.9384 14.8115 5.75091 24.8125 3C26.3577 2.6454 27.8994 2.37456 29.4375 2.1875ZM31.6875 11.6875C37.7969 12.0638 41.6926 15.1887 43.375 21.0625C44.1511 26.9064 41.9636 31.2189 36.8125 34C31.244 36.0715 26.5149 34.884 22.625 30.4375C19.9246 26.4666 19.5912 22.2999 21.625 17.9375C23.8876 14.0879 27.2417 12.0045 31.6875 11.6875ZM24.5625 35.3125C29.4375 37.9757 34.3125 37.9757 39.1875 35.3125C46.9067 38.0734 51.9901 43.3651 54.4375 51.1875C54.4101 51.3672 54.3476 51.5339 54.25 51.6875C45.6535 60.6499 35.3203 63.5665 23.25 60.4375C17.8903 58.7794 13.3486 55.8628 9.625 51.6875C9.46233 51.4544 9.42066 51.2044 9.5 50.9375C12.0041 43.2878 17.025 38.0795 24.5625 35.3125Z" fill="#36A1EA"/>
</g>
<defs>
<clipPath id="clip0_371_4292">
<rect width="64" height="64" fill="white"/>
</clipPath>
</defs>
</svg>
