<svg width="25" height="24" viewBox="0 0 25 24" fill="none" xmlns="http://www.w3.org/2000/svg">
<path opacity="0.966" fill-rule="evenodd" clip-rule="evenodd" d="M9.28906 1.19531C11.4141 1.1875 13.5391 1.19531 15.6641 1.21875C16.527 1.33019 17.2927 1.65832 17.9609 2.20313C19.3906 3.63281 20.8203 5.0625 22.25 6.49219C22.7956 7.16189 23.1238 7.92755 23.2344 8.78906C23.2656 10.914 23.2656 13.0391 23.2344 15.1641C23.1238 16.0256 22.7956 16.7912 22.25 17.4609C20.8203 18.8906 19.3906 20.3203 17.9609 21.75C17.2912 22.2956 16.5256 22.6238 15.6641 22.7344C13.5391 22.7656 11.414 22.7656 9.28906 22.7344C8.42755 22.6238 7.66189 22.2956 6.99219 21.75C5.5625 20.3203 4.13281 18.8906 2.70313 17.4609C2.15749 16.7912 1.82936 16.0256 1.71875 15.1641C1.6875 13.0391 1.6875 10.914 1.71875 8.78906C1.82924 7.92774 2.15737 7.16213 2.70313 6.49219C4.13281 5.0625 5.5625 3.63281 6.99219 2.20313C7.67075 1.66053 8.43641 1.32459 9.28906 1.19531ZM9.38281 2.74219C11.4454 2.73437 13.5079 2.74219 15.5703 2.76563C16.1001 2.85871 16.5688 3.07746 16.9766 3.42188C18.3438 4.78908 19.7109 6.15624 21.0781 7.52344C21.3953 7.92352 21.5984 8.37661 21.6875 8.88281C21.7188 10.9453 21.7188 13.0078 21.6875 15.0703C21.5944 15.6001 21.3757 16.0688 21.0313 16.4766C19.664 17.8438 18.2969 19.2109 16.9297 20.5781C16.5296 20.8953 16.0765 21.0984 15.5703 21.1875C13.5078 21.2188 11.4453 21.2188 9.38281 21.1875C8.85303 21.0944 8.38428 20.8757 7.97656 20.5313C6.60936 19.164 5.2422 17.7969 3.875 16.4297C3.55787 16.0296 3.35474 15.5765 3.26563 15.0703C3.23437 13.0078 3.23437 10.9453 3.26563 8.88281C3.35871 8.35303 3.57746 7.88428 3.92188 7.47656C5.28908 6.10936 6.65624 4.7422 8.02344 3.375C8.43261 3.06092 8.88575 2.84998 9.38281 2.74219Z" fill="#F86E6E"/>
<path opacity="0.961" fill-rule="evenodd" clip-rule="evenodd" d="M8.77344 7.71097C9.00369 7.69049 9.22241 7.72954 9.42969 7.82816C10.4382 8.84446 11.4538 9.85227 12.4766 10.8516C13.4994 9.85227 14.515 8.84446 15.5234 7.82816C16.2014 7.55765 16.6077 7.77637 16.7422 8.48441C16.7414 8.64299 16.7023 8.79144 16.625 8.92972C15.6087 9.93819 14.6009 10.9538 13.6016 11.9766C14.6009 12.9994 15.6087 14.015 16.625 15.0235C16.8955 15.7015 16.6768 16.1077 15.9688 16.2422C15.8102 16.2414 15.6617 16.2024 15.5234 16.125C14.515 15.1087 13.4994 14.1009 12.4766 13.1016C11.4538 14.1009 10.4382 15.1087 9.42969 16.125C8.75169 16.3956 8.34542 16.1768 8.21094 15.4688C8.21173 15.3102 8.25078 15.1618 8.32812 15.0235C9.34442 14.015 10.3522 12.9994 11.3516 11.9766C10.3522 10.9538 9.34442 9.93819 8.32812 8.92972C8.08442 8.37126 8.23283 7.96499 8.77344 7.71097Z" fill="#F86E6E"/>
</svg>
