<svg width="14" height="14" viewBox="0 0 14 14" fill="none" xmlns="http://www.w3.org/2000/svg">
<path d="M6.22222 3.11115C6.22222 2.6816 6.57044 2.33337 7 2.33337C7.42955 2.33337 7.77777 2.6816 7.77777 3.11115V10.8889C7.77777 11.3185 7.42955 11.6667 7 11.6667C6.57044 11.6667 6.22222 11.3185 6.22222 10.8889V3.11115Z" fill="#9E9FA8"/>
<path d="M10.8889 6.22226C11.3184 6.22226 11.6667 6.57049 11.6667 7.00004C11.6667 7.4296 11.3184 7.77782 10.8889 7.77782L3.11111 7.77782C2.68155 7.77782 2.33333 7.4296 2.33333 7.00004C2.33333 6.57049 2.68155 6.22226 3.11111 6.22226L10.8889 6.22226Z" fill="#9E9FA8"/>
</svg>
