<svg width="25" height="24" viewBox="0 0 25 24" fill="none" xmlns="http://www.w3.org/2000/svg">
<path opacity="0.967" fill-rule="evenodd" clip-rule="evenodd" d="M8.77344 1.19531C11.2422 1.1875 13.711 1.19531 16.1797 1.21875C17.6704 1.22424 19.0766 1.56798 20.3984 2.25C21.6579 3.05532 22.4782 4.18813 22.8594 5.64844C23.0193 6.26442 23.1287 6.8894 23.1875 7.52344C23.239 9.00712 23.2624 10.4915 23.2578 11.9766C23.2624 13.4617 23.239 14.946 23.1875 16.4297C23.1072 17.6573 22.7791 18.8136 22.2031 19.8984C21.3978 21.1579 20.265 21.9782 18.8047 22.3594C18.1886 22.5194 17.5636 22.6287 16.9297 22.6875C15.446 22.739 13.9617 22.7624 12.4766 22.7578C10.9915 22.7624 9.50712 22.739 8.02344 22.6875C6.79569 22.6071 5.63942 22.279 4.55469 21.7031C3.12141 20.7692 2.25422 19.4489 1.95313 17.7422C1.81939 17.061 1.74127 16.3736 1.71875 15.6797C1.6875 13.2109 1.6875 10.7422 1.71875 8.27344C1.74147 7.0432 1.97585 5.85572 2.42188 4.71094C3.16247 3.08029 4.40466 2.04123 6.14844 1.59375C7.01811 1.37917 7.89308 1.24636 8.77344 1.19531ZM8.72656 2.74219C11.2266 2.73437 13.7266 2.74219 16.2266 2.76563C17.4007 2.76913 18.5101 3.03475 19.5547 3.5625C20.4755 4.14085 21.0771 4.96116 21.3594 6.02344C21.4986 6.53072 21.5923 7.04634 21.6406 7.57031C21.7158 10.2727 21.7314 12.9759 21.6875 15.6797C21.6672 16.6454 21.4953 17.5829 21.1719 18.4922C20.6369 19.7143 19.7228 20.5034 18.4297 20.8594C17.9226 20.9986 17.407 21.0923 16.8828 21.1406C14.1648 21.216 11.446 21.2316 8.72656 21.1875C7.77697 21.162 6.85508 20.9901 5.96094 20.6719C4.73884 20.1369 3.94978 19.2228 3.59375 17.9297C3.39289 17.1932 3.28351 16.4432 3.26563 15.6797C3.23437 13.2109 3.23437 10.7422 3.26563 8.27344C3.26346 6.98512 3.57595 5.78198 4.20313 4.66406C4.78532 3.86827 5.55875 3.34483 6.52344 3.09375C7.25323 2.90436 7.98762 2.78717 8.72656 2.74219Z" fill="#73D264"/>
<path opacity="0.959" fill-rule="evenodd" clip-rule="evenodd" d="M16.5079 8.36719C17.3542 8.3775 17.6433 8.78377 17.3751 9.58594C15.3973 11.5794 13.4051 13.556 11.3985 15.5156C11.1021 15.6251 10.8208 15.5938 10.5548 15.4219C9.57824 14.4453 8.60164 13.4687 7.6251 12.4922C7.38946 12.1071 7.41289 11.7398 7.69541 11.3906C8.01402 11.1941 8.34214 11.1785 8.67979 11.3437C9.46883 12.1328 10.2579 12.9219 11.047 13.7109C12.7735 11.9844 14.5001 10.2578 16.2267 8.53125C16.3172 8.46286 16.411 8.4082 16.5079 8.36719Z" fill="#73D264"/>
</svg>
