<svg width="25" height="24" viewBox="0 0 25 24" fill="none" xmlns="http://www.w3.org/2000/svg">
<path opacity="0.963" fill-rule="evenodd" clip-rule="evenodd" d="M12.008 1.80466C13.0811 1.7095 14.0342 1.99856 14.8674 2.67185C15.5653 3.27541 16.12 3.98635 16.5315 4.80466C18.6215 8.56277 20.6996 12.3284 22.7658 16.1015C23.2717 17.1731 23.381 18.2824 23.094 19.4297C22.6096 20.7577 21.6798 21.5936 20.3049 21.9375C19.9667 22.0303 19.623 22.0928 19.2737 22.125C14.7424 22.1562 10.2112 22.1562 5.6799 22.125C4.45846 22.0336 3.4194 21.557 2.56272 20.6953C1.76264 19.6641 1.51264 18.5078 1.81272 17.2265C1.97721 16.5301 2.24284 15.8738 2.60959 15.2578C4.55898 11.781 6.49647 8.29662 8.42209 4.80466C8.91362 3.79728 9.62457 2.97697 10.5549 2.34373C11.0158 2.08352 11.5002 1.90383 12.008 1.80466ZM12.1487 3.35154C12.8006 3.30067 13.3787 3.48036 13.883 3.8906C14.4364 4.39655 14.8817 4.98251 15.219 5.64841C17.2934 9.37526 19.3559 13.1096 21.4065 16.8515C22.1688 18.9445 21.4579 20.1866 19.2737 20.5781C14.7424 20.6094 10.2112 20.6094 5.6799 20.5781C3.5364 20.1901 2.82546 18.9636 3.54709 16.8984C4.87894 14.4378 6.22267 11.9846 7.57834 9.53904C8.47647 7.89884 9.39836 6.27382 10.344 4.66404C10.807 4.02364 11.4085 3.58614 12.1487 3.35154Z" fill="#FCCA13"/>
<path opacity="0.987" fill-rule="evenodd" clip-rule="evenodd" d="M12.1953 8.22654C12.6575 8.12576 12.9935 8.28199 13.2031 8.69529C13.2344 10.5547 13.2344 12.414 13.2031 14.2734C12.8515 14.8026 12.414 14.8807 11.8906 14.5078C11.8438 14.4296 11.7969 14.3516 11.75 14.2734C11.7187 12.414 11.7187 10.5547 11.75 8.69529C11.8448 8.48341 11.9932 8.32718 12.1953 8.22654Z" fill="#FCCA13"/>
<path opacity="0.948" fill-rule="evenodd" clip-rule="evenodd" d="M12.1951 15.9609C13.2482 15.9434 13.6466 16.4434 13.3904 17.4609C12.9877 18.0098 12.48 18.127 11.867 17.8125C11.3959 17.3799 11.3256 16.8877 11.656 16.3359C11.8192 16.1794 11.9989 16.0544 12.1951 15.9609Z" fill="#FCCA13"/>
</svg>
