<svg width="18" height="18" viewBox="0 0 18 18" fill="none" xmlns="http://www.w3.org/2000/svg">
<g clip-path="url(#clip0_767_13456)">
<path opacity="0.964" fill-rule="evenodd" clip-rule="evenodd" d="M16.3653 0.89653C16.7844 0.882886 17.0187 1.08211 17.0684 1.49419C17.0519 1.61985 17.0109 1.73703 16.9453 1.84575C11.9121 6.87896 6.87895 11.9121 1.84573 16.9454C1.46997 17.1558 1.17114 17.0797 0.94925 16.7168C0.870433 16.5067 0.893872 16.3074 1.01956 16.1192C1.87552 15.2691 2.72513 14.4136 3.56839 13.5528C2.84426 12.8816 2.21731 12.1316 1.68753 11.3028C1.10417 10.2695 0.928384 9.16795 1.16019 7.99809C1.25805 7.52127 1.43383 7.07594 1.68753 6.66216C2.59895 5.25854 3.76495 4.11596 5.18558 3.23442C7.74604 1.84291 10.3007 1.85463 12.8496 3.26958C13.0547 3.40434 13.2598 3.53912 13.4649 3.67387C14.3497 2.78911 15.2344 1.90434 16.1192 1.01958C16.2044 0.976946 16.2865 0.93593 16.3653 0.89653ZM8.56058 3.35747C10.0398 3.296 11.3875 3.6827 12.6035 4.51762C12.0357 5.10308 11.4615 5.68316 10.8809 6.25786C10.8457 6.28131 10.8106 6.28131 10.7754 6.25786C9.64947 5.57379 8.50102 5.53863 7.33011 6.15239C6.10171 6.95124 5.58024 8.08212 5.76566 9.54497C5.84043 9.99219 6.00451 10.4023 6.25784 10.7754C6.28129 10.8106 6.28129 10.8457 6.25784 10.8809C5.64799 11.4966 5.03275 12.106 4.41214 12.709C3.58467 11.9931 2.92256 11.1494 2.42581 10.1778C2.02934 8.97987 2.20513 7.87832 2.95316 6.87309C3.72997 5.79144 4.68506 4.90666 5.81839 4.2188C6.67814 3.74267 7.5922 3.45556 8.56058 3.35747ZM8.77152 6.87309C9.17666 6.85857 9.56337 6.93476 9.93167 7.10161C9.96511 7.12685 9.97094 7.15614 9.94925 7.1895C9.02932 8.10943 8.10942 9.02933 7.18948 9.94926C7.16603 9.97271 7.14262 9.97271 7.11917 9.94926C6.7333 9.11768 6.82119 8.33837 7.38284 7.61137C7.76671 7.21147 8.22962 6.96538 8.77152 6.87309Z" fill="#9E9FA8"/>
<path opacity="0.962" fill-rule="evenodd" clip-rule="evenodd" d="M14.8184 5.36129C15.1374 5.3069 15.3893 5.41237 15.5742 5.6777C15.8086 6.00581 16.043 6.33396 16.2774 6.66207C16.8607 7.69535 17.0365 8.7969 16.8047 9.96676C16.7068 10.4436 16.5311 10.8889 16.2774 11.3027C15.2735 12.8692 13.9552 14.0938 12.3223 14.9765C10.2218 15.9755 8.10073 16.0223 5.95901 15.1171C5.64629 14.8109 5.63455 14.4945 5.92385 14.1679C6.07464 14.0668 6.23871 14.0316 6.41604 14.0625C8.5829 14.9376 10.6454 14.7383 12.6035 13.4648C13.7054 12.6911 14.6137 11.736 15.3281 10.5996C15.7692 9.73195 15.8512 8.82963 15.5742 7.89254C15.3137 7.31257 14.9739 6.78522 14.5547 6.31051C14.3423 5.90579 14.4302 5.58938 14.8184 5.36129Z" fill="#9E9FA8"/>
<path opacity="0.955" fill-rule="evenodd" clip-rule="evenodd" d="M11.4434 8.94722C12.0979 8.94146 12.3264 9.25786 12.1289 9.89644C11.7996 10.925 11.1375 11.6457 10.1426 12.0585C9.83186 12.2078 9.51545 12.2313 9.19335 12.1289C8.83423 11.8113 8.82249 11.4832 9.1582 11.1445C10.2417 10.9047 10.9038 10.2426 11.1445 9.15816C11.2262 9.05638 11.3258 8.98607 11.4434 8.94722Z" fill="#9E9FA8"/>
</g>
<defs>
<clipPath id="clip0_767_13456">
<rect width="18" height="18" fill="white"/>
</clipPath>
</defs>
</svg>
