<svg width="18" height="18" viewBox="0 0 18 18" fill="none" xmlns="http://www.w3.org/2000/svg">
<path opacity="0.963" fill-rule="evenodd" clip-rule="evenodd" d="M8.52539 2.19725C10.4441 2.13964 12.1668 2.68456 13.6934 3.83201C14.7793 4.67147 15.6758 5.67343 16.3828 6.83787C16.8776 7.83114 17.0182 8.87409 16.8047 9.96678C16.6499 10.6747 16.3452 11.3075 15.8906 11.8652C14.8572 13.3092 13.5388 14.4049 11.9355 15.1523C8.91959 16.2741 6.18911 15.7936 3.74414 13.7109C2.76677 12.8513 1.97576 11.8494 1.37109 10.7051C0.786336 9.05792 1.00899 7.53449 2.03906 6.13475C2.99022 4.7967 4.1914 3.74785 5.64258 2.98826C6.5597 2.54814 7.52066 2.28447 8.52539 2.19725ZM8.56054 3.3574C10.1256 3.30689 11.5436 3.73463 12.8145 4.64061C13.9254 5.45243 14.8161 6.45439 15.4863 7.64646C15.7646 8.40658 15.8056 9.18002 15.6094 9.96678C15.5488 10.1465 15.4785 10.3223 15.3984 10.4941C14.4506 12.0632 13.1556 13.2526 11.5137 14.0625C9.25857 14.9678 7.13745 14.7217 5.15039 13.3242C4.05204 12.5192 3.16727 11.5289 2.49609 10.3535C2.23269 9.68314 2.16238 8.99172 2.28515 8.27928C2.34398 7.99732 2.43773 7.72778 2.5664 7.47068C3.5143 5.90162 4.80923 4.71218 6.45117 3.90232C7.1307 3.61081 7.83383 3.42917 8.56054 3.3574Z" fill="#9E9FA8"/>
<path opacity="0.963" fill-rule="evenodd" clip-rule="evenodd" d="M8.70116 5.71277C10.4203 5.69273 11.5628 6.48962 12.1289 8.1034C12.4694 9.68451 11.9713 10.9209 10.6348 11.8124C9.29246 12.4883 8.02683 12.3711 6.83788 11.4608C5.82317 10.4902 5.50089 9.32416 5.87109 7.96277C6.37502 6.65573 7.3184 5.90571 8.70116 5.71277ZM8.77148 6.87293C7.61136 7.09578 6.97854 7.79891 6.87304 8.9823C7.00196 10.2596 7.70508 10.9628 8.98241 11.0917C10.2597 10.9628 10.9629 10.2596 11.0918 8.9823C10.9331 7.60488 10.1596 6.90176 8.77148 6.87293Z" fill="#9E9FA8"/>
</svg>
