<svg width="16" height="17" viewBox="0 0 16 17" fill="none" xmlns="http://www.w3.org/2000/svg">
<path fill-rule="evenodd" clip-rule="evenodd" d="M12.3104 4.01089C12.5129 4.21338 12.5129 4.54169 12.3104 4.74419L8.64394 8.41066L12.3104 12.0771C12.5129 12.2796 12.5129 12.6079 12.3104 12.8104C12.1079 13.0129 11.7796 13.0129 11.5771 12.8104L7.91064 9.14396L4.24417 12.8104C4.04167 13.0129 3.71336 13.0129 3.51087 12.8104C3.30837 12.6079 3.30837 12.2796 3.51087 12.0771L7.17735 8.41066L3.51087 4.74419C3.30838 4.54169 3.30838 4.21338 3.51087 4.01089C3.71336 3.8084 4.04167 3.8084 4.24417 4.01089L7.91064 7.67737L11.5771 4.01089C11.7796 3.8084 12.1079 3.8084 12.3104 4.01089Z" fill="#9E9FA8"/>
</svg>
