<svg width="12" height="12" viewBox="0 0 12 12" fill="none" xmlns="http://www.w3.org/2000/svg">
<g clip-path="url(#clip0_371_4383)">
<path opacity="0.992" fill-rule="evenodd" clip-rule="evenodd" d="M5.56637 0.480434C7.80742 0.407421 9.53007 1.30586 10.7343 3.17575C11.6182 4.76059 11.7354 6.40122 11.0859 8.09762C10.3569 9.74547 9.12641 10.8197 7.3945 11.3203C5.22693 11.8007 3.37928 11.2422 1.85153 9.6445C0.595015 8.12823 0.204391 6.40947 0.679653 4.48825C1.19189 2.79632 2.25829 1.5971 3.87887 0.89059C4.4248 0.672052 4.9873 0.535334 5.56637 0.480434ZM7.88668 4.25387C8.23253 4.24044 8.42783 4.4045 8.47262 4.74606C8.4665 4.83864 8.43915 4.92458 8.39059 5.00387C7.51949 5.90622 6.63278 6.79293 5.73043 7.66403C5.55411 7.74772 5.38222 7.73989 5.21481 7.64059C4.67183 7.09761 4.12888 6.55466 3.5859 6.01168C3.44952 5.76097 3.48468 5.53832 3.69137 5.34372C3.85344 5.22559 4.02533 5.20996 4.207 5.29684C4.63993 5.70632 5.0657 6.1243 5.48434 6.55075C6.20699 5.8281 6.92966 5.10543 7.65231 4.38278C7.72888 4.33286 7.807 4.28989 7.88668 4.25387Z" fill="#73D264"/>
</g>
<defs>
<clipPath id="clip0_371_4383">
<rect width="12" height="12" fill="white"/>
</clipPath>
</defs>
</svg>
