<svg width="12" height="12" viewBox="0 0 12 12" fill="none" xmlns="http://www.w3.org/2000/svg">
<g clip-path="url(#clip0_371_4332)">
<path opacity="0.991" fill-rule="evenodd" clip-rule="evenodd" d="M5.56637 0.480472C7.80742 0.40746 9.53007 1.3059 10.7343 3.17578C11.6182 4.76063 11.7354 6.40125 11.0859 8.09766C10.3569 9.7455 9.12641 10.8197 7.3945 11.3203C5.22693 11.8008 3.37928 11.2422 1.85153 9.64454C0.595015 8.12827 0.204391 6.4095 0.679653 4.48828C1.19189 2.79635 2.25829 1.59714 3.87887 0.890628C4.4248 0.67209 4.9873 0.535372 5.56637 0.480472ZM4.18356 3.71485C4.31204 3.72771 4.42923 3.7707 4.53512 3.84375C5.01592 4.32846 5.50028 4.80893 5.98825 5.28516C6.49248 4.78482 7.0003 4.28871 7.51168 3.79688C7.83341 3.65871 8.07168 3.74857 8.22653 4.06641C8.26189 4.23736 8.23065 4.3936 8.13278 4.53516C7.64807 5.01596 7.1676 5.50032 6.69137 5.98828C7.19171 6.49252 7.68782 7.00034 8.17965 7.51172C8.3192 7.92017 8.17857 8.17018 7.75778 8.26172C7.64314 8.24173 7.53768 8.19877 7.44137 8.13282C6.96057 7.6481 6.47621 7.16764 5.98825 6.69141C5.50028 7.16764 5.01592 7.6481 4.53512 8.13282C4.21478 8.3135 3.96088 8.24707 3.7734 7.9336C3.70916 7.74441 3.7404 7.57252 3.86715 7.41797C4.34404 6.945 4.8167 6.46843 5.28512 5.98828C4.80889 5.50032 4.32843 5.01596 3.84371 4.53516C3.68087 4.27404 3.70822 4.03575 3.92575 3.82032C4.00902 3.7706 4.09496 3.73545 4.18356 3.71485Z" fill="#9E9FA8"/>
</g>
<defs>
<clipPath id="clip0_371_4332">
<rect width="12" height="12" fill="white"/>
</clipPath>
</defs>
</svg>
