<svg width="12" height="12" viewBox="0 0 12 12" fill="none" xmlns="http://www.w3.org/2000/svg">
<g clip-path="url(#clip0_371_4386)">
<path opacity="0.991" fill-rule="evenodd" clip-rule="evenodd" d="M5.56637 0.480434C7.80742 0.407421 9.53007 1.30586 10.7343 3.17575C11.6182 4.76059 11.7354 6.40122 11.0859 8.09762C10.3569 9.74547 9.12641 10.8197 7.3945 11.3203C5.22693 11.8007 3.37928 11.2422 1.85153 9.6445C0.595015 8.12823 0.204391 6.40947 0.679653 4.48825C1.19189 2.79632 2.25829 1.5971 3.87887 0.89059C4.4248 0.672052 4.9873 0.535334 5.56637 0.480434ZM4.18356 3.71481C4.31204 3.72768 4.42923 3.77066 4.53512 3.84372C5.01592 4.32843 5.50028 4.8089 5.98825 5.28512C6.49248 4.78478 7.0003 4.28868 7.51168 3.79684C7.83341 3.65868 8.07168 3.74854 8.22653 4.06637C8.26189 4.23732 8.23065 4.39356 8.13278 4.53512C7.64807 5.01592 7.1676 5.50028 6.69137 5.98825C7.19171 6.49248 7.68782 7.0003 8.17965 7.51168C8.3192 7.92013 8.17857 8.17014 7.75778 8.26168C7.64314 8.24169 7.53768 8.19873 7.44137 8.13278C6.96057 7.64807 6.47621 7.1676 5.98825 6.69137C5.50028 7.1676 5.01592 7.64807 4.53512 8.13278C4.21478 8.31346 3.96088 8.24704 3.7734 7.93356C3.70916 7.74437 3.7404 7.57248 3.86715 7.41793C4.34404 6.94497 4.8167 6.46839 5.28512 5.98825C4.80889 5.50028 4.32843 5.01592 3.84371 4.53512C3.68087 4.274 3.70822 4.03572 3.92575 3.82028C4.00902 3.77057 4.09496 3.73541 4.18356 3.71481Z" fill="#F86E6E"/>
</g>
<defs>
<clipPath id="clip0_371_4386">
<rect width="12" height="12" fill="white"/>
</clipPath>
</defs>
</svg>
