<svg width="24" height="24" viewBox="0 0 24 24" fill="none" xmlns="http://www.w3.org/2000/svg">
<g clip-path="url(#clip0_371_5810)">
<path opacity="0.981" fill-rule="evenodd" clip-rule="evenodd" d="M23.9766 4.42969C23.9766 4.66406 23.9766 4.89844 23.9766 5.13281C23.8134 5.52253 23.5321 5.79595 23.1328 5.95313C17.6953 5.98439 12.2578 5.98439 6.82035 5.95313C6.12411 5.67806 5.85064 5.17022 6.00003 4.42969C6.15139 3.92795 6.48735 3.63889 7.00785 3.5625C12.3203 3.53125 17.6329 3.53125 22.9453 3.5625C23.4697 3.64398 23.8135 3.93305 23.9766 4.42969Z" fill="white"/>
<path opacity="0.982" fill-rule="evenodd" clip-rule="evenodd" d="M23.9766 11.6484C23.9766 11.8672 23.9766 12.0859 23.9766 12.3047C23.8238 12.762 23.5113 13.051 23.0391 13.1719C15.6641 13.2032 8.28905 13.2032 0.914062 13.1719C0.441811 13.051 0.129311 12.762 -0.0234375 12.3047C-0.0234375 12.0859 -0.0234375 11.8672 -0.0234375 11.6484C0.129311 11.1911 0.441811 10.9021 0.914062 10.7813C8.28905 10.75 15.6641 10.75 23.0391 10.7813C23.5113 10.9021 23.8238 11.1911 23.9766 11.6484Z" fill="white"/>
<path opacity="0.98" fill-rule="evenodd" clip-rule="evenodd" d="M23.9766 18.8203C23.9766 19.0547 23.9766 19.2891 23.9766 19.5234C23.7962 19.9978 23.4524 20.2869 22.9454 20.3906C19.2422 20.4219 15.5391 20.4219 11.836 20.3906C10.9567 20.1718 10.6208 19.6172 10.8282 18.7266C10.9841 18.3519 11.2575 18.1097 11.6485 18C15.4766 17.9687 19.3047 17.9687 23.1329 18C23.5322 18.1572 23.8134 18.4306 23.9766 18.8203Z" fill="white"/>
</g>
<defs>
<clipPath id="clip0_371_5810">
<rect width="24" height="24" fill="white"/>
</clipPath>
</defs>
</svg>
