<svg width="40" height="34" viewBox="0 0 40 34" fill="none" xmlns="http://www.w3.org/2000/svg">
<path d="M28.9691 8.54275e-05L8.05308 0.0651836C7.24072 0.0677119 6.7702 0.986548 7.24299 1.64717L11.2978 7.3129L24.077 7.27226C26.5473 7.26548 28.2022 8.94211 27.7703 11.015C27.3384 13.0913 24.9852 14.7781 22.5109 14.7883L4.97328 14.8432C4.16092 14.8457 3.69043 15.7646 4.16321 16.4252L8.21808 22.091L24.3757 22.0402C31.625 22.0164 38.5272 17.0645 39.7947 10.9778C41.0661 4.8911 36.2184 -0.0236245 28.9691 8.54275e-05Z" fill="white"/>
<path d="M5.1706 34L17.9457 33.9594L19.4715 26.6398L1.92644 26.6947C1.11629 26.6972 0.645265 27.6116 1.11356 28.2727L5.1706 34Z" fill="white"/>
<path d="M28.9691 8.54275e-05L14.2121 0.0475053C13.7399 2.15769 13.4573 4.71498 13.8731 7.30613L24.077 7.27226C26.5473 7.26548 28.2022 8.94211 27.7703 11.015C27.3384 13.0913 24.9852 14.7781 22.5109 14.7883L17.7601 14.8019C20.4645 17.4032 24.7955 19.4863 31.5403 20.4076C35.718 18.46 38.9632 14.9611 39.7947 10.9744C41.0662 4.89111 36.2184 -0.0236245 28.9691 8.54275e-05Z" fill="white"/>
<path d="M28.9691 8.54275e-05L26.0346 0.0102468C26.3696 5.25014 29.2112 10.9642 38.8662 13.6197C39.2901 12.773 39.6089 11.8889 39.7986 10.9812C41.0661 4.89111 36.2184 -0.0236245 28.9691 8.54275e-05Z" fill="white"/>
<path d="M7.00719 26.6804C10.2121 31.9745 17.9457 33.9594 17.9457 33.9594L19.4715 26.6398L7.00719 26.6804Z" fill="white"/>
</svg>
