<svg width="32" height="32" viewBox="0 0 32 32" fill="none" xmlns="http://www.w3.org/2000/svg">
<path opacity="0.967" fill-rule="evenodd" clip-rule="evenodd" d="M11.0313 1.59375C14.323 1.58333 17.6146 1.59375 20.9063 1.625C22.8938 1.63231 24.7688 2.09064 26.5313 3C28.2105 4.07376 29.3043 5.58417 29.8125 7.53125C30.0258 8.35256 30.1716 9.18588 30.25 10.0313C30.3187 12.0095 30.3499 13.9886 30.3438 15.9688C30.3499 17.9489 30.3187 19.928 30.25 21.9063C30.1429 23.5431 29.7054 25.0848 28.9375 26.5313C27.8638 28.2105 26.3533 29.3043 24.4063 29.8125C23.5848 30.0258 22.7515 30.1716 21.9063 30.25C19.928 30.3187 17.9489 30.3499 15.9688 30.3438C13.9886 30.3499 12.0095 30.3187 10.0313 30.25C8.39425 30.1429 6.85256 29.7054 5.40625 28.9375C3.49521 27.6923 2.33896 25.9318 1.9375 23.6563C1.75918 22.7481 1.65502 21.8314 1.625 20.9063C1.58333 17.6146 1.58333 14.3229 1.625 11.0313C1.6553 9.39094 1.9678 7.80763 2.5625 6.28125C3.54996 4.10706 5.20621 2.72164 7.53125 2.125C8.69081 1.83889 9.85744 1.66181 11.0313 1.59375ZM10.9688 3.65625C14.3021 3.64583 17.6355 3.65625 20.9688 3.6875C22.5343 3.69218 24.0134 4.04634 25.4063 4.75C26.6341 5.52114 27.4361 6.61488 27.8125 8.03125C27.9981 8.70763 28.1231 9.39513 28.1875 10.0938C28.2877 13.697 28.3086 17.3012 28.25 20.9063C28.2229 22.1939 27.9938 23.4439 27.5625 24.6563C26.8492 26.2857 25.6304 27.3378 23.9063 27.8125C23.2302 27.9981 22.5427 28.1231 21.8438 28.1875C18.2197 28.288 14.5947 28.3089 10.9688 28.25C9.70263 28.2161 8.47344 27.9869 7.28125 27.5625C5.65179 26.8492 4.59971 25.6304 4.125 23.9063C3.85718 22.9243 3.71135 21.9243 3.6875 20.9063C3.64583 17.6146 3.64583 14.3229 3.6875 11.0313C3.68461 9.3135 4.10127 7.70931 4.9375 6.21875C5.71376 5.15769 6.745 4.45978 8.03125 4.125C9.00431 3.87248 9.9835 3.71623 10.9688 3.65625Z" fill="white"/>
<path opacity="0.976" fill-rule="evenodd" clip-rule="evenodd" d="M20.0938 6.2812C22.1072 6.16144 23.4718 7.03645 24.1875 8.9062C24.2426 9.11176 24.2843 9.32014 24.3125 9.5312C24.3738 13.9498 24.353 18.3665 24.25 22.7812C23.6189 24.8214 22.2335 25.7693 20.0938 25.625C18.41 25.3161 17.3787 24.3266 17 22.6562C16.9583 18.1979 16.9583 13.7395 17 9.2812C17.3898 7.61007 18.421 6.61007 20.0938 6.2812ZM20.2813 8.3437C19.5133 8.60564 19.0862 9.14726 19 9.9687C18.9583 13.9687 18.9583 17.9687 19 21.9687C19.051 22.7066 19.4156 23.2171 20.0938 23.5C21.217 23.7515 21.9357 23.3244 22.25 22.2187C22.2917 18.052 22.2917 13.8854 22.25 9.7187C21.9693 8.72895 21.3131 8.27064 20.2813 8.3437Z" fill="white"/>
<path opacity="0.971" fill-rule="evenodd" clip-rule="evenodd" d="M10.9063 13.5938C13.0191 13.5711 14.3629 14.5711 14.9375 16.5938C14.9792 18.6146 14.9792 20.6354 14.9375 22.6563C14.6337 24.0879 13.79 25.0358 12.4063 25.5C10.5473 25.9433 9.09939 25.3703 8.06252 23.7813C7.82889 23.3511 7.68302 22.8928 7.62502 22.4063C7.58333 20.5729 7.58333 18.7396 7.62502 16.9063C7.93827 15.0201 9.03202 13.9159 10.9063 13.5938ZM11.0938 15.6563C10.468 15.8128 10.0201 16.1878 9.75002 16.7813C9.64839 18.5913 9.62758 20.4038 9.68752 22.2188C9.80708 22.8589 10.1716 23.2859 10.7813 23.5C11.7887 23.7203 12.4866 23.3557 12.875 22.4063C12.9752 20.7207 12.996 19.0332 12.9375 17.3438C12.8121 16.2497 12.1975 15.6872 11.0938 15.6563Z" fill="white"/>
</svg>
