<svg width="32" height="32" viewBox="0 0 32 32" fill="none" xmlns="http://www.w3.org/2000/svg">
<path opacity="0.962" fill-rule="evenodd" clip-rule="evenodd" d="M15.0938 1.78124C16.1487 1.68077 17.1695 1.81619 18.1563 2.18749C20.6979 3.64582 23.2396 5.10416 25.7813 6.56249C26.3438 6.9583 26.9063 7.35417 27.4688 7.74999C28.5587 8.56561 29.0691 9.65936 29 11.0312C29.0417 14.3229 29.0417 17.6145 29 20.9062C29.0692 22.278 28.5588 23.3717 27.4688 24.1875C26.9063 24.5833 26.3438 24.9792 25.7813 25.375C23.3646 26.7708 20.9479 28.1667 18.5313 29.5625C16.9258 30.3047 15.3008 30.3464 13.6563 29.6875C10.9585 28.1407 8.271 26.5782 5.59375 25C5.09375 24.625 4.59375 24.25 4.09375 23.875C3.23863 23.0515 2.85322 22.0411 2.9375 20.8437C2.89583 17.5729 2.89583 14.302 2.9375 11.0312C2.85394 9.78042 3.28102 8.74917 4.21875 7.93749C4.81186 7.48467 5.41603 7.04717 6.03125 6.62499C8.65625 5.12499 11.2813 3.62499 13.9063 2.12499C14.3022 1.9819 14.6981 1.86732 15.0938 1.78124ZM15.3438 3.84374C15.9365 3.80872 16.5198 3.86081 17.0938 3.99999C19.8953 5.5568 22.6661 7.16099 25.4063 8.81249C25.7891 9.09099 26.1536 9.39305 26.5 9.71874C26.6931 9.98011 26.8181 10.2718 26.875 10.5937C26.9997 14.177 26.9997 17.7604 26.875 21.3437C26.8181 21.6657 26.6931 21.9574 26.5 22.2187C25.9836 22.6936 25.4316 23.1207 24.8438 23.5C22.4688 24.875 20.0938 26.25 17.7188 27.625C16.6039 28.224 15.4789 28.2448 14.3438 27.6875C12.0414 26.3384 9.72894 25.005 7.40625 23.6875C6.83281 23.307 6.27031 22.9112 5.71875 22.5C5.36266 22.1942 5.14391 21.8088 5.0625 21.3437C5.02083 17.7604 5.02083 14.177 5.0625 10.5937C5.11369 10.3037 5.21785 10.0328 5.375 9.78124C6.00169 9.20242 6.67875 8.69205 7.40625 8.24999C9.68731 6.9533 11.9581 5.64077 14.2188 4.31249C14.5794 4.10029 14.9544 3.94404 15.3438 3.84374Z" fill="white"/>
<path opacity="0.965" fill-rule="evenodd" clip-rule="evenodd" d="M15.1563 10.9688C17.6915 10.7513 19.5145 11.7722 20.6251 14.0313C21.4594 16.5903 20.8031 18.6633 18.6563 20.2501C17.1719 21.062 15.6302 21.187 14.0313 20.6251C11.6471 19.43 10.6576 17.5029 11.0626 14.8438C11.4891 13.1885 12.4787 12.0115 14.0313 11.3126C14.4083 11.1771 14.7833 11.0625 15.1563 10.9688ZM15.4063 13.0313C13.6956 13.5665 12.9143 14.7332 13.0626 16.5313C13.5785 18.2549 14.7347 19.0361 16.5313 18.8751C18.2549 18.3592 19.0361 17.203 18.8751 15.4063C18.3571 13.6915 17.2009 12.8998 15.4063 13.0313Z" fill="white"/>
</svg>
