<svg width="32" height="32" viewBox="0 0 32 32" fill="none" xmlns="http://www.w3.org/2000/svg">
<path opacity="0.967" fill-rule="evenodd" clip-rule="evenodd" d="M10.9688 1.59375C14.2605 1.58333 17.5521 1.59375 20.8438 1.625C22.9686 1.61136 24.9477 2.13219 26.7812 3.1875C28.4073 4.35803 29.4386 5.93095 29.875 7.90625C30.07 8.77119 30.195 9.64619 30.25 10.5313C30.3096 14.4073 30.2888 18.2823 30.1875 22.1563C29.7078 27.2192 26.9266 29.9171 21.8438 30.25C19.8759 30.3187 17.9072 30.3499 15.9375 30.3438C13.947 30.3496 11.9574 30.3184 9.96875 30.25C4.69752 29.812 1.91627 26.9474 1.625 21.6563C1.58333 17.8646 1.58333 14.0729 1.625 10.2813C1.69858 8.44475 2.19858 6.73644 3.125 5.15625C4.25509 3.54328 5.78634 2.51203 7.71875 2.0625C8.79831 1.81454 9.88163 1.65829 10.9688 1.59375ZM10.9688 3.65625C14.5739 3.62896 18.1781 3.66021 21.7812 3.75C23.2868 3.83519 24.6618 4.29352 25.9062 5.125C26.9936 6.07981 27.6706 7.27775 27.9375 8.71875C28.0617 9.35938 28.1451 10.0053 28.1875 10.6563C28.2187 12.9686 28.2292 15.2811 28.2187 17.5938C26.5897 17.6233 24.9647 17.5921 23.3438 17.5C22.9846 17.3279 22.6826 17.0884 22.4375 16.7813C21.9068 15.7196 21.3443 14.678 20.75 13.6563C19.9931 12.8878 19.2014 12.8462 18.375 13.5313C18.1976 13.7608 18.0518 14.0108 17.9375 14.2813C17.0417 16.5521 16.1458 18.8229 15.25 21.0938C14.75 19.9271 14.25 18.7604 13.75 17.5938C13.0843 16.6509 12.178 16.078 11.0313 15.875C8.573 15.8438 6.11467 15.8333 3.65625 15.8438C3.62981 13.8214 3.66106 11.8006 3.75 9.78125C3.8817 8.302 4.3817 6.96863 5.25 5.78125C6.22706 4.79781 7.40413 4.18322 8.78125 3.9375C9.51594 3.81321 10.2451 3.71946 10.9688 3.65625ZM19.5312 15.8438C20.0034 16.6834 20.493 17.5168 21 18.3438C21.6251 19.0054 22.3854 19.4325 23.2812 19.625C24.9269 19.6563 26.5728 19.6667 28.2187 19.6563C28.2961 21.3708 28.0566 23.0374 27.5 24.6563C26.7867 26.2857 25.5679 27.3378 23.8438 27.8125C22.8601 28.0691 21.8601 28.2149 20.8438 28.25C17.5521 28.2917 14.2604 28.2917 10.9688 28.25C9.35725 28.232 7.83638 27.857 6.40625 27.125C5.43355 26.4853 4.73563 25.6207 4.3125 24.5313C3.96023 23.5616 3.7519 22.5616 3.6875 21.5313C3.65625 20.3231 3.64584 19.1148 3.65625 17.9063C6.05218 17.8958 8.448 17.9063 10.8438 17.9375C11.464 18.1201 11.9119 18.5055 12.1875 19.0938C12.7312 20.5795 13.3354 22.0378 14 23.4688C15.1137 24.4281 16.0304 24.2614 16.75 22.9688C17.6836 20.5948 18.6107 18.2198 19.5312 15.8438Z" fill="white"/>
</svg>
