<svg width="32" height="32" viewBox="0 0 32 32" fill="none" xmlns="http://www.w3.org/2000/svg">
<path opacity="0.968" fill-rule="evenodd" clip-rule="evenodd" d="M7.03126 2.71875C9.90632 2.70833 12.7813 2.71875 15.6563 2.75C17.9073 2.91038 19.5428 3.9833 20.5625 5.96875C20.7258 6.351 20.8403 6.74681 20.9063 7.15625C23.4713 7.08963 25.4401 8.13125 26.8125 10.2813C27.5136 11.5681 27.7949 12.9431 27.6563 14.4063C29.1001 14.3826 29.9855 15.0701 30.3125 16.4688C30.3542 17.5938 30.3542 18.7188 30.3125 19.8438C29.9997 21.2713 29.1143 21.9588 27.6563 21.9063C27.8685 24.5538 26.9101 26.6475 24.7813 28.1875C23.8293 28.7965 22.7876 29.1298 21.6563 29.1875C16.9688 29.2292 12.2813 29.2292 7.59376 29.1875C5.0627 28.9386 3.23979 27.6782 2.12501 25.4063C1.85037 24.7452 1.68371 24.0577 1.62501 23.3438C1.56388 18.1131 1.58472 12.8839 1.68751 7.65625C2.34238 4.78235 4.12364 3.13651 7.03126 2.71875ZM7.09376 4.78125C10.0539 4.75217 13.0123 4.78342 15.9688 4.875C17.3256 5.09773 18.2631 5.83731 18.7813 7.09375C14.9065 7.14581 11.0314 7.17706 7.15626 7.1875C5.82777 7.35713 4.67152 7.88838 3.68751 8.78125C3.73828 6.96006 4.60286 5.69968 6.28126 5C6.55745 4.91548 6.82826 4.84256 7.09376 4.78125ZM7.34376 9.21875C12.3252 9.18838 17.3044 9.21963 22.2813 9.3125C24.7005 10.1407 25.8046 11.8386 25.5938 14.4063C23.0947 14.4262 21.6989 15.6762 21.4063 18.1563C21.7014 20.6278 23.0972 21.8778 25.5938 21.9063C25.8216 24.0863 24.9883 25.7009 23.0938 26.75C22.7725 26.8918 22.4392 26.9959 22.0938 27.0625C17.2828 27.1652 12.4703 27.186 7.65626 27.125C5.82896 26.9197 4.57896 25.9614 3.90626 24.25C3.79871 23.9136 3.72579 23.5698 3.68751 23.2188C3.64584 19.8438 3.64584 16.4688 3.68751 13.0938C4.04308 10.978 5.26183 9.68631 7.34376 9.21875ZM24.8438 16.4688C25.9538 16.4392 27.058 16.4704 28.1563 16.5625C28.1954 16.6094 28.2266 16.6615 28.25 16.7188C28.2917 17.6979 28.2917 18.6771 28.25 19.6563C28.198 19.7083 28.1458 19.7604 28.0938 19.8125C27.0313 19.8542 25.9688 19.8542 24.9063 19.8125C23.5235 19.2884 23.1798 18.3822 23.875 17.0938C24.1583 16.8122 24.4813 16.6039 24.8438 16.4688Z" fill="white"/>
<path opacity="0.963" fill-rule="evenodd" clip-rule="evenodd" d="M9.15621 13.7813C11.9272 13.7708 14.698 13.7813 17.4687 13.8125C18.2747 14.0839 18.5143 14.6151 18.1875 15.4063C18.046 15.5896 17.8688 15.725 17.6562 15.8125C14.7604 15.8542 11.8645 15.8542 8.96871 15.8125C8.24309 15.4268 8.08684 14.8747 8.49996 14.1563C8.69177 13.9721 8.91052 13.8471 9.15621 13.7813Z" fill="white"/>
</svg>
