<svg width="32" height="32" viewBox="0 0 32 32" fill="none" xmlns="http://www.w3.org/2000/svg">
<path opacity="0.967" fill-rule="evenodd" clip-rule="evenodd" d="M12.1835 3C12.8612 3 13.5389 3 14.2166 3C15.8358 3.24445 17.2786 3.88845 18.5453 4.93199C19.2558 5.64148 19.9664 6.35097 20.6768 7.06046C20.9769 6.71688 21.3158 6.42217 21.6934 6.17632C22.0054 6.12329 22.3115 6.14512 22.6116 6.24182C23.65 7.27876 24.6885 8.31571 25.727 9.35265C25.9045 9.67074 25.9263 9.9982 25.7925 10.335C25.5215 10.6712 25.2263 10.9878 24.9071 11.2846C25.7289 12.0834 26.5268 12.902 27.301 13.7406C29.0594 16.1549 29.4529 18.7745 28.4816 21.5995C28.055 22.0907 27.5631 22.1671 27.0059 21.8287C24.8962 19.7221 22.7865 17.6155 20.6768 15.5088C16.228 19.9513 11.779 24.3938 7.33013 28.8363C6.95847 29.0546 6.58683 29.0546 6.21517 28.8363C5.10336 27.759 4.03213 26.6566 3.00146 25.529C3.00146 25.2888 3.00146 25.0487 3.00146 24.8086C7.44448 20.2737 11.9262 15.7657 16.4466 11.2846C14.3369 9.178 12.2272 7.07137 10.1175 4.96474C9.84148 4.41448 9.91795 3.9233 10.3471 3.49118C10.9507 3.26422 11.5629 3.10049 12.1835 3ZM13.0361 5.03023C14.6472 4.98823 16.0683 5.50125 17.2992 6.56927C17.9222 7.19144 18.5453 7.8136 19.1684 8.43577C19.2121 8.47943 19.2121 8.52309 19.1684 8.56675C18.7639 8.97062 18.3595 9.37448 17.955 9.77834C17.9113 9.82202 17.8676 9.82202 17.8239 9.77834C16.2366 8.18243 14.6407 6.59973 13.0361 5.03023ZM22.0214 8.56675C22.4891 9.00101 22.9482 9.44853 23.3987 9.90932C22.4914 10.8153 21.5841 11.7213 20.6768 12.6272C20.2287 12.1797 19.7805 11.7321 19.3323 11.2846C20.2419 10.3873 21.1382 9.48135 22.0214 8.56675ZM17.8239 12.7582C18.299 13.134 18.7471 13.5488 19.1684 14.0025C19.2121 14.0462 19.2121 14.0898 19.1684 14.1335C15.0365 18.2595 10.9046 22.3854 6.77265 26.5113C6.32448 26.0638 5.87631 25.6163 5.42814 25.1688C9.57325 21.0405 13.7051 16.9037 17.8239 12.7582ZM23.3987 12.7582C24.4296 13.6021 25.3368 14.5626 26.1205 15.6398C26.7129 16.6528 26.9972 17.7443 26.9731 18.9144C25.3772 17.3208 23.7812 15.7271 22.1853 14.1335C22.1416 14.0898 22.1416 14.0462 22.1853 14.0025C22.603 13.5963 23.0075 13.1816 23.3987 12.7582Z" fill="white"/>
</svg>
