<svg width="42" height="42" viewBox="0 0 42 42" fill="none" xmlns="http://www.w3.org/2000/svg">
<path fill-rule="evenodd" clip-rule="evenodd" d="M12.1922 33.1417C18.8978 38.0062 28.2773 36.5136 33.1418 29.8079C38.0062 23.1022 36.5136 13.7228 29.808 8.85832C23.1023 3.99385 13.7228 5.48644 8.85836 12.1921C3.99389 18.8978 5.48648 28.2772 12.1922 33.1417Z" fill="#F7931A"/>
<path fill-rule="evenodd" clip-rule="evenodd" d="M24.2263 15.5133C26.0984 16.1863 27.4542 17.1851 27.1336 19.0247C26.9012 20.3709 26.1469 21.0185 25.163 21.2407C26.4869 21.959 27.1412 23.0511 26.4399 24.9319C25.57 27.2678 23.6455 27.4524 21.1062 26.9456L20.4196 29.4593L18.9331 29.0709L19.6104 26.591C19.2251 26.4905 18.8315 26.3839 18.4257 26.2689L17.7459 28.7606L16.2611 28.3721L16.9473 25.8536C16.8196 25.8192 16.691 25.7842 16.5616 25.7488L16.5616 25.7488L16.5612 25.7487C16.3393 25.6881 16.1148 25.6269 15.8878 25.5672L13.9534 25.0616L14.7424 23.3292C14.7424 23.3292 15.8378 23.6339 15.8234 23.6119C16.2441 23.7212 16.4397 23.442 16.519 23.2557L18.3804 16.4349C18.4071 16.1125 18.3087 15.705 17.7065 15.5473C17.7305 15.5314 16.627 15.2658 16.627 15.2658L17.0685 13.6471L19.1183 14.1837L19.1166 14.1914C19.425 14.2719 19.7426 14.3482 20.0663 14.4257L20.7464 11.9362L22.2317 12.3246L21.5658 14.765C21.9652 14.8605 22.3664 14.957 22.7576 15.0592L23.4193 12.6349L24.9056 13.0234L24.2263 15.5133ZM23.5846 23.8658C24.0664 22.0997 21.4921 21.4932 20.237 21.1975L20.237 21.1975C20.097 21.1645 19.9734 21.1354 19.8724 21.109L18.9615 24.4452C19.0446 24.4669 19.1421 24.4938 19.2512 24.524C20.4639 24.8596 23.1137 25.5928 23.5846 23.8658ZM21.4219 16.6294C22.4699 16.8733 24.6153 17.3727 24.1773 18.9777C23.7488 20.5472 21.5438 19.9309 20.5329 19.6483C20.4411 19.6226 20.3591 19.5997 20.2892 19.5815L21.1149 16.5555C21.1998 16.5777 21.3039 16.6019 21.4219 16.6294Z" fill="white"/>
</svg>
