<svg width="200" height="171" viewBox="0 0 200 171" fill="none" xmlns="http://www.w3.org/2000/svg">
<path d="M144.846 0.00042965L32.5069 0.352124C31.6959 0.354663 31.2251 1.27096 31.6953 1.93185L56.4892 36.7796L120.385 36.5752C132.736 36.5411 141.011 44.9736 138.851 55.3992C136.692 65.8418 124.926 74.3254 112.554 74.3765L17.1081 74.677C16.297 74.6796 15.8262 75.5959 16.2965 76.2567L41.0904 111.105L121.879 110.849C158.125 110.73 192.636 85.8242 198.973 55.2118C205.331 24.5994 181.092 -0.118817 144.846 0.00042965Z" fill="white"/>
<path d="M25.853 171L89.7287 170.796L97.3575 133.982L1.91991 134.283C1.11103 134.285 0.639712 135.197 1.10545 135.859L25.853 171Z" fill="white"/>
<path d="M144.846 0.00042965L71.0607 0.238924C68.6994 10.8519 67.2867 23.7136 69.3654 36.7456L120.385 36.5752C132.736 36.5411 141.011 44.9736 138.851 55.3992C136.692 65.8418 124.926 74.3254 112.554 74.3765L88.8006 74.4447C102.322 87.5278 123.978 98.0045 157.702 102.638C178.59 92.8428 194.816 75.2453 198.974 55.1948C205.331 24.5994 181.092 -0.118817 144.846 0.00042965Z" fill="white"/>
<path d="M144.846 0.00042965L130.173 0.0515355C131.848 26.4051 146.056 55.1437 194.331 68.4993C196.45 64.2405 198.045 59.7943 198.993 55.2288C205.33 24.5994 181.092 -0.118817 144.846 0.00042965Z" fill="white"/>
<path d="M35.0359 134.187C51.0604 160.813 89.7287 170.796 89.7287 170.796L97.3575 133.982L35.0359 134.187Z" fill="white"/>
</svg>
