<svg width="48" height="48" viewBox="0 0 48 48" fill="none" xmlns="http://www.w3.org/2000/svg">
<g clip-path="url(#clip0_371_4587)">
<path opacity="0.996" fill-rule="evenodd" clip-rule="evenodd" d="M21.7969 -0.046875C23.2343 -0.046875 24.6719 -0.046875 26.1094 -0.046875C29.087 0.268196 31.9307 1.08069 34.6406 2.39062C31.3199 4.20967 28.2262 6.36592 25.3594 8.85938C24.9845 8.9531 24.6095 9.04685 24.2344 9.14062C21.3694 9.86466 18.5257 10.6615 15.7031 11.5312C14.3411 12.4747 14.0287 13.6777 14.7656 15.1406C14.7852 15.2739 14.8321 15.3989 14.9062 15.5156C16.2813 16.8907 17.6562 18.2656 19.0312 19.6406C19.0484 19.372 19.0953 19.1221 19.1719 18.8906C19.1307 19.7785 19.1932 20.6535 19.3594 21.5156C18.3675 22.3665 17.4144 23.2727 16.5 24.2344C16.4565 24.2901 16.4408 24.3526 16.4531 24.4219C15.0973 24.2839 13.8161 24.5496 12.6094 25.2188C12.1529 25.4933 11.7155 25.7903 11.2969 26.1094C11.238 25.8666 11.1286 25.6478 10.9688 25.4531C10.5312 24.8906 10.0312 24.3907 9.46875 23.9531C9.1037 23.3155 9.05682 22.6593 9.32812 21.9844C9.73819 23.0273 10.4257 23.246 11.3906 22.6406C11.9563 21.8973 11.8626 21.2567 11.1094 20.7188C10.5003 20.4685 9.96909 20.5778 9.51562 21.0469C9.61894 18.7294 8.61893 17.0888 6.51562 16.125C5.85177 15.8652 5.16427 15.7559 4.45312 15.7969C3.53663 15.3569 2.56787 15.1381 1.54688 15.1406C5.42767 6.26177 12.1777 1.19927 21.7969 -0.046875Z" fill="#02B6EF"/>
<path opacity="0.949" fill-rule="evenodd" clip-rule="evenodd" d="M43.8281 0.23428C42.8264 0.22394 41.8264 0.25519 40.8281 0.32803C41.4158 0.189286 42.0252 0.126786 42.6562 0.14053C43.0638 0.140625 43.4544 0.171874 43.8281 0.23428Z" fill="#AA5C7A"/>
<path fill-rule="evenodd" clip-rule="evenodd" d="M43.8281 0.23435C45.0141 0.310929 45.9203 0.84218 46.5469 1.8281C46.5478 2.34879 46.3603 2.80191 45.9844 3.18747C44.9377 3.4408 43.9064 3.75329 42.8906 4.12497C41.9006 4.90922 41.6975 5.86234 42.2812 6.98435C42.9063 7.67185 43.5312 8.35935 44.1562 9.04685C44.2516 9.55076 44.1735 10.0195 43.9219 10.4531C41.0658 7.69088 38.2845 4.87838 35.5781 2.0156C37.2477 1.2091 38.9978 0.646594 40.8281 0.3281C41.8264 0.25526 42.8264 0.22401 43.8281 0.23435Z" fill="#6C2CC0"/>
<path fill-rule="evenodd" clip-rule="evenodd" d="M46.547 1.82812C46.9342 2.31534 47.1685 2.87784 47.2501 3.51562C47.4265 5.16868 47.2703 6.79369 46.7814 8.39062C46.4271 9.59709 45.9739 10.7533 45.422 11.8594C44.9532 11.4218 44.4845 10.9844 44.0157 10.5469C44.0157 10.4843 43.9845 10.4531 43.922 10.4531C44.1736 10.0195 44.2517 9.55078 44.1564 9.04688C43.5313 8.35938 42.9064 7.67187 42.2814 6.98438C41.6976 5.86237 41.9007 4.90925 42.8907 4.125C43.9065 3.75332 44.9378 3.44082 45.9845 3.1875C46.3604 2.80193 46.5479 2.34881 46.547 1.82812Z" fill="#8A58EF"/>
<path fill-rule="evenodd" clip-rule="evenodd" d="M35.5782 2.01562C38.2846 4.8784 41.0658 7.6909 43.9219 10.4531C43.9845 10.4531 44.0157 10.4843 44.0157 10.5469C43.1352 10.7313 42.2914 10.6219 41.4844 10.2188C40.7388 9.69206 40.0201 9.12953 39.3282 8.53125C38.6952 8.12206 38.0077 7.96581 37.2657 8.0625C37.0632 8.18738 36.8757 8.328 36.7032 8.48438C33.9685 7.23473 31.5779 7.70348 29.5313 9.89062C28.1022 11.8505 27.8835 13.9442 28.8751 16.1719C30.6321 18.9661 33.0852 19.8255 36.2344 18.75C36.5832 18.5756 36.9269 18.4038 37.2657 18.2344C35.8176 19.7641 34.0364 20.3735 31.9219 20.0625C31.3705 19.9308 30.8392 19.7433 30.3282 19.5C29.6176 19.0398 28.9614 18.5086 28.3594 17.9062C25.9958 16.7992 24.2926 17.4398 23.2501 19.8281C22.648 21.4367 22.4761 23.0929 22.7344 24.7969C22.5214 24.7087 22.3339 24.5837 22.1719 24.4219C21.2344 23.4532 20.2969 22.4843 19.3594 21.5156C19.1932 20.6535 19.1308 19.7785 19.1719 18.8906C19.3999 17.0974 20.0093 15.4412 21.0001 13.9219C22.2329 12.0482 23.686 10.3607 25.3594 8.85938C28.2262 6.36592 31.32 4.20968 34.6407 2.39062C34.9611 2.28385 35.2736 2.15885 35.5782 2.01562Z" fill="#FEA50C"/>
<path fill-rule="evenodd" clip-rule="evenodd" d="M36.703 8.4843C39.2946 10.1799 40.154 12.5236 39.2812 15.5156C38.8387 16.5977 38.1668 17.504 37.2655 18.2343C36.9267 18.4037 36.583 18.5756 36.2343 18.7499C33.085 19.8254 30.632 18.966 28.8749 16.1718C27.8833 13.9441 28.102 11.8504 29.5312 9.89055C31.5777 7.70341 33.9684 7.23466 36.703 8.4843Z" fill="#FEFEFD"/>
<path fill-rule="evenodd" clip-rule="evenodd" d="M44.0157 10.5468C44.4845 10.9843 44.9532 11.4217 45.422 11.8593C45.3282 12.1093 45.2345 12.3592 45.1407 12.6093C43.296 16.1412 41.046 19.3912 38.3907 22.3593C37.5318 23.2025 36.6568 24.0306 35.7657 24.8436C34.0715 26.2693 32.1653 27.3318 30.047 28.0311C29.3065 28.2119 28.5565 28.3212 27.797 28.3593C27.109 28.394 26.4528 28.3002 25.8282 28.078C24.7627 27.0125 23.7314 25.9189 22.7345 24.7968C22.4762 23.0928 22.648 21.4366 23.2501 19.828C24.2927 17.4397 25.9959 16.7991 28.3595 17.9061C28.9615 18.5085 29.6177 19.0397 30.3282 19.4999C30.8393 19.7432 31.3705 19.9307 31.922 20.0624C34.0364 20.3734 35.8177 19.764 37.2657 18.2343C38.167 17.504 38.8389 16.5977 39.2814 15.5155C40.1542 12.5236 39.2948 10.1798 36.7032 8.48427C36.8757 8.32789 37.0632 8.18727 37.2657 8.06239C38.0078 7.9657 38.6952 8.12195 39.3282 8.53114C40.0201 9.12942 40.7389 9.69195 41.4845 10.2186C42.2915 10.6218 43.1352 10.7312 44.0157 10.5468Z" fill="#FDC404"/>
<path fill-rule="evenodd" clip-rule="evenodd" d="M25.3594 8.85938C23.6859 10.3607 22.2328 12.0482 21 13.9219C20.0093 15.4412 19.3999 17.0974 19.1719 18.8906C19.0953 19.1221 19.0484 19.372 19.0312 19.6406C17.6562 18.2656 16.2813 16.8907 14.9062 15.5156C14.8321 15.3989 14.7852 15.2739 14.7656 15.1406C14.809 14.3013 15.2466 13.9732 16.0781 14.1562C16.6673 14.8956 17.386 15.0518 18.2344 14.625C19.0025 13.4501 19.8775 12.3563 20.8594 11.3438C21.9136 10.4893 23.0386 9.75497 24.2344 9.14062C24.6095 9.04685 24.9845 8.9531 25.3594 8.85938Z" fill="#6A2CC1"/>
<path fill-rule="evenodd" clip-rule="evenodd" d="M24.2343 9.14062C23.0386 9.75497 21.9136 10.4893 20.8593 11.3438C19.8775 12.3563 19.0024 13.4501 18.2343 14.625C17.386 15.0518 16.6672 14.8956 16.0781 14.1562C15.2465 13.9732 14.809 14.3013 14.7656 15.1406C14.0286 13.6778 14.3411 12.4747 15.7031 11.5312C18.5256 10.6615 21.3693 9.86466 24.2343 9.14062Z" fill="#8557F2"/>
<path fill-rule="evenodd" clip-rule="evenodd" d="M36.0468 10.078C36.3199 10.7416 36.1011 11.0853 35.3905 11.1093C35.477 11.4183 35.5708 11.7308 35.6718 12.0468C35.6007 12.7233 35.2257 13.0202 34.5468 12.9374C34.269 12.7536 34.019 12.5348 33.7968 12.2812C33.2886 12.0134 32.898 12.1228 32.6249 12.6093C32.5731 12.8829 32.6357 13.133 32.8124 13.3593C33.3155 13.831 33.7843 14.331 34.2186 14.8593C34.3224 15.7389 33.9318 16.0984 33.0468 15.9374C32.7258 15.5731 32.3664 15.5262 31.9686 15.7968C31.9374 16.078 31.9061 16.3593 31.8749 16.6405C31.7801 16.719 31.6707 16.7502 31.5468 16.7343C30.6795 16.1584 30.1639 15.3459 29.9999 14.2968C29.727 11.8894 30.7427 10.3113 33.0468 9.56241C34.1178 9.37951 35.1177 9.55144 36.0468 10.078Z" fill="#0491C8"/>
<path fill-rule="evenodd" clip-rule="evenodd" d="M36.0469 10.0781C38.1006 11.6111 38.5224 13.5174 37.3125 15.7969C36.166 17.2521 34.6817 17.7989 32.8594 17.4375C32.3743 17.2733 31.9368 17.039 31.5469 16.7344C31.6708 16.7503 31.7802 16.7191 31.875 16.6406C31.9062 16.3594 31.9375 16.0781 31.9688 15.7969C32.3665 15.5263 32.7259 15.5732 33.0469 15.9375C33.9319 16.0985 34.3225 15.739 34.2188 14.8594C33.7844 14.3311 33.3157 13.8311 32.8125 13.3594C32.6358 13.1331 32.5733 12.883 32.625 12.6094C32.8981 12.1229 33.2887 12.0135 33.7969 12.2812C34.0192 12.5349 34.2691 12.7537 34.5469 12.9375C35.2258 13.0203 35.6008 12.7234 35.6719 12.0469C35.5709 11.7308 35.4772 11.4184 35.3906 11.1094C36.1013 11.0854 36.32 10.7417 36.0469 10.0781Z" fill="#0BB7EF"/>
<path fill-rule="evenodd" clip-rule="evenodd" d="M45.1406 12.6094C45.6856 13.5236 46.123 14.4924 46.4531 15.5156C45.887 16.6155 45.2464 17.678 44.5312 18.7031C43.4419 20.1365 42.3169 21.5427 41.1562 22.9219C40.3942 25.7643 39.6442 28.608 38.9062 31.4531C38.2526 33.2252 37.0182 33.8659 35.2031 33.375C34.9105 33.2526 34.6606 33.0806 34.4531 32.8594C35.1621 32.5725 35.6777 32.0725 36 31.3594C36.7387 28.5347 37.5043 25.7222 38.2969 22.9219C38.3281 22.7344 38.3594 22.5469 38.3906 22.3594C41.0459 19.3913 43.2959 16.1413 45.1406 12.6094Z" fill="#0391C7"/>
<path fill-rule="evenodd" clip-rule="evenodd" d="M1.54688 15.1406C2.56787 15.1381 3.53663 15.3569 4.45313 15.7969C4.9838 16.1401 5.4213 16.5776 5.76563 17.1094C5.85604 17.6943 5.63729 18.1162 5.10938 18.375C4.57566 18.331 4.04441 18.2372 3.51563 18.0938C2.43469 18.0047 1.43468 18.2391 0.515625 18.7969C0.72804 17.5409 1.07179 16.3222 1.54688 15.1406Z" fill="#F3EFF0"/>
<path opacity="0.996" fill-rule="evenodd" clip-rule="evenodd" d="M46.4532 15.5156C47.2159 17.5484 47.7159 19.6421 47.9532 21.7969C47.9532 23.2343 47.9532 24.6719 47.9532 26.1094C47.5154 30.4696 46.031 34.4383 43.5001 38.0156C43.3485 38.2278 43.1766 38.4153 42.9844 38.5781C43.5981 36.9463 43.0982 35.8057 41.4844 35.1562C40.8006 35.0148 40.1757 35.1397 39.6094 35.5312C38.5036 36.6065 37.316 37.5752 36.0469 38.4375C35.7354 38.5818 35.4073 38.6599 35.0626 38.6719C34.6694 38.575 34.2787 38.4969 33.8907 38.4375C33.4953 38.6002 33.3234 38.897 33.3751 39.3281C33.253 39.6819 33.0498 39.9788 32.7657 40.2188C31.625 40.7391 30.4687 41.1922 29.2969 41.5781C29.0575 41.4949 28.8075 41.4637 28.5469 41.4844C27.9059 40.7975 27.1871 40.1881 26.3907 39.6562C25.5325 39.2549 24.6575 38.9112 23.7657 38.625C23.3095 38.1813 23.2002 37.6657 23.4376 37.0781C24.9943 35.5343 25.7443 33.6593 25.6876 31.4531C26.5346 30.5904 27.394 29.7467 28.2657 28.9219C29.5186 30.1748 30.7998 31.3936 32.1094 32.5781C32.2963 32.734 32.515 32.8434 32.7657 32.9062C33.333 32.9762 33.8955 32.9605 34.4532 32.8594C34.6607 33.0806 34.9106 33.2526 35.2032 33.375C37.0183 33.8659 38.2527 33.2252 38.9063 31.4531C39.6442 28.608 40.3942 25.7643 41.1563 22.9219C42.3169 21.5427 43.4419 20.1365 44.5313 18.7031C45.2464 17.678 45.887 16.6155 46.4532 15.5156Z" fill="#00B6EF"/>
<path fill-rule="evenodd" clip-rule="evenodd" d="M4.45312 15.797C5.16427 15.756 5.85177 15.8653 6.51562 16.1251C8.61893 17.0888 9.61894 18.7295 9.51562 21.047C9.37282 21.3409 9.31031 21.6533 9.32812 21.9845C9.05682 22.6594 9.1037 23.3156 9.46875 23.9532C10.0312 24.3907 10.5312 24.8907 10.9688 25.4532C11.1286 25.6479 11.238 25.8666 11.2969 26.1095C10.9115 26.6766 10.3802 26.8798 9.70312 26.7188C9.41606 26.6194 9.18173 26.4475 9 26.2032C8.90382 25.9464 8.7632 25.7277 8.57812 25.547C8.51922 25.3041 8.40984 25.0854 8.25 24.8907C7.8125 24.3282 7.3125 23.8282 6.75 23.3907C6.44378 22.8996 6.35003 22.3684 6.46875 21.797C7.10152 20.0838 6.86714 18.5212 5.76562 17.1095C5.4213 16.5776 4.9838 16.1402 4.45312 15.797Z" fill="#0491C8"/>
<path fill-rule="evenodd" clip-rule="evenodd" d="M9.70319 16.6407C10.2944 16.5664 10.56 16.8164 10.5001 17.3907C10.1251 18.0157 9.75006 18.0157 9.37506 17.3907C9.3075 17.0575 9.41688 16.8076 9.70319 16.6407Z" fill="#F7FCFE"/>
<path opacity="0.992" fill-rule="evenodd" clip-rule="evenodd" d="M5.76562 17.1094C6.86714 18.5212 7.10151 20.0837 6.46875 21.7969C6.35003 22.3683 6.44378 22.8996 6.75 23.3906C7.3125 23.8282 7.8125 24.3281 8.25 24.8906C8.40984 25.0853 8.51922 25.3041 8.57812 25.5469C7.7629 25.5335 7.55977 25.8772 7.96875 26.5781C8.34054 26.856 8.6843 27.1685 9 27.5156C9.41025 28.1643 9.83212 28.8049 10.2656 29.4375C11.0226 29.8361 11.6788 29.7111 12.2344 29.0625C12.3222 28.9976 12.3847 29.0133 12.4219 29.1094C11.4349 30.5852 10.8255 32.2102 10.5937 33.9844C10.4672 34.9832 10.3578 35.9832 10.2656 36.9844C10.1229 37.4147 10.0292 37.8679 9.98437 38.3438C10.012 38.6178 10.1371 38.8366 10.3594 39C13.9601 39.1546 17.0383 37.9827 19.5937 35.4844C20.2886 34.5716 20.6167 33.5404 20.5781 32.3906C21.0292 31.0046 20.9355 29.6609 20.2969 28.3594C21.1718 29.2031 22.0469 30.0469 22.9219 30.8906C22.9871 33.1344 22.2216 35.0408 20.625 36.6094C20.461 37.2426 20.6329 37.7582 21.1406 38.1562C21.7105 38.3107 22.273 38.4825 22.8281 38.6719C21.6535 38.9272 21.2942 39.6147 21.75 40.7344C21.9123 40.9328 22.1154 41.0735 22.3594 41.1562C23.5216 41.3469 24.5528 41.8157 25.4531 42.5625C25.9531 43.1875 26.5156 43.75 27.1406 44.25C27.4814 44.4094 27.8407 44.4875 28.2187 44.4844C28.827 44.3996 29.4364 44.384 30.0469 44.4375C30.7195 44.5941 31.3758 44.7971 32.0156 45.0469C32.1463 45.0355 32.2714 45.0043 32.3906 44.9531C32.4863 44.7949 32.6114 44.6699 32.7656 44.5781C32.9554 45.1338 32.9867 45.6963 32.8594 46.2656C30.6883 47.1498 28.4383 47.7123 26.1094 47.9531C24.6719 47.9531 23.2343 47.9531 21.7969 47.9531C13.3927 46.9324 7.06464 42.7762 2.8125 35.4844C1.24737 32.534 0.294244 29.409 -0.046875 26.1094C-0.046875 24.6719 -0.046875 23.2343 -0.046875 21.7969C0.0799188 20.7862 0.267419 19.7862 0.515625 18.7969C1.43468 18.2391 2.43469 18.0047 3.51562 18.0938C4.04441 18.2372 4.57566 18.3309 5.10937 18.375C5.63729 18.1162 5.85604 17.6943 5.76562 17.1094Z" fill="#FEFEFE"/>
<path fill-rule="evenodd" clip-rule="evenodd" d="M9.32816 21.9844C9.31035 21.6532 9.37285 21.3408 9.51566 21.0469C9.96913 20.5778 10.5003 20.4685 11.1094 20.7187C11.8626 21.2567 11.9563 21.8973 11.3907 22.6406C10.4257 23.246 9.73822 23.0272 9.32816 21.9844Z" fill="#FAFDFE"/>
<path fill-rule="evenodd" clip-rule="evenodd" d="M12.8906 21.1407C14.1586 21.111 14.643 21.7047 14.3437 22.922C13.8096 23.6411 13.169 23.7505 12.4218 23.2501C11.8128 22.3697 11.9691 21.6666 12.8906 21.1407Z" fill="#0091C8"/>
<path fill-rule="evenodd" clip-rule="evenodd" d="M19.3593 21.5156C20.2968 22.4843 21.2343 23.4532 22.1718 24.4219C20.8118 23.9382 19.8275 24.3444 19.2186 25.6406C19.1963 26.1595 19.1808 26.6595 19.1718 27.1406C19.1092 27.1094 19.0468 27.0781 18.9843 27.0469C18.1405 26.1719 17.2968 25.2968 16.453 24.4219C16.4407 24.3526 16.4564 24.2901 16.4999 24.2344C17.4143 23.2727 18.3674 22.3665 19.3593 21.5156Z" fill="#6A2EC3"/>
<path fill-rule="evenodd" clip-rule="evenodd" d="M38.3906 22.3594C38.3594 22.5469 38.3281 22.7344 38.2969 22.9219C37.4928 24.744 36.3366 26.3221 34.8281 27.6562C34.1131 28.1616 33.41 28.6772 32.7188 29.2031C32.5033 29.5517 32.4408 29.9267 32.5312 30.3281C32.8027 30.7849 33.0683 31.238 33.3281 31.6875C33.2257 32.3953 32.8194 32.6922 32.1094 32.5781C30.7998 31.3936 29.5185 30.1748 28.2656 28.9219C28.1093 28.7344 27.9532 28.5469 27.7969 28.3594C28.5563 28.3213 29.3063 28.212 30.0469 28.0312C32.1652 27.3319 34.0714 26.2694 35.7656 24.8438C36.6567 24.0308 37.5317 23.2027 38.3906 22.3594Z" fill="#6A2CC1"/>
<path fill-rule="evenodd" clip-rule="evenodd" d="M38.2969 22.9219C37.5043 25.7222 36.7387 28.5347 36 31.3594C35.6777 32.0725 35.1621 32.5725 34.4531 32.8594C33.8954 32.9605 33.3329 32.9762 32.7656 32.9063C32.5149 32.8434 32.2962 32.734 32.1094 32.5781C32.8194 32.6922 33.2257 32.3953 33.3281 31.6875C33.0683 31.238 32.8027 30.7849 32.5312 30.3281C32.4408 29.9267 32.5033 29.5517 32.7188 29.2031C33.41 28.6772 34.1131 28.1616 34.8281 27.6563C36.3366 26.3221 37.4928 24.744 38.2969 22.9219Z" fill="#8657F2"/>
<path fill-rule="evenodd" clip-rule="evenodd" d="M22.1719 24.4218C22.3339 24.5836 22.5214 24.7085 22.7344 24.7968C23.7313 25.9189 24.7626 27.0125 25.8281 28.078C24.8594 29.0155 23.8906 29.953 22.9219 30.8905C22.0469 30.0468 21.1718 29.203 20.2969 28.3593C19.9219 27.953 19.5469 27.5467 19.1719 27.1405C19.1809 26.6594 19.1964 26.1594 19.2188 25.6405C19.8276 24.3443 20.8119 23.9381 22.1719 24.4218Z" fill="#8757F2"/>
<path fill-rule="evenodd" clip-rule="evenodd" d="M16.4532 24.4219C17.297 25.2968 18.1407 26.1719 18.9845 27.0469C18.7544 26.9787 18.5357 26.885 18.3282 26.7656C16.6345 26.0874 15.1033 26.353 13.7345 27.5625C13.2745 28.0685 12.837 28.5842 12.422 29.1094C12.3848 29.0133 12.3223 28.9976 12.2345 29.0625C11.6789 29.711 11.0227 29.8361 10.2657 29.4375C9.83223 28.8049 9.41036 28.1643 9.00011 27.5156C8.6844 27.1685 8.34065 26.856 7.96886 26.5781C7.55988 25.8771 7.76301 25.5335 8.57823 25.5469C8.7633 25.7276 8.90393 25.9463 9.00011 26.2031C9.18183 26.4474 9.41617 26.6193 9.70323 26.7187C10.3803 26.8797 10.9116 26.6765 11.297 26.1094C11.7156 25.7902 12.153 25.4933 12.6095 25.2187C13.8162 24.5495 15.0974 24.2839 16.4532 24.4219Z" fill="#F4EFEF"/>
<path fill-rule="evenodd" clip-rule="evenodd" d="M18.3281 26.7656C18.7932 27.8195 18.4494 28.3976 17.2969 28.5C17.0356 28.7032 16.9575 28.9689 17.0625 29.2969C17.3728 29.6452 17.4666 30.0514 17.3437 30.5156C17.0863 30.9803 16.6957 31.1834 16.1719 31.125C15.7736 30.9147 15.4299 30.6335 15.1406 30.2813C14.5622 30.0115 14.0779 30.1209 13.6875 30.6094C13.609 30.9652 13.6402 31.3089 13.7812 31.6406C14.3781 32.2061 14.9406 32.7998 15.4687 33.4219C15.6457 34.495 15.1925 34.9481 14.1094 34.7813C13.7689 34.5347 13.4564 34.2535 13.1719 33.9375C12.6228 33.6717 12.1697 33.781 11.8125 34.2656C11.6267 34.9463 11.4705 35.6337 11.3437 36.3281C11.1849 36.5961 10.9818 36.8148 10.7344 36.9844C10.5624 37.0776 10.4062 37.0776 10.2656 36.9844C10.3578 35.9832 10.4672 34.9832 10.5937 33.9844C10.8255 32.2103 11.4349 30.5852 12.4219 29.1094C12.8369 28.5842 13.2743 28.0686 13.7344 27.5625C15.1032 26.3531 16.6344 26.0875 18.3281 26.7656Z" fill="#FFA50E"/>
<path fill-rule="evenodd" clip-rule="evenodd" d="M18.3281 26.7656C18.5356 26.885 18.7543 26.9787 18.9844 27.0469C19.0469 27.0781 19.1093 27.1094 19.1719 27.1406C19.5469 27.5468 19.9219 27.9532 20.2969 28.3594C20.9355 29.6609 21.0292 31.0046 20.5781 32.3906C19.1438 34.4859 17.1751 35.8453 14.6719 36.4688C13.3669 36.7022 12.0544 36.874 10.7344 36.9844C10.9818 36.8148 11.1849 36.5961 11.3437 36.3281C11.4705 35.6337 11.6267 34.9462 11.8125 34.2656C12.1697 33.781 12.6228 33.6717 13.1719 33.9375C13.4564 34.2534 13.7689 34.5347 14.1094 34.7812C15.1925 34.9481 15.6457 34.495 15.4687 33.4219C14.9406 32.7997 14.3781 32.206 13.7812 31.6406C13.6402 31.3088 13.609 30.9652 13.6875 30.6094C14.0779 30.1208 14.5622 30.0114 15.1406 30.2812C15.4299 30.6335 15.7736 30.9147 16.1719 31.125C16.6957 31.1834 17.0863 30.9802 17.3437 30.5156C17.4666 30.0514 17.3728 29.6452 17.0625 29.2969C16.9575 28.9688 17.0356 28.7032 17.2969 28.5C18.4494 28.3975 18.7932 27.8195 18.3281 26.7656Z" fill="#FDC506"/>
<path fill-rule="evenodd" clip-rule="evenodd" d="M25.8281 28.0781C26.4527 28.3003 27.1089 28.3941 27.7969 28.3594C27.9531 28.5469 28.1093 28.7344 28.2656 28.9219C27.3939 29.7467 26.5345 30.5904 25.6875 31.4531C25.7442 33.6593 24.9942 35.5343 23.4375 37.0781C23.2001 37.6657 23.3094 38.1813 23.7656 38.625C24.6575 38.9112 25.5324 39.2549 26.3906 39.6562C27.187 40.1881 27.9058 40.7975 28.5469 41.4844C27.751 41.6443 26.9697 41.5974 26.2031 41.3438C25.4847 40.7191 24.7972 40.0628 24.1406 39.375C23.7424 39.0665 23.3048 38.8321 22.8281 38.6719C22.273 38.4825 21.7105 38.3107 21.1406 38.1562C20.6329 37.7582 20.461 37.2426 20.625 36.6094C22.2215 35.0408 22.9871 33.1344 22.9219 30.8906C23.8906 29.9531 24.8594 29.0156 25.8281 28.0781Z" fill="#0491C8"/>
<path fill-rule="evenodd" clip-rule="evenodd" d="M20.5781 32.3906C20.6167 33.5404 20.2886 34.5716 19.5937 35.4844C17.0383 37.9827 13.9601 39.1546 10.3594 39C10.1371 38.8366 10.012 38.6178 9.98438 38.3438C10.0292 37.8679 10.1229 37.4147 10.2656 36.9844C10.4062 37.0776 10.5624 37.0776 10.7344 36.9844C12.0544 36.874 13.3669 36.7022 14.6719 36.4688C17.1751 35.8453 19.1438 34.4859 20.5781 32.3906Z" fill="#F5EFEF"/>
<path opacity="0.995" fill-rule="evenodd" clip-rule="evenodd" d="M42.9844 38.5781C40.3373 42.1002 36.9623 44.6627 32.8594 46.2656C32.9867 45.6962 32.9554 45.1337 32.7656 44.5781C32.1886 42.9072 31.0323 41.9072 29.2969 41.5781C30.4687 41.1921 31.625 40.739 32.7656 40.2187C33.0498 39.9788 33.2529 39.6819 33.375 39.3281C33.3233 38.8969 33.4952 38.6001 33.8906 38.4374C34.2787 38.4969 34.6693 38.575 35.0625 38.6718C35.4072 38.6598 35.7353 38.5817 36.0469 38.4374C37.316 37.5751 38.5035 36.6064 39.6094 35.5312C40.1756 35.1397 40.8006 35.0147 41.4844 35.1562C43.0981 35.8056 43.5981 36.9463 42.9844 38.5781Z" fill="#0091C8"/>
<path fill-rule="evenodd" clip-rule="evenodd" d="M27.2345 37.0781C28.3289 37.1424 28.6571 37.6737 28.2189 38.6719C27.4863 39.1662 26.9551 39.01 26.6251 38.2031C26.5632 37.6865 26.7663 37.3115 27.2345 37.0781Z" fill="#FBFDFE"/>
<path fill-rule="evenodd" clip-rule="evenodd" d="M30.8906 37.922C30.5996 38.3324 30.6621 38.6762 31.0781 38.9532C31.0455 39.1894 30.9205 39.3613 30.7031 39.4688C29.517 39.6097 29.1264 39.1253 29.5312 38.0157C29.9692 37.5674 30.4223 37.5362 30.8906 37.922Z" fill="#0693C9"/>
<path fill-rule="evenodd" clip-rule="evenodd" d="M31.0781 38.9531C30.6621 38.6761 30.5996 38.3323 30.8906 37.9218C31.5933 37.7813 31.8434 38.0626 31.6406 38.7656C31.4837 38.9143 31.2962 38.9768 31.0781 38.9531Z" fill="#F8FCFE"/>
<path fill-rule="evenodd" clip-rule="evenodd" d="M22.8281 38.6719C23.3048 38.8321 23.7424 39.0665 24.1406 39.375C24.7972 40.0628 25.4847 40.7191 26.2031 41.3438C26.9697 41.5974 27.751 41.6443 28.5469 41.4844C28.8074 41.4637 29.0574 41.4949 29.2969 41.5781C31.0323 41.9073 32.1886 42.9072 32.7656 44.5781C32.6114 44.6699 32.4863 44.7949 32.3906 44.9531C32.2714 45.0043 32.1463 45.0355 32.0156 45.0469C31.3758 44.7971 30.7195 44.5941 30.0469 44.4375C29.4364 44.384 28.827 44.3996 28.2187 44.4844C27.8407 44.4875 27.4814 44.4094 27.1406 44.25C26.5156 43.75 25.9531 43.1875 25.4531 42.5625C24.5528 41.8157 23.5216 41.3469 22.3594 41.1562C22.1154 41.0735 21.9123 40.9328 21.75 40.7344C21.2942 39.6147 21.6535 38.9272 22.8281 38.6719Z" fill="#F4EFF0"/>
</g>
<defs>
<clipPath id="clip0_371_4587">
<rect width="48" height="48" fill="white"/>
</clipPath>
</defs>
</svg>
