<svg width="16" height="16" viewBox="0 0 16 16" fill="none" xmlns="http://www.w3.org/2000/svg">
<g clip-path="url(#clip0_334_5118)">
<path opacity="0.984" fill-rule="evenodd" clip-rule="evenodd" d="M15.9844 3.2969C15.9844 3.4844 15.9844 3.6719 15.9844 3.8594C15.9277 4.06637 15.8287 4.25387 15.6875 4.4219C12.4844 7.62502 9.28125 10.8281 6.07812 14.0313C5.84194 14.1931 5.58153 14.2452 5.29688 14.1875C5.16828 14.1493 5.05369 14.0868 4.95312 14C3.35331 12.4106 1.76476 10.8116 0.1875 9.20315C0.109552 9.05793 0.0418431 8.91208 -0.015625 8.76565C-0.015625 8.57815 -0.015625 8.39065 -0.015625 8.20315C0.0383544 8.01187 0.126896 7.83477 0.25 7.6719C0.516556 7.3949 0.792597 7.12927 1.07812 6.87502C1.57518 6.59558 2.06476 6.60599 2.54688 6.90627C3.54166 7.90105 4.53647 8.89587 5.53125 9.89065C8.15103 7.27087 10.7708 4.65105 13.3906 2.03127C13.876 1.702 14.376 1.68117 14.8906 1.96877C15.2628 2.27837 15.5909 2.62733 15.875 3.01565C15.9134 3.11247 15.9498 3.20621 15.9844 3.2969Z" fill="white"/>
</g>
<defs>
<clipPath id="clip0_334_5118">
<rect width="16" height="16" fill="white"/>
</clipPath>
</defs>
</svg>
