<svg width="640" height="389" viewBox="0 0 640 389" fill="none" xmlns="http://www.w3.org/2000/svg">
<g clip-path="url(#clip0_1070_17507)">
<g opacity="0.4">
<path d="M335.096 76.5695C331.375 70.9119 322.936 67.8314 315.512 65.0751C315.512 65.0751 315.512 65.0751 315.503 65.0751C311.416 63.5562 307.627 62.1396 305.118 60.4586C305.118 60.4586 305.11 60.4586 305.101 60.45C303.301 59.2383 302.157 57.89 302.029 56.2602C301.381 48.2474 313.558 43.1189 313.558 43.1189L308.549 41.8218L309.667 37.7002C309.667 37.7002 298.198 43.7162 296.619 53.4271C296.278 55.5093 296.397 57.762 297.174 60.1599C301.432 73.2415 326.981 73.0623 330.727 78.4639C330.795 78.5663 330.829 78.626 330.829 78.626C330.923 78.7796 331 78.9418 331.06 79.1124C333.142 85.1967 326.605 94.4298 326.605 94.4298L332.186 92.9535L332.886 98.3636C332.886 98.3636 342.358 87.6031 335.096 76.5866V76.5695Z" fill="#58A1FF"/>
<path d="M330.727 78.447C329.95 77.1926 324.6 69.0176 315.512 65.0752C315.512 65.0752 315.512 65.0752 315.503 65.0752C311.757 63.4454 308.25 62.1227 305.118 60.4587C305.118 60.4587 305.11 60.4587 305.101 60.4502C301.833 58.7264 298.966 56.6187 296.619 53.4272C296.278 55.5094 296.397 57.7622 297.174 60.16C301.432 73.2416 326.981 73.0624 330.727 78.464V78.447Z" fill="#83BEFF"/>
<path d="M396.978 45.3632C396.978 45.3632 400.169 37.8624 401.287 30.3616C401.287 30.3616 404.487 33.9712 404.623 34.7904L408.506 32.1365C408.506 32.1365 406.56 44.2709 404.478 47.5477L402.746 44.3818L396.978 45.3632Z" fill="#58A1FF"/>
<path d="M599.38 62.5578C599.38 62.5578 600.796 59.2299 601.291 55.9019C601.291 55.9019 602.708 57.5061 602.776 57.8731L604.5 56.6955C604.5 56.6955 603.638 62.08 602.708 63.5392L601.94 62.1312L599.38 62.5664V62.5578Z" fill="#01D8AE"/>
<path d="M112.273 187.793C112.273 187.793 104.636 184.653 96.9902 183.569C96.9902 183.569 100.668 180.429 101.504 180.292L98.7993 176.478C98.7993 176.478 111.164 178.389 114.501 180.429L111.275 182.135L112.273 187.793Z" fill="#58A1FF"/>
<path d="M229.83 0.307363H241.094C241.316 1.01563 241.461 1.43376 241.726 2.12496C245.719 12.8684 253.979 20.1559 261.207 24.7468C268.358 29.3036 274.485 31.2065 274.485 31.2065L266.831 33.3569L269.911 40.5676C269.911 40.5676 239.49 34.4151 229.839 0.298828L229.83 0.307363Z" fill="#83BEFF"/>
<path d="M237.537 0.307363H241.096C241.317 1.01563 241.462 1.43376 241.727 2.12496C245.721 12.8684 253.981 20.1559 261.209 24.7468C261.209 24.7468 245.157 20.9409 237.546 0.298828L237.537 0.307363Z" fill="#58A1FF"/>
<path d="M379.637 27.8272C376.65 21.6491 367.28 11.7163 361.085 0.554688H350.794C359.088 15.1125 372.673 29.0389 369.712 37.9307C369.712 37.9307 378.186 38.4085 378.98 37.7173C378.98 37.7173 383.272 35.3109 379.637 27.8187V27.8272Z" fill="#AC94FF"/>
<path d="M354.387 26.1034C354.865 25.1732 356.009 24.721 357.007 25.105C358.407 25.634 360.591 26.9738 363.493 30.3188C369.696 37.4697 376.31 38.178 378.972 37.7257C378.972 37.7257 373.152 44.0489 370.217 45.0729C367.281 46.1055 358.987 38.3743 356.888 36.5055C354.976 34.7903 351.998 30.737 354.387 26.1034Z" fill="#7264D8"/>
<path d="M356.043 24.9686C356.043 24.9686 353.423 24.6614 347.893 34.415C346.366 37.1115 349.182 46.3019 361.436 58.1291C372.111 68.4288 379.168 86.3659 379.168 86.3659C379.168 86.3659 381.762 80.3584 380.09 75.2896C380.09 75.2896 384.698 75.8358 387.181 78.6603C387.181 78.6603 386.481 69.7515 375.977 58.3168C365.472 46.8822 350.812 32.5803 356.026 24.9686H356.043Z" fill="#AC94FF"/>
<path d="M626.621 238.447C626.561 237.687 626.604 236.953 626.757 236.228C626.757 236.228 618.275 236.715 617.575 237.483C617.575 237.483 613.59 240.35 618.07 247.39C621.791 253.235 632.406 262.161 639.882 272.665V259.106C633.123 251.392 627.005 244.36 626.621 238.438V238.447Z" fill="#83BEFF"/>
<path d="M639.871 247.227V236.382C639.794 236.322 639.717 236.262 639.64 236.211C639.214 235.912 638.548 235.426 637.729 234.854C634.154 232.362 627.677 228.104 625.407 229.205C622.616 230.553 617.573 237.482 617.573 237.482C619.237 237.005 622.582 236.817 626.627 238.447C628.863 239.36 631.32 240.819 633.812 243.106C636.423 245.495 638.437 246.673 639.879 247.227H639.871Z" fill="#58A1FF"/>
<path d="M639.871 237.696V221.508C637.84 219.52 635.434 217.412 632.601 215.253C620.791 206.225 611.686 189.201 611.686 189.201C611.686 189.201 609.808 195.456 612.061 200.303C612.061 200.303 607.419 200.277 604.62 197.751C604.62 197.751 606.361 206.524 618.12 216.695C624.716 222.396 632.72 228.855 637.721 234.854C638.515 235.819 639.24 236.766 639.863 237.696H639.871Z" fill="#83BEFF"/>
<path d="M547.482 159.957C547.482 159.957 545.852 171.375 537.327 176.486L536.055 171.776C536.055 171.776 534.63 171.477 530.44 171.076C530.44 171.076 537.788 162.056 541.158 155.648C541.158 155.648 543.915 158.157 543.915 159.855L547.49 159.957H547.482Z" fill="#01D8AE"/>
<path d="M292.496 351.368C292.496 351.368 288.263 363.358 279.739 368.469L279.918 364.672C279.918 364.672 279.636 365.568 275.48 364.492C275.48 364.492 285.814 353.928 286.77 347.119C286.77 347.119 288.007 350.686 288.494 352.187L292.479 351.368H292.496Z" fill="#01D8AE"/>
<path d="M348.422 377.045C348.422 377.045 359.413 383.437 362.852 392.755L359.157 391.868C359.157 391.868 359.985 392.311 358.15 396.194C358.15 396.194 349.694 384.077 343.183 381.866C343.183 381.866 346.912 381.32 348.49 381.116L348.431 377.045H348.422Z" fill="#01D8AE"/>
<path d="M303.657 12.0234C303.657 12.0234 315.203 10.6922 324.658 14.3956L321.791 16.913C321.791 16.913 323.122 18.2271 323.864 21.3503C323.864 21.3503 310.552 19.1316 303.657 19.1231C303.657 19.1231 306.567 16.2047 307.429 15.4282L303.657 12.0234Z" fill="#01D8AE"/>
<path d="M78.0547 65.041C78.0547 65.041 87.6803 54.0757 99.5928 49.5615L99.0467 54.3146C99.0467 54.3146 101.393 54.417 104.713 56.7039C104.713 56.7039 90.4536 65.8516 84.0366 71.6458C84.0366 71.6458 84.2925 66.4831 84.4376 65.0239H78.0547V65.041Z" fill="#DC911B"/>
<path d="M435.565 41.3098C439.883 43.4005 446.649 46.0629 454.108 50.7818C461.48 55.4325 469.519 62.1141 476.559 72.2517C477.139 73.0794 477.677 73.8986 478.18 74.7178C488.045 90.5215 485.664 103.219 485.664 103.219C485.254 106.769 482.114 114.901 482.114 114.901L479.469 107.29L473.922 112.734C473.922 112.734 473.922 112.734 473.931 112.708C474.127 112.043 478.846 95.9487 470.193 79.2746C461.617 62.7455 432.109 50.1418 430.402 49.425C430.351 49.4079 430.325 49.3909 430.325 49.3909L437.783 47.8378L435.573 41.3098H435.565Z" fill="#01D8AE"/>
<path d="M430.394 49.4165C434.003 48.657 443.748 47.1893 454.108 50.7733C461.48 55.4239 469.519 62.1055 476.559 72.2431C477.139 73.0709 477.677 73.8901 478.18 74.7093C484.939 93.6362 474.323 112.026 473.922 112.7C474.118 112.034 478.837 95.9402 470.184 79.2661C461.608 62.737 432.1 50.1333 430.394 49.4165Z" fill="#00C68C"/>
<path d="M184.319 91.9124L193.108 83.8996L181.17 82.7646L184.319 91.9124Z" fill="#AC94FF"/>
<path d="M433.176 86.2634L420.956 82.6196L426.383 93.9604L433.176 86.2634Z" fill="#AC94FF"/>
<path d="M71.6046 142.191L67.8926 130.193L79.4552 135.526L71.6046 142.191Z" fill="#F7EA3A"/>
<path d="M127.745 225.877L135.203 235.989L122.531 234.752L127.745 225.877Z" fill="#F7EA3A"/>
<path d="M471.936 342.067L479.385 352.17L466.722 350.942L471.936 342.067Z" fill="#F7EA3A"/>
<path d="M163.089 7.56055L167.347 16.2901L156.604 14.2848L163.089 7.56055Z" fill="#83BEFF"/>
<path d="M435.138 8.0127L441.41 20.8724L425.581 17.9284L435.138 8.0127Z" fill="#83BEFF"/>
<path d="M553.095 22.8778L561.986 27.0592L559.956 16.512L553.095 22.8778Z" fill="#83BEFF"/>
<path d="M523.757 28.544C523.757 28.544 517.809 22.895 507.714 25.4379L512.629 18.2955C512.629 18.2955 510.061 15.1211 508.712 11.5371C508.712 11.5371 520.07 12.5696 524.644 16.1366C529.218 19.695 523.757 28.5526 523.757 28.5526V28.544Z" fill="#7264D8"/>
<path d="M520.684 51.2854C520.684 51.2854 515.18 46.9164 515.862 40.1409C516.545 33.3654 529.132 26.7009 525.701 17.3398C525.701 17.3398 531.606 24.2604 532.212 29.9606C532.818 35.6609 520.018 46.4129 520.684 51.2854Z" fill="#AC94FF"/>
<path d="M563.897 58.2742C563.897 58.2742 560.867 50.91 550.917 50.2273C540.968 49.5361 527.237 54.4086 520.684 51.294C514.13 48.1793 516.989 36.9238 516.989 36.9238C516.989 36.9238 511.69 41.1905 514.932 53.0518C518.175 64.9217 536.001 61.9947 547.598 60.9707C559.195 59.9467 562.233 62.4811 562.702 65.3398C562.702 65.3398 564.528 59.4433 563.888 58.2657L563.897 58.2742Z" fill="#7264D8"/>
<path d="M517.486 102.963C517.486 102.963 515.224 94.3276 525.78 86.5708C536.336 78.814 560.178 69.9905 562.712 65.3398C565.247 60.6892 562.089 54.6049 559.478 53.1201C559.478 53.1201 567.79 56.0385 567.977 67.5329C568.165 79.0273 544.963 87.2278 536.114 91.9382C527.265 96.6486 519.414 104.422 520.899 109.679C520.899 109.679 517.656 105.779 517.486 102.955V102.963Z" fill="#AC94FF"/>
<path d="M587.867 151.415C587.867 151.415 585.461 137.779 565.356 132.224C551.071 128.282 535.182 122.982 528.04 116.335C520.898 109.687 515.624 105.088 517.919 96.8021C517.919 96.8021 510.615 108.971 523.679 122.854C536.744 136.73 579.223 142.165 587.876 151.415H587.867Z" fill="#7264D8"/>
<path d="M563.214 190.464C563.214 190.464 591.246 162.551 586.314 147.319C586.314 147.319 590.418 154.923 589.821 163.234C589.223 171.554 574.939 195.26 566.883 199.569L567.899 192.529L563.222 190.455L563.214 190.464Z" fill="#AC94FF"/>
<path d="M202.01 24.4563C202.01 24.4563 206.166 27.3149 202.684 34.4744C199.203 41.6339 189.586 46.2845 188.758 49.604C187.93 52.9234 191.762 56.3624 191.762 56.3624C191.762 56.3624 185.02 54.2461 183.484 48.5288C181.948 42.8115 190.738 35.7459 195.968 32.2131C201.191 28.6888 199.663 23.1763 199.663 23.1763C199.663 23.1763 201.609 23.3555 202.019 24.4563H202.01Z" fill="#7264D8"/>
<path d="M203.93 27.7247C203.93 27.7247 203.341 22.8778 194.441 23.4922C185.541 24.1066 182.887 27.9466 182.887 27.9466L175.949 19.0719C175.949 19.0719 199.749 12.7999 203.93 27.7247Z" fill="#AC94FF"/>
<path d="M251.248 54.0757C251.248 54.0757 254.431 59.3664 247.988 70.5792C241.545 81.792 238.781 86.2378 239.617 89.0367L236.186 83.3365L232.662 83.985C232.662 83.985 232.79 77.6277 239.438 69.0261C246.085 60.4245 246.759 51.6608 246.187 49.2373C246.187 49.2373 250.48 50.7904 251.248 54.0757Z" fill="#7264D8"/>
<path d="M191.761 56.3627C191.761 56.3627 196.421 59.8101 206.951 56.9003C217.481 53.9989 230.989 49.024 240.666 50.7392C250.343 52.4629 251.998 57.5829 251.998 57.5829C251.998 57.5829 252.817 49.8091 241.681 44.9792C230.537 40.1493 197.308 54.5536 188.783 51.6523C188.783 51.6523 189.509 55.3472 191.77 56.3541L191.761 56.3627Z" fill="#AC94FF"/>
<path d="M629.699 93.3203C629.699 93.3203 633.385 98.0477 626.772 105.019C620.158 111.991 607.461 113.945 605.293 117.444C603.126 120.951 606.223 126.225 606.223 126.225C606.223 126.225 599.311 121.438 599.67 114.363C600.028 107.281 612.666 102.28 619.936 100.079C627.198 97.8771 627.488 91.0333 627.488 91.0333C627.488 91.0333 629.639 91.9208 629.707 93.3203H629.699Z" fill="#01D8AE"/>
<path d="M630.67 97.732C630.67 97.732 631.788 91.9806 621.403 89.5656C611.018 87.1422 606.572 90.6152 606.572 90.6152L601.93 78.0371C601.93 78.0371 631.404 79.1976 630.67 97.732Z" fill="#379391"/>
<path d="M639.999 124.382V132.454C634.256 132.258 628.488 132.309 623.359 132.173C610.269 131.806 606.224 126.233 606.224 126.233L606.207 126.216C604.347 124.552 604.458 121.062 604.526 120.072C604.543 119.902 604.552 119.808 604.552 119.808C609.416 123.341 625.177 123.375 639.999 124.382Z" fill="#379391"/>
<path d="M73.5491 0.3072H85.2056C85.0094 0.324267 84.8131 0.332798 84.6254 0.341331C78.7459 0.622931 76.2542 4.62506 75.435 6.41706C75.196 6.9376 75.0936 7.2704 75.0936 7.2704C75.0936 7.2704 73.2248 5.888 73.5064 4.51413C73.5064 4.51413 73.0712 3.52426 73.1822 1.97973C73.2163 1.5616 73.3102 1.09227 73.4467 0.605866C73.4723 0.494932 73.4979 0.392534 73.5235 0.3072C73.5832 0.110934 73.6344 0 73.6344 0C73.6003 0.1024 73.5747 0.2048 73.5491 0.3072Z" fill="#83BEFF"/>
<path d="M73.5496 0.3072C73.4898 0.529067 73.4301 0.750934 73.3789 0.964267C73.4216 0.6912 73.4728 0.469334 73.524 0.3072C73.5837 0.110934 73.6349 0 73.6349 0C73.6008 0.1024 73.5752 0.2048 73.5496 0.3072Z" fill="#58A1FF"/>
<path d="M96.6912 26.1121C96.6912 26.1121 70.4938 18.415 73.1818 1.97986C73.233 1.65559 73.3013 1.32279 73.3781 0.98999C73.233 2.13346 73.3781 4.15586 75.4346 6.41719C76.5269 7.63745 78.1824 8.91745 80.6229 10.1804C90.1034 15.0614 95.2576 12.783 95.2576 12.783L96.6912 26.1121Z" fill="#58A1FF"/>
<path d="M141.952 86.2121C141.952 86.2121 150.127 89.5657 152.482 107.665C154.828 125.756 154.385 130.039 157.423 134.989L150.067 131.968L146.619 135.629C146.619 135.629 143.778 134.178 144.196 114.765C144.52 99.4814 142.711 90.1289 132.027 84.9235C132.027 84.9235 138.248 83.1145 141.952 86.2121Z" fill="#83BEFF"/>
<path d="M146.056 89.8217C146.056 89.8217 146.03 89.8217 146.03 89.8046C145.697 89.5913 142.395 87.5347 136.132 88.5331C133.648 88.9342 130.696 89.8131 127.283 91.4686C118.903 95.5561 109.269 107.417 102.22 116.522C102.22 116.522 101.196 112.222 101 108.749C101 108.749 95.5983 110.08 93.3711 110.012C100.24 102.545 114.039 86.3486 123.451 84.0873C140.211 80.0681 146.047 89.8217 146.047 89.8217H146.056Z" fill="#58A1FF"/>
<path d="M37.9468 32.128C36.351 32.128 35.0625 30.8566 35.0625 29.295C35.0625 27.7334 36.351 26.4619 37.9468 26.4619C39.5425 26.4619 40.831 27.7334 40.831 29.295C40.831 30.8566 39.5425 32.128 37.9468 32.128Z" fill="#F7EA3A"/>
<path d="M135.679 154.206C134.083 154.206 132.795 152.934 132.795 151.373C132.795 149.811 134.083 148.54 135.679 148.54C137.275 148.54 138.563 149.811 138.563 151.373C138.563 152.934 137.275 154.206 135.679 154.206Z" fill="#F7EA3A"/>
<path d="M35.064 94.7455C33.4682 94.7455 32.1797 93.474 32.1797 91.9124C32.1797 90.3508 33.4682 89.0793 35.064 89.0793C36.6597 89.0793 37.9482 90.3508 37.9482 91.9124C37.9482 93.474 36.6597 94.7455 35.064 94.7455Z" fill="#F7EA3A"/>
<path d="M480.869 33.0582C480.869 31.4966 479.581 30.2251 477.985 30.2251C476.389 30.2251 475.101 31.4966 475.101 33.0582C475.101 34.6198 476.389 35.8912 477.985 35.8912C479.581 35.8912 480.869 34.6198 480.869 33.0582Z" fill="#AC94FF"/>
<path d="M582.398 114.227C582.398 112.666 581.11 111.394 579.514 111.394C577.918 111.394 576.63 112.666 576.63 114.227C576.63 115.789 577.918 117.06 579.514 117.06C581.11 117.06 582.398 115.789 582.398 114.227Z" fill="#AC94FF"/>
<path d="M89.037 270.25C94.6946 276.787 105.882 279.313 115.721 281.583C115.721 281.583 115.721 281.583 115.729 281.583C121.156 282.837 126.174 284.006 129.63 285.721C129.63 285.721 129.639 285.721 129.647 285.738C132.122 286.976 133.794 288.495 134.238 290.534C136.414 300.552 121.899 309.009 121.899 309.009L128.444 309.837L127.727 315.23C127.727 315.23 141.201 305.766 141.551 293.239C141.628 290.551 141.099 287.727 139.708 284.825C132.122 268.996 99.8829 273.382 94.2253 267.17C94.1229 267.05 94.0717 266.982 94.0717 266.982C93.9266 266.803 93.7986 266.607 93.6962 266.402C90.0354 259.055 96.7341 246.323 96.7341 246.323L89.933 249.096L88.1325 242.372C88.1325 242.372 77.9864 257.51 89.02 270.242L89.037 270.25Z" fill="#58A1FF"/>
<path d="M94.2339 267.161C95.4285 268.621 103.569 278.075 115.712 281.574C115.712 281.574 115.712 281.574 115.721 281.574C120.73 283.025 125.381 284.126 129.622 285.713C129.622 285.713 129.63 285.713 129.639 285.73C134.059 287.377 138.044 289.57 141.543 293.222C141.619 290.534 141.09 287.71 139.699 284.808C132.113 268.979 99.8744 273.365 94.2168 267.153L94.2339 267.161Z" fill="#83BEFF"/>
<path d="M425.358 343.432C425.358 343.432 428.2 351.189 432.544 357.564C432.544 357.564 427.739 356.966 427.082 356.446L426.092 361.02C426.092 361.02 419.163 350.609 418.421 346.76L421.851 347.989L425.358 343.432Z" fill="#58A1FF"/>
<path d="M102.922 343.543C102.922 343.543 95.5662 347.306 89.7721 352.392C89.7721 352.392 89.7721 347.554 90.2158 346.829L85.5566 346.402C85.5566 346.402 95.0542 338.253 98.7748 337.058L97.9726 340.616L102.922 343.543Z" fill="#AC94FF"/>
<path d="M388.787 355.183L382.106 356.258C382.106 356.258 382.037 356.241 382.003 356.249C381.534 356.343 382.165 364.97 381.687 364.433C373.154 354.799 357.794 351.078 349.235 350.984C340.762 350.89 334.549 352.503 334.549 352.503L339.917 346.632L333.491 342.135C333.491 342.135 362.573 331.298 388.787 355.174V355.183Z" fill="#83BEFF"/>
<path d="M520.532 336.418C520.532 336.418 531.779 338.398 537.3 346.078L532.931 347.665C532.931 347.665 532.761 349.047 532.709 353.049C532.709 353.049 522 345.088 515.651 342.4C515.651 342.4 519.884 341.069 521.505 340.941L520.532 336.426V336.418Z" fill="#01D8AE"/>
<path d="M546.925 245.393C546.925 245.393 546.08 237.218 536.771 232.584L545.142 230.357C545.142 230.357 545.253 226.27 546.558 222.66C546.558 222.66 554.503 230.844 555.663 236.535C556.824 242.219 546.925 245.393 546.925 245.393Z" fill="#58A1FF"/>
<path d="M528.792 260.693C528.792 260.693 528.493 253.781 533.408 249.079C538.323 244.378 552.207 247.501 555.68 238.148C555.68 238.148 555.663 247.262 552.42 251.989C549.178 256.717 531.445 256.563 528.792 260.702V260.693Z" fill="#83BEFF"/>
<path d="M558.076 294.144C558.076 294.144 560.559 286.575 553.46 279.569C546.36 272.572 532.775 267.332 529.822 260.693C526.87 254.054 536.35 247.364 536.35 247.364C536.35 247.364 529.566 247.159 524.318 258.295C519.07 269.431 534.499 278.818 543.962 285.593C553.426 292.36 554.083 296.269 552.581 298.752C552.581 298.752 557.795 295.458 558.068 294.144H558.076Z" fill="#58A1FF"/>
<path d="M555.159 303.846C547.838 312.712 524.909 303.846 515.13 301.653C511.307 300.8 505.871 300.416 500.828 305.075C501.186 302.839 502.039 298.283 503.191 296.653C503.191 296.653 499.428 295.168 497.099 294.246C499.667 292.275 503.985 290.338 510.778 290.841C523.817 291.823 547.642 300.638 552.591 298.752C557.515 296.875 559.076 290.219 558.078 287.377C558.325 287.821 562.251 295.262 555.159 303.846Z" fill="#83BEFF"/>
<path d="M27.7775 47.7525C27.7775 47.7525 35.0565 46.4555 44.8442 58.4619C54.6319 70.4768 58.4122 75.4688 61.9023 75.7333L54.0517 77.1328L53.2666 81.3482C53.2666 81.3482 46.2095 78.481 39.4341 67.3621C32.6671 56.2432 23.1439 51.7376 20.1914 51.3365C20.1914 51.3365 23.7669 47.1979 27.7775 47.744V47.7525Z" fill="#7264D8"/>
<path d="M32.0256 48.4181C32.0256 48.4181 25.5915 48.0683 19.5243 58.1632C13.4485 68.2496 13.2267 85.4869 11.9637 98.5088C10.7008 111.531 4.85546 115.268 4.85546 115.268C3.59253 116.523 1.47627 116.753 0 116.727V113.476C4.9664 100.625 4.26666 64 13.5083 54.5621C23.68 44.1685 32.0256 48.4181 32.0256 48.4181Z" fill="#AC94FF"/>
<path d="M162.252 365.431C162.252 365.431 155.135 362.513 153.096 346.769C151.048 331.025 151.44 327.304 148.795 322.995L155.195 325.623L158.19 322.44C158.19 322.44 160.665 323.703 160.306 340.599C160.025 353.903 161.595 362.035 170.888 366.558C170.888 366.558 165.478 368.128 162.252 365.431Z" fill="#83BEFF"/>
<path d="M158.686 362.291C158.686 362.291 158.711 362.291 158.711 362.308C159.001 362.496 161.868 364.279 167.321 363.417C169.48 363.067 172.049 362.299 175.018 360.866C182.306 357.307 190.694 346.991 196.821 339.063C196.821 339.063 197.717 342.809 197.879 345.83C197.879 345.83 202.572 344.67 204.518 344.729C198.545 351.223 186.53 365.32 178.346 367.283C163.763 370.782 158.686 362.291 158.686 362.291Z" fill="#58A1FF"/>
<path d="M93.3725 295.996C94.9683 295.996 96.2568 297.267 96.2568 298.829C96.2568 300.39 94.9683 301.662 93.3725 301.662C91.7768 301.662 90.4883 300.39 90.4883 298.829C90.4883 297.267 91.7768 295.996 93.3725 295.996Z" fill="#F7EA3A"/>
<path d="M153.028 52.7444C153.028 52.7444 151.995 56.226 145.16 56.9599C138.325 57.6938 135.68 57.105 135.68 57.105L136.354 49.1263C136.354 49.1263 144.452 50.1162 146.312 47.5732C146.312 47.5732 152.448 49.1092 153.028 52.7359V52.7444Z" fill="#53BFC4"/>
<path d="M153.028 52.7446C153.028 52.7446 153.702 50.0054 145.468 47.2918C137.233 44.5697 129.894 41.8902 127.394 36.9494C124.894 32.0086 129.689 30.2507 129.689 30.2507C129.689 30.2507 137.25 34.9355 144.947 36.9665C152.636 38.9889 155.238 48.9814 153.028 52.7531V52.7446Z" fill="#379391"/>
<path d="M138.291 15.4624L140.664 23.8336C140.664 23.8336 126.473 29.3035 127.394 36.9408C127.394 36.9408 121.037 22.6219 138.291 15.4624Z" fill="#53BFC4"/>
<path d="M615.533 170.419L619.245 158.421L607.69 163.754L615.533 170.419Z" fill="#F7EA3A"/>
<path d="M272.154 81.826C270.558 81.826 269.27 80.5546 269.27 78.993C269.27 77.4314 270.558 76.1599 272.154 76.1599C273.75 76.1599 275.038 77.4314 275.038 78.993C275.038 80.5546 273.75 81.826 272.154 81.826Z" fill="#F7EA3A"/>
<path d="M232.313 367.01L241.102 358.997L229.164 357.871L232.313 367.01Z" fill="#AC94FF"/>
<path d="M592.768 241.689C594.364 241.689 595.652 242.961 595.652 244.523C595.652 246.084 594.364 247.356 592.768 247.356C591.172 247.356 589.884 246.084 589.884 244.523C589.884 242.961 591.172 241.689 592.768 241.689Z" fill="#F7EA3A"/>
<path d="M103.432 134.519C104.139 134.519 104.712 133.946 104.712 133.239C104.712 132.533 104.139 131.959 103.432 131.959C102.725 131.959 102.152 132.533 102.152 133.239C102.152 133.946 102.725 134.519 103.432 134.519Z" fill="white"/>
<path d="M105.747 82.6367C106.454 82.6367 107.027 82.0636 107.027 81.3567C107.027 80.6497 106.454 80.0767 105.747 80.0767C105.04 80.0767 104.467 80.6497 104.467 81.3567C104.467 82.0636 105.04 82.6367 105.747 82.6367Z" fill="white"/>
<path d="M58.6667 114.987C59.3736 114.987 59.9467 114.413 59.9467 113.707C59.9467 113 59.3736 112.427 58.6667 112.427C57.9598 112.427 57.3867 113 57.3867 113.707C57.3867 114.413 57.9598 114.987 58.6667 114.987Z" fill="white"/>
<path d="M65.8855 39.5009C66.5924 39.5009 67.1655 38.9278 67.1655 38.2209C67.1655 37.514 66.5924 36.9409 65.8855 36.9409C65.1785 36.9409 64.6055 37.514 64.6055 38.2209C64.6055 38.9278 65.1785 39.5009 65.8855 39.5009Z" fill="white"/>
<path d="M210.833 67.217C211.54 67.217 212.113 66.6439 212.113 65.937C212.113 65.2301 211.54 64.657 210.833 64.657C210.126 64.657 209.553 65.2301 209.553 65.937C209.553 66.6439 210.126 67.217 210.833 67.217Z" fill="white"/>
<path d="M287.454 21.7172C288.161 21.7172 288.734 21.1441 288.734 20.4372C288.734 19.7303 288.161 19.1572 287.454 19.1572C286.747 19.1572 286.174 19.7303 286.174 20.4372C286.174 21.1441 286.747 21.7172 287.454 21.7172Z" fill="white"/>
<path d="M348.799 72.371C349.505 72.371 350.079 71.798 350.079 71.091C350.079 70.3841 349.505 69.811 348.799 69.811C348.092 69.811 347.519 70.3841 347.519 71.091C347.519 71.798 348.092 72.371 348.799 72.371Z" fill="white"/>
<path d="M396.978 17.8432C397.685 17.8432 398.258 17.2701 398.258 16.5632C398.258 15.8563 397.685 15.2832 396.978 15.2832C396.271 15.2832 395.698 15.8563 395.698 16.5632C395.698 17.2701 396.271 17.8432 396.978 17.8432Z" fill="white"/>
<path d="M425.787 69.0859C426.494 69.0859 427.067 68.5128 427.067 67.8059C427.067 67.099 426.494 66.5259 425.787 66.5259C425.08 66.5259 424.507 67.099 424.507 67.8059C424.507 68.5128 425.08 69.0859 425.787 69.0859Z" fill="white"/>
<path d="M500.752 73.1135C501.459 73.1135 502.032 72.5404 502.032 71.8335C502.032 71.1265 501.459 70.5535 500.752 70.5535C500.045 70.5535 499.472 71.1265 499.472 71.8335C499.472 72.5404 500.045 73.1135 500.752 73.1135Z" fill="white"/>
<path d="M583.677 53.8452C584.384 53.8452 584.957 53.2721 584.957 52.5652C584.957 51.8582 584.384 51.2852 583.677 51.2852C582.971 51.2852 582.397 51.8582 582.397 52.5652C582.397 53.2721 582.971 53.8452 583.677 53.8452Z" fill="white"/>
<path d="M555.152 100.292C555.859 100.292 556.432 99.7191 556.432 99.0122C556.432 98.3053 555.859 97.7322 555.152 97.7322C554.445 97.7322 553.872 98.3053 553.872 99.0122C553.872 99.7191 554.445 100.292 555.152 100.292Z" fill="white"/>
<path d="M520.201 142.592C520.908 142.592 521.481 142.019 521.481 141.312C521.481 140.605 520.908 140.032 520.201 140.032C519.494 140.032 518.921 140.605 518.921 141.312C518.921 142.019 519.494 142.592 520.201 142.592Z" fill="white"/>
<path d="M274.209 387.9C274.916 387.9 275.489 387.327 275.489 386.62C275.489 385.913 274.916 385.34 274.209 385.34C273.502 385.34 272.929 385.913 272.929 386.62C272.929 387.327 273.502 387.9 274.209 387.9Z" fill="white"/>
<path d="M213.272 367.01C213.979 367.01 214.552 366.437 214.552 365.73C214.552 365.023 213.979 364.45 213.272 364.45C212.565 364.45 211.992 365.023 211.992 365.73C211.992 366.437 212.565 367.01 213.272 367.01Z" fill="white"/>
<path d="M317.508 360.431C318.214 360.431 318.788 359.858 318.788 359.151C318.788 358.444 318.214 357.871 317.508 357.871C316.801 357.871 316.228 358.444 316.228 359.151C316.228 359.858 316.801 360.431 317.508 360.431Z" fill="white"/>
<path d="M399.144 376.653C399.851 376.653 400.424 376.079 400.424 375.373C400.424 374.666 399.851 374.093 399.144 374.093C398.437 374.093 397.864 374.666 397.864 375.373C397.864 376.079 398.437 376.653 399.144 376.653Z" fill="white"/>
<path d="M132.813 347.289C133.52 347.289 134.093 346.716 134.093 346.009C134.093 345.302 133.52 344.729 132.813 344.729C132.106 344.729 131.533 345.302 131.533 346.009C131.533 346.716 132.106 347.289 132.813 347.289Z" fill="white"/>
<path d="M477.32 372.539C478.027 372.539 478.6 371.966 478.6 371.259C478.6 370.553 478.027 369.979 477.32 369.979C476.613 369.979 476.04 370.553 476.04 371.259C476.04 371.966 476.613 372.539 477.32 372.539Z" fill="white"/>
<path d="M587.867 290.739C588.574 290.739 589.147 290.166 589.147 289.459C589.147 288.752 588.574 288.179 587.867 288.179C587.16 288.179 586.587 288.752 586.587 289.459C586.587 290.166 587.16 290.739 587.867 290.739Z" fill="white"/>
<path d="M64.4265 246.852C65.1334 246.852 65.7065 246.279 65.7065 245.572C65.7065 244.865 65.1334 244.292 64.4265 244.292C63.7196 244.292 63.1465 244.865 63.1465 245.572C63.1465 246.279 63.7196 246.852 64.4265 246.852Z" fill="white"/>
<path d="M538.965 206.626C539.671 206.626 540.245 206.053 540.245 205.346C540.245 204.639 539.671 204.066 538.965 204.066C538.258 204.066 537.685 204.639 537.685 205.346C537.685 206.053 538.258 206.626 538.965 206.626Z" fill="white"/>
</g>
</g>
<defs>
<clipPath id="clip0_1070_17507">
<rect width="640" height="389" fill="white"/>
</clipPath>
</defs>
</svg>
