<svg width="26" height="26" viewBox="0 0 26 26" fill="none" xmlns="http://www.w3.org/2000/svg">
<path opacity="0.967" fill-rule="evenodd" clip-rule="evenodd" d="M8.96289 1.29492C11.6374 1.28646 14.3119 1.29492 16.9863 1.32031C18.6012 1.32625 20.1247 1.69865 21.5566 2.4375C22.921 3.30993 23.8097 4.53714 24.2227 6.11914C24.3959 6.78646 24.5144 7.46352 24.5781 8.15039C24.6339 9.75772 24.6593 11.3658 24.6543 12.9746C24.6593 14.5835 24.6339 16.1915 24.5781 17.7988C24.4911 19.1287 24.1357 20.3814 23.5117 21.5566C22.6393 22.921 21.4121 23.8097 19.8301 24.2227C19.1627 24.396 18.4856 24.5144 17.7988 24.5781C16.1915 24.6339 14.5835 24.6593 12.9746 24.6543C11.3658 24.6593 9.75772 24.6339 8.15039 24.5781C6.82033 24.4911 5.56771 24.1356 4.39258 23.5117C2.83986 22.5 1.90041 21.0696 1.57422 19.2207C1.42934 18.4828 1.3447 17.738 1.32031 16.9863C1.28646 14.3118 1.28646 11.6374 1.32031 8.96289C1.34493 7.63014 1.59883 6.3437 2.08203 5.10352C2.88435 3.33698 4.23005 2.21134 6.11914 1.72656C7.06129 1.4941 8.00917 1.35022 8.96289 1.29492ZM8.91211 2.9707C11.6205 2.96224 14.3288 2.9707 17.0371 2.99609C18.3091 2.99989 19.5109 3.28765 20.6426 3.85938C21.6402 4.48592 22.2919 5.37459 22.5977 6.52539C22.7485 7.07495 22.85 7.63354 22.9023 8.20117C22.9837 11.1288 23.0007 14.0572 22.9531 16.9863C22.9311 18.0325 22.7449 19.0481 22.3945 20.0332C21.815 21.3571 20.8247 22.212 19.4238 22.5977C18.8745 22.7485 18.3159 22.85 17.748 22.9023C14.8035 22.984 11.8582 23.001 8.91211 22.9531C7.88338 22.9256 6.88467 22.7393 5.91602 22.3945C4.59208 21.815 3.73726 20.8247 3.35156 19.4238C3.13396 18.626 3.01547 17.8135 2.9961 16.9863C2.96224 14.3118 2.96224 11.6374 2.9961 8.96289C2.99374 7.56722 3.33228 6.26382 4.01172 5.05274C4.64243 4.19062 5.48031 3.62357 6.52539 3.35156C7.31601 3.14639 8.1116 3.01944 8.91211 2.9707Z" fill="#F86E6E"/>
<path opacity="0.971" fill-rule="evenodd" clip-rule="evenodd" d="M11.8066 6.11916C12.7391 6.10134 13.67 6.12673 14.5995 6.19533C15.2457 6.3168 15.6942 6.68075 15.9452 7.28713C16.0766 7.75381 16.1697 8.22775 16.2245 8.709C17.362 8.76197 18.4961 8.8551 19.6269 8.9883C20.1129 9.19077 20.2906 9.55467 20.1601 10.0801C20.0043 10.4292 19.7335 10.6153 19.3476 10.6387C19.1183 10.6063 18.8898 10.5725 18.662 10.5371C18.4947 13.0619 18.3001 15.5841 18.078 18.1035C17.9013 18.822 17.4697 19.3214 16.7831 19.6016C16.4855 19.7014 16.1808 19.7691 15.8691 19.8047C13.9394 19.8386 12.0097 19.8386 10.08 19.8047C8.9522 19.7628 8.21587 19.2127 7.87101 18.1543C7.78154 17.753 7.73076 17.3467 7.71867 16.9356C7.59151 14.7993 7.43917 12.6665 7.26164 10.5371C6.74839 10.7391 6.29136 10.6545 5.89055 10.2832C5.61074 9.70193 5.7546 9.27029 6.32219 8.9883C7.45456 8.85536 8.58871 8.74531 9.72453 8.65822C9.73682 7.98258 9.91455 7.35624 10.2577 6.77932C10.6948 6.36586 11.211 6.14582 11.8066 6.11916ZM11.705 7.79494C11.6365 7.82978 11.5773 7.88056 11.5273 7.94729C11.4903 8.15224 11.448 8.35536 11.4003 8.55666C12.4323 8.60744 13.4649 8.62435 14.498 8.60744C14.4806 8.3511 14.4468 8.09719 14.3964 7.84572C13.5007 7.79774 12.6035 7.78083 11.705 7.79494ZM12.0605 10.2324C11.0356 10.278 10.003 10.3288 8.96281 10.3848C9.1247 12.7201 9.28553 15.056 9.44523 17.3926C9.4466 17.851 9.67512 18.0964 10.1308 18.1289C12.0097 18.1628 13.8886 18.1628 15.7675 18.1289C16.1205 18.1351 16.349 17.9743 16.453 17.6465C16.6363 15.3717 16.7971 13.095 16.9355 10.8164C16.9186 10.6895 16.9016 10.5625 16.8847 10.4356C15.2805 10.3125 13.6724 10.2447 12.0605 10.2324Z" fill="#F86E6E"/>
</svg>
